<?xml version="1.0" standalone="no"?>
<!DOCTYPE svg PUBLIC "-//W3C//DTD SVG 1.1//EN" "http://www.w3.org/Graphics/SVG/1.1/DTD/svg11.dtd" >
<svg>
<metadata>
Created by FontForge 20090622 at Wed May 25 07:49:21 2016
 By deploy user
Copyright (c) 2012 by Goran Soderstrom. All rights reserved. Designed by Goran Soderstrom &#38; Patch Hofweber
</metadata>
<defs>
<font id="TrimPosterCondensed" horiz-adv-x="474" >
  <font-face 
    font-family="Trim Poster Condensed"
    font-weight="400"
    font-stretch="normal"
    units-per-em="1000"
    panose-1="2 0 0 0 0 0 0 0 0 0"
    ascent="750"
    descent="-250"
    x-height="700"
    cap-height="700"
    bbox="-120 -70 1048 760"
    underline-thickness="44"
    underline-position="-4"
    unicode-range="U+000D-U+FB02"
  />
<missing-glyph horiz-adv-x="468" 
d="M20 -70v830h428v-830h-428zM156 56h156v578h-156v-578z" />
    <glyph glyph-name="fi" unicode="fi" horiz-adv-x="582" 
d="M20 0v700h325v-136h-143v-150h141v-136h-141v-278h-182zM380 0v700h182v-700h-182z" />
    <glyph glyph-name="fl" unicode="fl" horiz-adv-x="702" 
d="M20 0v700h325v-136h-143v-150h141v-136h-141v-278h-182zM380 0v700h182v-564h130v-136h-312z" />
    <glyph glyph-name=".notdef" horiz-adv-x="468" 
d="M20 -70v830h428v-830h-428zM156 56h156v578h-156v-578z" />
    <glyph glyph-name=".null" horiz-adv-x="0" 
 />
    <glyph glyph-name=".null" horiz-adv-x="0" 
 />
    <glyph glyph-name="nonmarkingreturn" horiz-adv-x="333" 
 />
    <glyph glyph-name="CR" unicode="&#xd;" horiz-adv-x="165" 
 />
    <glyph glyph-name="space" unicode=" " horiz-adv-x="150" 
 />
    <glyph glyph-name="exclam" unicode="!" horiz-adv-x="221" 
d="M37 212l-22 316v172h191v-172l-23 -316h-146zM25 33v100q25 42 85 42q34 0 56.5 -13t29.5 -29v-100q-7 -16 -29.5 -29t-56.5 -13q-60 0 -85 42z" />
    <glyph glyph-name="quotedbl" unicode="&#x22;" horiz-adv-x="381" 
d="M38 396l-23 141v163h160v-162l-23 -142h-114zM229 396l-23 141v163h160v-162l-23 -142h-114z" />
    <glyph glyph-name="numbersign" unicode="#" horiz-adv-x="451" 
d="M27 0v104l10 75h-28v140h46l10 73h-56v140h74l22 168h129v-104l-9 -64h47l22 168h129v-104l-9 -64h28v-140h-46l-9 -73h56v-140h-75l-23 -179h-129v104l10 75h-48l-24 -179h-127zM197 319h47l10 73h-47z" />
    <glyph glyph-name="dollar" unicode="$" horiz-adv-x="416" 
d="M15 64v166h160v-80q9 -24 33 -24t33 24v88q-5 20 -39 31l-12 4q-135 44 -175 105v248q52 62 146 76v58h95v-58q91 -13 145 -76v-161h-160v75q-9 24 -33 24t-33 -24v-75q7 -22 41 -32l13 -4q130 -40 172 -105v-260q-54 -62 -145 -76v-58h-95v58q-94 14 -146 76z" />
    <glyph glyph-name="percent" unicode="%" horiz-adv-x="727" 
d="M186 452v147q-5 10 -23 10t-23 -10v-147q5 -10 23 -10t23 10zM10 438v174q13 40 52 69t101 29t101.5 -29t51.5 -69v-174q-12 -40 -51.5 -68.5t-101.5 -28.5t-101 28.5t-52 68.5zM587 102v147q-5 10 -23 10t-23 -10v-147q5 -10 23 -10t23 10zM411 88v174q13 40 52 69
t101 29t101.5 -29t51.5 -69v-174q-12 -40 -51.5 -68.5t-101.5 -28.5t-101 28.5t-52 68.5zM156 0v75l328 625h87v-75l-327 -625h-88z" />
    <glyph glyph-name="ampersand" unicode="&#x26;" horiz-adv-x="526" 
d="M17 98v197q19 38 57 66q-39 30 -57 65v177q25 47 80 80t137 33t137.5 -33t79.5 -81v-95h-182v38q-9 24 -35 24q-27 0 -35 -24v-97q9 -24 35 -24h35v42h182v-42h63v-136h-63v-128q8 -24 43 -24h20v-136h-29q-67 0 -115 17q-59 -33 -136 -33q-84 0 -138.5 33.5t-78.5 80.5z
M269 154v134h-35q-27 0 -35 -25v-108q9 -24 35 -24t35 23z" />
    <glyph glyph-name="quotesingle" unicode="'" horiz-adv-x="190" 
d="M38 396l-23 141v163h160v-162l-23 -142h-114z" />
    <glyph glyph-name="parenleft" unicode="(" horiz-adv-x="249" 
d="M17 44v602q7 15 21 31.5t39 36.5t66 33t91 13v-132q-25 0 -35 -24v-518q10 -24 35 -24v-132q-50 0 -91 13t-66 33t-39 36.5t-21 31.5z" />
    <glyph glyph-name="parenright" unicode=")" horiz-adv-x="249" 
d="M17 -70v132q25 0 35 24v518q-10 24 -35 24v132q50 0 91 -13t66 -33t39 -36.5t21 -31.5v-602q-7 -15 -21 -31.5t-39 -36.5t-66 -33t-91 -13z" />
    <glyph glyph-name="asterisk" unicode="*" horiz-adv-x="362" 
d="M31 473l80 65l-104 7q-1 6 -1 18q0 30 12.5 62t32.5 51l86 -55l-26 100q30 15 70 15q42 0 69 -15l-27 -101l88 56q20 -18 32.5 -50t12.5 -62q0 -13 -1 -19l-104 -8l80 -64q-13 -31 -45 -54t-67 -28l-38 96l-38 -96q-35 5 -67 28t-45 54z" />
    <glyph glyph-name="plus" unicode="+" horiz-adv-x="460" 
d="M148 127v145h-138v160h138v145h164v-145h138v-160h-138v-145h-164z" />
    <glyph glyph-name="comma" unicode="," horiz-adv-x="191" 
d="M25 -70v69h46q10 0 19 7.5t12 18.5v8h-7q-60 0 -85 42v85q25 42 85 42q34 0 56.5 -13t29.5 -29v-151q-7 -26 -36.5 -52.5t-71.5 -26.5h-48z" />
    <glyph glyph-name="hyphen" unicode="-" horiz-adv-x="220" 
d="M10 272v160h200v-160h-200z" />
    <glyph glyph-name="period" unicode="." horiz-adv-x="191" 
d="M10 33v100q25 42 85 42q34 0 56.5 -13t29.5 -29v-100q-7 -16 -29.5 -29t-56.5 -13q-60 0 -85 42z" />
    <glyph glyph-name="slash" unicode="/" horiz-adv-x="265" 
d="M10 0v117l107 583h138v-117l-107 -583h-138z" />
    <glyph glyph-name="zero" unicode="0" horiz-adv-x="464" 
d="M17 98v504q7 15 20.5 31.5t38 36.5t65.5 33t91 13t91 -13t65.5 -33.5t38 -36.5t20.5 -31v-504q-7 -15 -20.5 -31t-38 -36.5t-65.5 -33.5t-91 -13t-91 13t-65.5 33t-38 36.5t-20.5 31.5zM265 149v402q-8 23 -33 23q-23 0 -33 -23v-402q10 -23 33 -23q25 0 33 23z" />
    <glyph glyph-name="one" unicode="1" horiz-adv-x="349" 
d="M15 0v126h71v415h-71v110l103 49h150v-574h66v-126h-319z" />
    <glyph glyph-name="two" unicode="2" horiz-adv-x="438" 
d="M15 0v146l186 234q38 48 40 61v110q-8 23 -33 23t-33 -23v-122h-160v207q70 80 192 80q89 0 142 -35t74 -79v-177q-5 -19 -52 -79l-144 -179v-15h196v-152h-408z" />
    <glyph glyph-name="three" unicode="3" horiz-adv-x="438" 
d="M15 64v169h160v-84q10 -23 33 -23q25 0 33 23v122q-8 24 -32 24h-79v128h78q25 0 33 23v105q-8 23 -33 23q-23 0 -33 -23v-65h-160v150q72 80 193 80q83 0 137.5 -33.5t77.5 -80.5v-195q-18 -25 -45 -45q29 -26 45 -57v-207q-7 -15 -20.5 -31t-38 -36.5t-65.5 -33.5
t-91 -13q-126 0 -193 80z" />
    <glyph glyph-name="four" unicode="4" horiz-adv-x="469" 
d="M10 136v139l138 425h265v-426h49v-138h-49v-136h-182v136h-221zM149 274h82v226h-15z" />
    <glyph glyph-name="five" unicode="5" horiz-adv-x="445" 
d="M20 64v145h160v-60q10 -23 33 -23q25 0 33 23v147q-8 23 -33 23q-23 0 -33 -23v-30h-160v434h408v-152h-248v-138q48 38 107 38q55 0 91 -24.5t50 -52.5v-273q-26 -51 -81 -82.5t-134 -31.5q-126 0 -193 80z" />
    <glyph glyph-name="six" unicode="6" horiz-adv-x="442" 
d="M17 98v504q7 15 20.5 31.5t38 36.5t65.5 33t91 13q129 0 193 -81v-146h-160v62q-8 23 -33 23q-23 0 -33 -23v-147q43 33 97 33q89 0 129 -77v-295q-63 -81 -193 -81q-50 0 -91 13t-65.5 33t-38 36.5t-20.5 31.5zM265 149v136q-8 23 -33 23q-15 0 -33 -10v-149
q10 -23 33 -23q25 0 33 23z" />
    <glyph glyph-name="seven" unicode="7" horiz-adv-x="388" 
d="M64 0v117l146 414v17h-200v152h368v-148l-155 -552h-159z" />
    <glyph glyph-name="eight" unicode="8" horiz-adv-x="460" 
d="M15 98v207q15 32 48 59q-24 20 -38 43v212q24 38 74.5 67.5t130.5 29.5t130.5 -29.5t74.5 -67.5v-212q-14 -22 -39 -42q35 -30 49 -60v-207q-7 -15 -20.5 -31t-38 -36.5t-65.5 -33.5t-91 -13t-91 13t-65.5 33t-38 36.5t-20.5 31.5zM263 149v122q-8 23 -33 23
q-23 0 -33 -23v-122q10 -23 33 -23q25 0 33 23zM263 446v105q-8 23 -33 23q-23 0 -33 -23v-105q10 -23 33 -23q25 0 33 23z" />
    <glyph glyph-name="nine" unicode="9" horiz-adv-x="442" 
d="M17 65v136h160v-52q8 -23 33 -23q23 0 33 23v137q-41 -33 -97 -33q-89 0 -129 77v305q63 81 193 81q50 0 91 -13t65.5 -33t38 -36.5t20.5 -31.5v-504q-7 -15 -20.5 -31.5t-38 -36.5t-65.5 -33t-91 -13q-129 0 -193 81zM243 391v160q-10 23 -33 23q-25 0 -33 -23v-146
q8 -23 33 -23q15 0 33 9z" />
    <glyph glyph-name="colon" unicode=":" horiz-adv-x="195" 
d="M12 33v100q25 42 85 42q34 0 56.5 -13t29.5 -29v-100q-7 -16 -29.5 -29t-56.5 -13q-60 0 -85 42zM12 425v100q25 42 85 42q34 0 56.5 -13t29.5 -29v-100q-7 -16 -29.5 -29t-56.5 -13q-60 0 -85 42z" />
    <glyph glyph-name="semicolon" unicode=";" horiz-adv-x="195" 
d="M27 -70v69h46q10 0 19 7.5t12 18.5v8h-7q-60 0 -85 42v85q25 42 85 42q34 0 56.5 -13t29.5 -29v-151q-7 -26 -36.5 -52.5t-71.5 -26.5h-48zM12 425v100q25 42 85 42q34 0 56.5 -13t29.5 -29v-100q-7 -16 -29.5 -29t-56.5 -13q-60 0 -85 42z" />
    <glyph glyph-name="less" unicode="&#x3c;" horiz-adv-x="460" 
d="M20 222v142l285 182h135v-105l-238 -148l238 -148v-105h-135z" />
    <glyph glyph-name="equal" unicode="=" horiz-adv-x="460" 
d="M10 163v160h440v-160h-440zM10 382v160h440v-160h-440z" />
    <glyph glyph-name="greater" unicode="&#x3e;" horiz-adv-x="460" 
d="M20 40v105l238 148l-238 148v105h135l285 -182v-142l-285 -182h-135z" />
    <glyph glyph-name="question" unicode="?" horiz-adv-x="434" 
d="M94 208v104l101 91q48 43 57 61v76q-9 24 -35 24t-35 -24v-71h-172v150q13 20 34 39.5t68 38.5t104 19q82 0 135 -31.5t73 -65.5v-199q-11 -26 -73 -84l-86 -79v-49h-171zM94 33v100q25 42 85 42q34 0 56.5 -13t29.5 -29v-100q-7 -16 -29.5 -29t-56.5 -13q-60 0 -85 42z
" />
    <glyph glyph-name="at" unicode="@" horiz-adv-x="733" 
d="M10 227v246q43 109 141 176t216 67q60 0 115 -18t94.5 -45.5t71 -61.5t49.5 -64.5t26 -57.5v-318h-319v34q-46 -48 -114 -48q-61 0 -100 36t-54 82v184q15 46 54 81.5t100 35.5q64 0 107 -41v27h186v-334h77v255q-9 22 -23.5 45.5t-40.5 51t-57 48.5t-76.5 35.5
t-95.5 14.5q-97 0 -177 -54t-117 -141v-227q37 -87 117 -141t177 -54q86 0 160 44l38 -47q-92 -54 -198 -54q-119 0 -216 67t-141 176zM397 283v127q-16 10 -37 10q-30 0 -38 -16v-114q10 -17 39 -17q23 0 36 10z" />
    <glyph glyph-name="A" unicode="A" horiz-adv-x="482" 
d="M297 0l-17 167h-88l-19 -167h-161v117l92 583h274l92 -583v-117h-173zM231 506l-24 -203h60l-20 203h-16z" />
    <glyph glyph-name="B" unicode="B" horiz-adv-x="458" 
d="M20 0v700h253q59 0 104 -30t65 -68v-170q-16 -38 -60 -69q42 -28 60 -69v-196q-23 -44 -70 -71t-99 -27h-253zM202 419h35q25 0 35 24v97q-9 24 -35 24h-35v-145zM202 136h35q26 0 35 24v103q-9 24 -35 24h-35v-151z" />
    <glyph glyph-name="C" unicode="C" horiz-adv-x="458" 
d="M17 98v504q7 15 21 31.5t39 36.5t66 33t91 13q80 0 131 -29.5t76 -67.5v-205h-172v126q-8 24 -35 24q-25 0 -35 -24v-380q10 -24 35 -24q27 0 35 24v140h172v-220q-67 -96 -207 -96q-50 0 -91 13t-66 33t-39 36.5t-21 31.5z" />
    <glyph glyph-name="D" unicode="D" horiz-adv-x="471" 
d="M20 0v700h262q121 0 172 -98v-505q-53 -97 -172 -97h-262zM202 136h35q25 0 35 24v380q-9 24 -35 24h-35v-428z" />
    <glyph glyph-name="E" unicode="E" horiz-adv-x="362" 
d="M20 0v700h326v-136h-144v-140h135v-136h-135v-152h147v-136h-329z" />
    <glyph glyph-name="F" unicode="F" horiz-adv-x="360" 
d="M20 0v700h325v-136h-143v-150h141v-136h-141v-278h-182z" />
    <glyph glyph-name="G" unicode="G" horiz-adv-x="458" 
d="M17 98v504q7 15 21 31.5t39 36.5t66 33t91 13q80 0 131 -29.5t76 -67.5v-165h-172v86q-8 24 -35 24q-25 0 -35 -24v-380q10 -24 35 -24q27 0 35 24v111h-35v136h207v-327q-67 -96 -207 -96q-50 0 -91 13t-66 33t-39 36.5t-21 31.5z" />
    <glyph glyph-name="H" unicode="H" 
d="M20 0v700h182v-266h70v266h182v-700h-182v287h-70v-287h-182z" />
    <glyph glyph-name="I" unicode="I" horiz-adv-x="222" 
d="M20 0v700h182v-700h-182z" />
    <glyph glyph-name="J" unicode="J" horiz-adv-x="279" 
d="M12 0v136h27q35 0 43 24v540h182v-602q-20 -41 -73 -69.5t-143 -28.5h-36z" />
    <glyph glyph-name="K" unicode="K" horiz-adv-x="445" 
d="M20 0v700h182v-172h12l81 172h137v-117l-106 -178l106 -288v-117h-149l-67 220l-14 -23v-197h-182z" />
    <glyph glyph-name="L" unicode="L" horiz-adv-x="342" 
d="M20 0v700h182v-564h130v-136h-312z" />
    <glyph glyph-name="M" unicode="M" horiz-adv-x="605" 
d="M20 0v700h226l51 -230h13l53 230h222v-700h-172v354h-13l-63 -237h-79l-52 237h-14v-354h-172z" />
    <glyph glyph-name="N" unicode="N" horiz-adv-x="507" 
d="M20 0v700h188l93 -315h14v315h172v-700h-189l-93 314h-13v-314h-172z" />
    <glyph glyph-name="O" unicode="O" horiz-adv-x="468" 
d="M17 98v504q7 15 21 31.5t39 36.5t66 33t91 13t91.5 -13t66.5 -33.5t38.5 -36.5t20.5 -31v-504q-7 -15 -20.5 -31t-38.5 -36.5t-66.5 -33.5t-91.5 -13t-91 13t-66 33t-39 36.5t-21 31.5zM269 160v380q-9 24 -35 24t-35 -24v-380q9 -24 35 -24t35 24z" />
    <glyph glyph-name="P" unicode="P" horiz-adv-x="459" 
d="M20 0v700h254q49 0 96.5 -26t71.5 -72v-258q-18 -38 -65 -68t-103 -30h-72v-246h-182zM202 382h33q26 0 37 23v136q-12 23 -37 23h-33v-182z" />
    <glyph glyph-name="Q" unicode="Q" horiz-adv-x="468" 
d="M17 98v504q7 15 21 31.5t39 36.5t66 33t91 13t91.5 -13t66.5 -33.5t38.5 -36.5t20.5 -31v-504q-21 -46 -77 -79v-4h67v-85h-74q-100 0 -142 54q-62 2 -111 25.5t-68 45.5t-29 43zM269 160v380q-9 24 -35 24t-35 -24v-380q9 -24 35 -24t35 24z" />
    <glyph glyph-name="R" unicode="R" horiz-adv-x="457" 
d="M293 0l-80 256h-11v-256h-182v700h254q49 0 96.5 -26t71.5 -72v-233q-21 -55 -61 -84l61 -168v-117h-149zM202 392h33q26 0 37 23v126q-12 23 -37 23h-33v-172z" />
    <glyph glyph-name="S" unicode="S" horiz-adv-x="448" 
d="M17 81v149h172v-70q9 -24 35 -24t35 24v78q-5 19 -41 31l-12 4q-91 30 -130.5 60.5t-58.5 69.5v216q22 36 75 66.5t132 30.5t132 -30.5t75 -66.5v-144h-172v65q-9 24 -35 24t-35 -24v-65q6 -21 43 -32l13 -4q91 -28 129 -58.5t57 -72.5v-227q-24 -37 -75 -67t-132 -30
q-80 0 -132 30t-75 67z" />
    <glyph glyph-name="T" unicode="T" horiz-adv-x="400" 
d="M109 0v564h-99v136h380v-136h-99v-564h-182z" />
    <glyph glyph-name="U" unicode="U" 
d="M20 98v602h182v-540q10 -24 35 -24q27 0 35 24v540h182v-602q-7 -15 -20.5 -31t-38.5 -36.5t-66.5 -33.5t-91.5 -13t-91 13t-66 33t-39 36.5t-21 31.5z" />
    <glyph glyph-name="V" unicode="V" horiz-adv-x="482" 
d="M104 0l-92 583v117h174l50 -466h14l54 466h166v-117l-92 -583h-274z" />
    <glyph glyph-name="W" unicode="W" horiz-adv-x="736" 
d="M89 0l-72 583v117h174l30 -416h14l54 416h166l50 -416h14l34 416h166v-117l-72 -583h-229l-43 295h-14l-45 -295h-227z" />
    <glyph glyph-name="X" unicode="X" horiz-adv-x="439" 
d="M12 0v117l90 233l-90 233v117h160l42 -192h18l44 192h151v-117l-90 -233l90 -233v-117h-163l-40 191h-18l-45 -191h-149z" />
    <glyph glyph-name="Y" unicode="Y" horiz-adv-x="449" 
d="M129 0v258l-117 325v117h158l49 -222h16l50 222h152v-117l-126 -324v-259h-182z" />
    <glyph glyph-name="Z" unicode="Z" horiz-adv-x="395" 
d="M15 0v132l170 414v18h-169v136h364v-132l-172 -413v-19h172v-136h-365z" />
    <glyph glyph-name="bracketleft" unicode="[" horiz-adv-x="283" 
d="M20 -70v830h248v-126h-66v-578h66v-126h-248z" />
    <glyph glyph-name="backslash" unicode="\" horiz-adv-x="265" 
d="M117 0l-107 583v117h138l107 -583v-117h-138z" />
    <glyph glyph-name="bracketright" unicode="]" horiz-adv-x="283" 
d="M15 -70v126h66v578h-66v126h248v-830h-248z" />
    <glyph glyph-name="asciicircum" unicode="^" horiz-adv-x="392" 
d="M10 342v115l104 243h164l104 -243v-115h-120l-56 159h-19l-56 -159h-121z" />
    <glyph glyph-name="underscore" unicode="_" horiz-adv-x="443" 
d="M-7 -70v44h456v-44h-456z" />
    <glyph glyph-name="grave" unicode="`" horiz-adv-x="256" 
d="M96 630l-56 90v40h141l25 -130h-110z" />
    <glyph glyph-name="a" unicode="a" horiz-adv-x="482" 
d="M297 0l-17 167h-88l-19 -167h-161v117l92 583h274l92 -583v-117h-173zM231 506l-24 -203h60l-20 203h-16z" />
    <glyph glyph-name="b" unicode="b" horiz-adv-x="458" 
d="M20 0v700h253q59 0 104 -30t65 -68v-170q-16 -38 -60 -69q42 -28 60 -69v-196q-23 -44 -70 -71t-99 -27h-253zM202 419h35q25 0 35 24v97q-9 24 -35 24h-35v-145zM202 136h35q26 0 35 24v103q-9 24 -35 24h-35v-151z" />
    <glyph glyph-name="c" unicode="c" horiz-adv-x="458" 
d="M17 98v504q7 15 21 31.5t39 36.5t66 33t91 13q80 0 131 -29.5t76 -67.5v-205h-172v126q-8 24 -35 24q-25 0 -35 -24v-380q10 -24 35 -24q27 0 35 24v140h172v-220q-67 -96 -207 -96q-50 0 -91 13t-66 33t-39 36.5t-21 31.5z" />
    <glyph glyph-name="d" unicode="d" horiz-adv-x="471" 
d="M20 0v700h262q121 0 172 -98v-505q-53 -97 -172 -97h-262zM202 136h35q25 0 35 24v380q-9 24 -35 24h-35v-428z" />
    <glyph glyph-name="e" unicode="e" horiz-adv-x="361" 
d="M20 0v700h326v-136h-144v-140h135v-136h-135v-152h147v-136h-329z" />
    <glyph glyph-name="f" unicode="f" horiz-adv-x="360" 
d="M20 0v700h325v-136h-143v-150h141v-136h-141v-278h-182z" />
    <glyph glyph-name="g" unicode="g" horiz-adv-x="458" 
d="M17 98v504q7 15 21 31.5t39 36.5t66 33t91 13q80 0 131 -29.5t76 -67.5v-165h-172v86q-8 24 -35 24q-25 0 -35 -24v-380q10 -24 35 -24q27 0 35 24v111h-35v136h207v-327q-67 -96 -207 -96q-50 0 -91 13t-66 33t-39 36.5t-21 31.5z" />
    <glyph glyph-name="h" unicode="h" 
d="M20 0v700h182v-266h70v266h182v-700h-182v287h-70v-287h-182z" />
    <glyph glyph-name="i" unicode="i" horiz-adv-x="222" 
d="M20 0v700h182v-700h-182z" />
    <glyph glyph-name="j" unicode="j" horiz-adv-x="279" 
d="M12 0v136h27q35 0 43 24v540h182v-602q-20 -41 -73 -69.5t-143 -28.5h-36z" />
    <glyph glyph-name="k" unicode="k" horiz-adv-x="445" 
d="M20 0v700h182v-172h12l81 172h137v-117l-106 -178l106 -288v-117h-149l-67 220l-14 -23v-197h-182z" />
    <glyph glyph-name="l" unicode="l" horiz-adv-x="342" 
d="M20 0v700h182v-564h130v-136h-312z" />
    <glyph glyph-name="m" unicode="m" horiz-adv-x="605" 
d="M34 0v700h226l51 -230h13l53 230h222v-700h-172v354h-13l-63 -237h-79l-52 237h-14v-354h-172z" />
    <glyph glyph-name="n" unicode="n" horiz-adv-x="507" 
d="M20 0v700h188l93 -315h14v315h172v-700h-189l-93 314h-13v-314h-172z" />
    <glyph glyph-name="o" unicode="o" horiz-adv-x="468" 
d="M17 98v504q7 15 21 31.5t39 36.5t66 33t91 13t91.5 -13t66.5 -33.5t38.5 -36.5t20.5 -31v-504q-7 -15 -20.5 -31t-38.5 -36.5t-66.5 -33.5t-91.5 -13t-91 13t-66 33t-39 36.5t-21 31.5zM269 160v380q-9 24 -35 24t-35 -24v-380q9 -24 35 -24t35 24z" />
    <glyph glyph-name="p" unicode="p" horiz-adv-x="459" 
d="M20 0v700h254q49 0 96.5 -26t71.5 -72v-258q-18 -38 -65 -68t-103 -30h-72v-246h-182zM202 382h33q26 0 37 23v136q-12 23 -37 23h-33v-182z" />
    <glyph glyph-name="q" unicode="q" horiz-adv-x="468" 
d="M17 98v504q7 15 21 31.5t39 36.5t66 33t91 13t91.5 -13t66.5 -33.5t38.5 -36.5t20.5 -31v-504q-21 -46 -77 -79v-4h67v-85h-74q-100 0 -142 54q-62 2 -111 25.5t-68 45.5t-29 43zM269 160v380q-9 24 -35 24t-35 -24v-380q9 -24 35 -24t35 24z" />
    <glyph glyph-name="r" unicode="r" horiz-adv-x="457" 
d="M293 0l-80 256h-11v-256h-182v700h254q49 0 96.5 -26t71.5 -72v-233q-21 -55 -61 -84l61 -168v-117h-149zM202 392h33q26 0 37 23v126q-12 23 -37 23h-33v-172z" />
    <glyph glyph-name="s" unicode="s" horiz-adv-x="448" 
d="M17 81v149h172v-70q9 -24 35 -24t35 24v78q-5 19 -41 31l-12 4q-91 30 -130.5 60.5t-58.5 69.5v216q22 36 75 66.5t132 30.5t132 -30.5t75 -66.5v-144h-172v65q-9 24 -35 24t-35 -24v-65q6 -21 43 -32l13 -4q91 -28 129 -58.5t57 -72.5v-227q-24 -37 -75 -67t-132 -30
q-80 0 -132 30t-75 67z" />
    <glyph glyph-name="t" unicode="t" horiz-adv-x="400" 
d="M109 0v564h-99v136h380v-136h-99v-564h-182z" />
    <glyph glyph-name="u" unicode="u" 
d="M20 98v602h182v-540q10 -24 35 -24q27 0 35 24v540h182v-602q-7 -15 -20.5 -31t-38.5 -36.5t-66.5 -33.5t-91.5 -13t-91 13t-66 33t-39 36.5t-21 31.5z" />
    <glyph glyph-name="v" unicode="v" horiz-adv-x="482" 
d="M104 0l-92 583v117h174l50 -466h14l54 466h166v-117l-92 -583h-274z" />
    <glyph glyph-name="w" unicode="w" horiz-adv-x="736" 
d="M89 0l-72 583v117h174l30 -416h14l54 416h166l50 -416h14l34 416h166v-117l-72 -583h-229l-43 295h-14l-45 -295h-227z" />
    <glyph glyph-name="x" unicode="x" horiz-adv-x="439" 
d="M12 0v117l90 233l-90 233v117h160l42 -192h18l44 192h151v-117l-90 -233l90 -233v-117h-163l-40 191h-18l-45 -191h-149z" />
    <glyph glyph-name="y" unicode="y" horiz-adv-x="449" 
d="M129 0v258l-117 325v117h158l49 -222h16l50 222h152v-117l-126 -324v-259h-182z" />
    <glyph glyph-name="z" unicode="z" horiz-adv-x="395" 
d="M15 0v132l170 414v18h-169v136h364v-132l-172 -413v-19h172v-136h-365z" />
    <glyph glyph-name="braceleft" unicode="{" horiz-adv-x="277" 
d="M45 44v211q-10 24 -35 24v132q25 0 35 24v211q7 15 21 31.5t39 36.5t66 33t91 13v-132q-25 0 -35 -24v-191q-20 -40 -60 -68q39 -29 60 -68v-191q10 -24 35 -24v-132q-50 0 -91 13t-66 33t-39 36.5t-21 31.5z" />
    <glyph glyph-name="bar" unicode="|" horiz-adv-x="195" 
d="M20 -70v830h155v-830h-155z" />
    <glyph glyph-name="braceright" unicode="}" horiz-adv-x="277" 
d="M15 -70v132q25 0 35 24v191q17 37 59 68q-42 30 -59 68v191q-10 24 -35 24v132q50 0 91 -13t66 -33t39 -36.5t21 -31.5v-211q10 -24 35 -24v-132q-25 0 -35 -24v-211q-7 -15 -21 -31.5t-39 -36.5t-66 -33t-91 -13z" />
    <glyph glyph-name="asciitilde" unicode="~" horiz-adv-x="481" 
d="M23 262v164q5 5 14 12.5t39 20.5t62 13q42 0 116 -25.5t110 -25.5q25 0 48.5 11t34.5 22l11 11v-169q-35 -34 -93 -34q-45 0 -117.5 25.5t-110.5 25.5q-29 0 -57.5 -12.5t-42.5 -25.5z" />
    <glyph glyph-name="uni00A0" unicode="&#xa0;" horiz-adv-x="140" 
 />
    <glyph glyph-name="exclamdown" unicode="&#xa1;" horiz-adv-x="221" 
d="M15 0v172l23 316h146l22 -316v-172h-191zM25 567v100q7 16 29.5 29t56.5 13q60 0 85 -42v-100q-25 -42 -85 -42q-34 0 -56.5 13t-29.5 29z" />
    <glyph glyph-name="cent" unicode="&#xa2;" horiz-adv-x="438" 
d="M183 -70v57q-50 7 -89 30t-54.5 42.5t-24.5 38.5v404q6 13 17 27t30.5 32t51 32t69.5 20v57h95v-58q89 -13 145 -76v-166h-160v81q-8 23 -33 23q-23 0 -33 -23v-302q10 -23 33 -23q25 0 33 23v80h160v-165q-53 -63 -145 -76v-58h-95z" />
    <glyph glyph-name="sterling" unicode="&#xa3;" horiz-adv-x="458" 
d="M10 0v132q22 0 30 20v137h-30v115h30v198q7 15 20.5 31.5t38 36.5t65.5 33t91 13q122 0 193 -80v-146h-160v61q-8 23 -33 23q-23 0 -33 -23v-147h165l-13 -115h-152v-97q-9 -23 -28 -45h254v-147h-438z" />
    <glyph glyph-name="currency" unicode="&#xa4;" horiz-adv-x="483" 
d="M15 84v83l10 13q-6 9 -10 18v304q5 10 9 16l-9 12v86h116l10 -13q41 13 89 13q49 0 90 -13l12 13h113v-83l-10 -13q9 -16 10 -18v-304q-3 -6 -9 -16l9 -12v-86h-115l-10 13q-42 -13 -90 -13q-51 0 -92 13l-10 -13h-113zM263 249v202q-8 23 -33 23q-23 0 -33 -23v-202
q10 -23 33 -23q25 0 33 23z" />
    <glyph glyph-name="yen" unicode="&#xa5;" horiz-adv-x="435" 
d="M122 0v197h-107v96h105l-21 57h-84v95h50l-50 138v117h158l41 -192h12l42 192h152v-117l-55 -138h55v-95h-92l-23 -57h115v-96h-116v-197h-182z" />
    <glyph glyph-name="brokenbar" unicode="&#xa6;" horiz-adv-x="195" 
d="M20 380v380h155v-380h-155zM20 -70v390h155v-390h-155z" />
    <glyph glyph-name="section" unicode="&#xa7;" horiz-adv-x="436" 
d="M13 40v81h172v-46q8 -22 33 -22t33 22v44q-4 16 -31 22l-37 9q-138 34 -170 93v126q13 23 37 45q-28 21 -37 41v151q8 15 21.5 30.5t37.5 35t62.5 32t83.5 12.5q138 0 205 -110v-81h-172v46q-8 21 -34 21q-24 0 -32 -21v-45q4 -15 31 -21l37 -9q138 -34 170 -93v-126
q-16 -27 -38 -47q27 -19 38 -40v-150q-8 -15 -21.5 -31t-37.5 -35t-62.5 -31.5t-84.5 -12.5t-84 12.5t-62 32.5t-36.5 34.5t-21.5 30.5zM221 353l-36 8v-45q4 -17 30 -23l36 -9v46q-4 17 -30 23z" />
    <glyph glyph-name="dieresis" unicode="&#xa8;" horiz-adv-x="415" 
d="M40 656v71q26 33 74 33t74 -33v-71q-27 -32 -74 -32t-74 32zM227 656v71q26 33 74 33t74 -33v-71q-27 -32 -74 -32t-74 32z" />
    <glyph glyph-name="copyright" unicode="&#xa9;" horiz-adv-x="752" 
d="M10 350q0 152 107 259t259 107t259 -107t107 -259t-107 -259t-259 -107t-259 107t-107 259zM376 27q133 0 225 94.5t92 228.5t-92 228.5t-225 94.5q-132 0 -224.5 -94.5t-92.5 -228.5t92.5 -228.5t224.5 -94.5zM146 218v265q21 45 77.5 85t150.5 40q151 0 221 -100v-119
h-176v60q-11 17 -41 17q-31 0 -40 -17v-198q8 -17 40 -17q30 0 41 17v60h176v-119q-70 -100 -221 -100q-95 0 -151.5 41t-76.5 85z" />
    <glyph glyph-name="guillemotleft" unicode="&#xab;" horiz-adv-x="487" 
d="M158 66l-148 186v157l148 187h91v-104l-123 -160l123 -162v-104h-91zM386 66l-215 266l215 264h91v-104l-133 -160l133 -162v-104h-91z" />
    <glyph glyph-name="logicalnot" unicode="&#xac;" horiz-adv-x="460" 
d="M10 254v156h430v-345h-148v189h-282z" />
    <glyph glyph-name="uni00AD" unicode="&#xad;" horiz-adv-x="220" 
d="M10 272v160h200v-160h-200z" />
    <glyph glyph-name="registered" unicode="&#xae;" horiz-adv-x="498" 
d="M10 521q0 98 70.5 168.5t168.5 70.5t168.5 -70.5t70.5 -168.5t-70.5 -168.5t-168.5 -70.5t-168.5 70.5t-70.5 168.5zM249 325q80 0 136.5 57.5t56.5 138.5t-56.5 138.5t-136.5 57.5q-81 0 -137 -57.5t-56 -138.5t56 -138.5t137 -57.5zM136 386v274h142q29 0 55.5 -15.5
t38.5 -40.5v-86q-10 -22 -29 -36l29 -40v-56h-89l-36 75h-13v-75h-98zM234 536h26q15 0 18 10v30q-3 9 -18 9h-26v-49z" />
    <glyph glyph-name="macron" unicode="&#xaf;" horiz-adv-x="385" 
d="M70 670v90h265v-90h-265z" />
    <glyph glyph-name="degree" unicode="&#xb0;" horiz-adv-x="286" 
d="M13 553v128q6 13 18 26.5t42.5 28t69.5 14.5q56 0 88 -23t42 -46v-128q-6 -13 -18 -26.5t-42.5 -28t-69.5 -14.5q-56 0 -87.5 22.5t-42.5 46.5zM170 584v66q-1 4 -9 9t-18 5q-21 0 -27 -14v-66q6 -14 27 -14q10 0 18 5t9 9z" />
    <glyph glyph-name="plusminus" unicode="&#xb1;" horiz-adv-x="460" 
d="M148 198v145h-138v160h138v145h164v-145h138v-160h-138v-145h-164zM10 0v160h440v-160h-440z" />
    <glyph glyph-name="two.superior" unicode="&#xb2;" horiz-adv-x="318" 
d="M10 280v102l136 130q28 26 32 35v53q-10 10 -24 10q-16 0 -24 -10v-54h-120v99q52 65 144 65q60 0 99 -26t55 -56v-105q-8 -19 -39 -47l-85 -80v-5h124v-111h-298z" />
    <glyph glyph-name="three.superior" unicode="&#xb3;" horiz-adv-x="318" 
d="M10 334v80h120v-34q6 -10 24 -10q17 0 23 10v48q-3 15 -23 15h-59v98h59q18 0 24 13v46q-6 10 -24 10q-19 0 -24 -10v-32h-120v77q48 65 144 65q59 0 99.5 -26t54.5 -54v-95q-8 -14 -46 -38q34 -23 46 -45v-103q-14 -28 -54 -53.5t-100 -25.5q-90 0 -144 64z" />
    <glyph glyph-name="acute" unicode="&#xb4;" horiz-adv-x="265" 
d="M50 630l25 130h141v-40l-56 -90h-110z" />
    <glyph glyph-name="paragraph" unicode="&#xb6;" horiz-adv-x="477" 
d="M184 -70v280h-7q-119 0 -172 97v295q51 98 172 98h122v-770h-115zM342 -70v770h115v-770h-115z" />
    <glyph glyph-name="periodcentered" unicode="&#xb7;" horiz-adv-x="191" 
d="M10 287v100q25 42 85 42q34 0 56.5 -13t29.5 -29v-100q-7 -16 -29.5 -29t-56.5 -13q-60 0 -85 42z" />
    <glyph glyph-name="cedilla" unicode="&#xb8;" horiz-adv-x="289" 
d="M52 -70v68h56q19 0 25 7v24h101v-46q-21 -28 -49 -40.5t-77 -12.5h-56z" />
    <glyph glyph-name="one.superior" unicode="&#xb9;" horiz-adv-x="234" 
d="M10 280v90h43v217h-43v82l61 31h112v-330h41v-90h-214z" />
    <glyph glyph-name="guillemotright" unicode="&#xbb;" horiz-adv-x="487" 
d="M238 66v104l123 162l-123 160v104h91l148 -187v-157l-148 -186h-91zM10 66v104l133 162l-133 160v104h91l215 -264l-215 -266h-91z" />
    <glyph glyph-name="onequarter" unicode="&#xbc;" horiz-adv-x="290" 
d="M5 325v50h280v-50h-280zM60 395v68h42v153h-42v61l56 23h84v-237h30v-68h-170zM15 54v74l84 177h141v-175h25v-76h-25v-54h-94v54h-131zM95 130h51v83h-7z" />
    <glyph glyph-name="onehalf" unicode="&#xbd;" horiz-adv-x="290" 
d="M34 0v77l102 97q18 18 24 27v29q-8 8 -18 8q-13 0 -18 -8v-30h-90v64q40 49 108 49q45 0 74 -19.5t41 -42.5v-68q-3 -8 -29 -36l-64 -60v-3h93v-84h-223zM5 325v50h280v-50h-280zM60 395v68h42v153h-42v61l56 23h84v-237h30v-68h-170z" />
    <glyph glyph-name="threequarters" unicode="&#xbe;" horiz-adv-x="290" 
d="M33 439v55h90v-20q4 -8 18 -8q13 0 17 8v31q-4 11 -17 11h-45v73h45q11 0 18 10v30q-7 7 -18 7q-16 0 -18 -7v-19h-90v52q6 9 16.5 18.5t36 20t55.5 10.5q44 0 74.5 -19.5t40.5 -40.5v-66q-5 -9 -34 -29q25 -17 34 -33v-73q-10 -21 -40 -40t-75 -19q-70 0 -108 48zM5 325
v50h280v-50h-280zM15 54v74l84 177h141v-175h25v-76h-25v-54h-94v54h-131zM95 130h51v83h-7z" />
    <glyph glyph-name="questiondown" unicode="&#xbf;" horiz-adv-x="434" 
d="M10 84v199q8 24 73 84l86 79v49h171v-104l-100 -90q-48 -42 -58 -62v-76q9 -24 35 -24t35 24v71h172v-150q-13 -20 -34 -39.5t-68 -38.5t-104 -19q-82 0 -135 31.5t-73 65.5zM169 570v100q7 16 29.5 29t56.5 13q60 0 85 -42v-100q-25 -42 -85 -42q-34 0 -56.5 13
t-29.5 29z" />
    <glyph glyph-name="Agrave" unicode="&#xc0;" horiz-adv-x="482" 
d="M297 0l-17 167h-88l-19 -167h-161v117l89 563h71l-22 40v40h141l14 -80h76l89 -563v-117h-173zM231 506l-24 -203h60l-20 203h-16z" />
    <glyph glyph-name="Aacute" unicode="&#xc1;" horiz-adv-x="482" 
d="M12 0v117l89 563h76l15 80h141v-40l-23 -40h71l89 -563v-117h-173l-17 167h-88l-19 -167h-161zM207 303h60l-20 203h-16z" />
    <glyph glyph-name="Acircumflex" unicode="&#xc2;" horiz-adv-x="482" 
d="M12 0v117l82 523h-18v6l59 114h209l60 -114v-6h-17l83 -523v-117h-173l-17 167h-88l-19 -167h-161zM207 303h60l-20 203h-16zM201 670h77l-38 44z" />
    <glyph glyph-name="Atilde" unicode="&#xc3;" horiz-adv-x="482" 
d="M403 750v-52q-3 -23 -18 -43l85 -538v-117h-173l-17 167h-88l-19 -167h-161v117l80 507h-20v51q5 32 31 53.5t65 21.5q33 0 69.5 -23t48.5 -23q16 0 23 17v29h94zM231 506l-24 -203h60l-20 203h-16zM165 654v-13h81q-7 4 -19.5 13t-21 13t-16.5 4q-19 0 -24 -17z" />
    <glyph glyph-name="Adieresis" unicode="&#xc4;" horiz-adv-x="482" 
d="M12 0v117l82 520q-11 6 -22 19v71q26 33 74 33t74 -33v-47h43v47q26 33 74 33t74 -33v-71q-8 -11 -23 -19l82 -520v-117h-173l-17 167h-88l-19 -167h-161zM207 303h60l-20 203h-16z" />
    <glyph glyph-name="Aring" unicode="&#xc5;" horiz-adv-x="482" 
d="M12 0v117l89 563h18v28q37 52 122 52t122 -52v-28h17l90 -563v-117h-173l-17 167h-88l-19 -167h-161zM183 680v-46q16 -20 58 -20t58 20v46q-16 20 -58 20t-58 -20zM208 303h58l-19 193h-16z" />
    <glyph glyph-name="AE" unicode="&#xc6;" horiz-adv-x="608" 
d="M12 0v117l108 583h473v-136h-144v-140h135v-136h-135v-152h147v-136h-329v167h-70l-24 -167h-161zM217 303h50v241h-15z" />
    <glyph glyph-name="Ccedilla" unicode="&#xc7;" horiz-adv-x="458" 
d="M103 -70v68h56q19 0 25 7v12q-38 6 -69 20t-50.5 32t-30.5 32t-17 27v474q7 15 21 31.5t39 36.5t66 33t91 13q80 0 131 -29.5t76 -67.5v-195h-172v116q-8 24 -35 24q-25 0 -35 -24v-350q10 -24 35 -24q27 0 35 24v130h172v-210q-51 -75 -156 -92v-35q-21 -28 -49 -40.5
t-77 -12.5h-56z" />
    <glyph glyph-name="Egrave" unicode="&#xc8;" horiz-adv-x="372" 
d="M20 0v680h113l-22 40v40h131l20 -80h93v-136h-153v-130h143v-136h-143v-142h157v-136h-339z" />
    <glyph glyph-name="Eacute" unicode="&#xc9;" horiz-adv-x="372" 
d="M20 0v680h104l22 80h131v-40l-25 -40h103v-136h-153v-130h143v-136h-143v-142h157v-136h-339z" />
    <glyph glyph-name="Ecircumflex" unicode="&#xca;" horiz-adv-x="372" 
d="M20 0v680h21l42 80h209l42 -80h21v-136h-153v-130h143v-136h-143v-142h157v-136h-339zM154 680h68l-34 44z" />
    <glyph glyph-name="Edieresis" unicode="&#xcb;" horiz-adv-x="372" 
d="M20 0v680h18v50q23 30 66 30q44 0 67 -30v-50h34v50q23 30 67 30q43 0 66 -30v-50h17v-136h-153v-130h143v-136h-143v-142h157v-136h-339z" />
    <glyph glyph-name="Igrave" unicode="&#xcc;" horiz-adv-x="222" 
d="M20 0v680h37l-25 40v40h121l15 -80h34v-680h-182z" />
    <glyph glyph-name="Iacute" unicode="&#xcd;" horiz-adv-x="222" 
d="M20 0v680h33l16 80h121v-40l-25 -40h37v-680h-182z" />
    <glyph glyph-name="Icircumflex" unicode="&#xce;" horiz-adv-x="222" 
d="M20 0v640h-73v6l59 114h209l60 -114v-6h-73v-640h-182zM72 670h77l-38 44z" />
    <glyph glyph-name="Idieresis" unicode="&#xcf;" horiz-adv-x="222" 
d="M20 0v624q-49 0 -76 32v71q26 33 74 33t74 -33v-57h39v57q26 33 74 33t74 -33v-71q-27 -32 -77 -32v-624h-182z" />
    <glyph glyph-name="Eth" unicode="&#xd0;" horiz-adv-x="491" 
d="M40 0v299h-30v130h30v271h262q121 0 172 -98v-505q-53 -97 -172 -97h-262zM222 136h35q25 0 35 24v380q-9 24 -35 24h-35v-135h38v-130h-38v-163z" />
    <glyph glyph-name="Ntilde" unicode="&#xd1;" horiz-adv-x="507" 
d="M20 0v700h78q26 50 89 50q33 0 62.5 -23t41.5 -23q16 0 23 17v29h94v-50h79v-700h-189l-93 314h-13v-314h-172zM312 623q-33 0 -62 22.5t-33 23.5l84 -284h14v238h-3z" />
    <glyph glyph-name="Ograve" unicode="&#xd2;" horiz-adv-x="468" 
d="M17 98v474q8 17 22 34.5t47.5 39.5t75.5 32l-26 42v40h141l15 -79q47 -9 83.5 -32t52 -41.5t23.5 -35.5v-474q-7 -15 -20.5 -31t-38.5 -36.5t-66.5 -33.5t-91.5 -13t-91 13t-66 33t-39 36.5t-21 31.5zM269 160v350q-9 24 -35 24t-35 -24v-350q9 -24 35 -24t35 24z" />
    <glyph glyph-name="Oacute" unicode="&#xd3;" horiz-adv-x="468" 
d="M17 98v474q9 18 24 36.5t51.5 41t83.5 31.5l15 79h141v-40l-26 -42q60 -14 95.5 -45.5t49.5 -60.5v-474q-7 -15 -20.5 -31t-38.5 -36.5t-66.5 -33.5t-91.5 -13t-91 13t-66 33t-39 36.5t-21 31.5zM269 160v350q-9 24 -35 24t-35 -24v-350q9 -24 35 -24t35 24z" />
    <glyph glyph-name="Ocircumflex" unicode="&#xd4;" horiz-adv-x="468" 
d="M17 98v474q17 37 59 68h-16v6l69 114h209l70 -114v-6h-17q43 -32 60 -68v-474q-7 -15 -20.5 -31t-38.5 -36.5t-66.5 -33.5t-91.5 -13t-91 13t-66 33t-39 36.5t-21 31.5zM267 684l-33 35l-33 -35q20 2 33 2q11 0 33 -2zM269 160v350q-9 24 -35 24t-35 -24v-350
q9 -24 35 -24t35 24z" />
    <glyph glyph-name="Otilde" unicode="&#xd5;" horiz-adv-x="468" 
d="M399 760v-52q-5 -32 -31 -54q58 -32 83 -82v-474q-7 -15 -20.5 -31t-38.5 -36.5t-66.5 -33.5t-91.5 -13t-91 13t-66 33t-39 36.5t-21 31.5v474q17 34 51 62v51q5 32 31 53.5t65 21.5q33 0 69.5 -23t48.5 -23q16 0 23 17v29h94zM269 160v350q-8 24 -35 24q-25 0 -35 -24
v-350q10 -24 35 -24q27 0 35 24z" />
    <glyph glyph-name="Odieresis" unicode="&#xd6;" horiz-adv-x="468" 
d="M17 98v474q17 39 64 71q-10 8 -14 13v71q26 33 74 33t74 -33v-42q6 1 19 1t20 -1v42q26 33 74 33t74 -33v-71q-7 -9 -15 -14q46 -31 64 -70v-474q-7 -15 -20.5 -31t-38.5 -36.5t-66.5 -33.5t-91.5 -13t-91 13t-66 33t-39 36.5t-21 31.5zM269 160v350q-9 24 -35 24
t-35 -24v-350q9 -24 35 -24t35 24z" />
    <glyph glyph-name="multiply" unicode="&#xd7;" horiz-adv-x="460" 
d="M5 127v113l110 110l-110 111v116h116l110 -111l111 111h113v-113l-111 -111l111 -110v-116h-115l-111 111l-111 -111h-113z" />
    <glyph glyph-name="Oslash" unicode="&#xd8;" horiz-adv-x="468" 
d="M17 98v504q7 15 21 31.5t39 36.5t66 33t91 13q76 0 135 -32l9 16h73v-57l-12 -21l12 -20v-504q-7 -15 -20.5 -31t-38.5 -36.5t-66.5 -33.5t-91.5 -13q-77 0 -136 32l-9 -16h-72v57l11 21q-8 11 -11 20zM269 160v160l-70 -125v-35q10 -24 35 -24q27 0 35 24zM199 540v-159
l70 125v34q-8 24 -35 24q-25 0 -35 -24z" />
    <glyph glyph-name="Ugrave" unicode="&#xd9;" 
d="M20 98v602h132l-12 20v40h141l11 -60h162v-602q-7 -15 -20.5 -31t-38.5 -36.5t-66.5 -33.5t-91.5 -13t-91 13t-66 33t-39 36.5t-21 31.5zM272 160v470h-70v-470q10 -24 35 -24q27 0 35 24z" />
    <glyph glyph-name="Uacute" unicode="&#xda;" 
d="M20 98v602h161l12 60h141v-40l-13 -20h133v-602q-7 -15 -21 -31.5t-39 -36.5t-66 -33t-91 -13t-91.5 13t-66.5 33.5t-38.5 36.5t-20.5 31zM272 160v470h-70v-470q8 -24 35 -24q25 0 35 24z" />
    <glyph glyph-name="Ucircumflex" unicode="&#xdb;" 
d="M20 98v602h86l26 60h209l26 -60h87v-602q-7 -15 -20.5 -31t-38.5 -36.5t-66.5 -33.5t-91.5 -13t-91 13t-66 33t-39 36.5t-21 31.5zM272 160v507l-35 47l-35 -47v-507q10 -24 35 -24q27 0 35 24z" />
    <glyph glyph-name="Udieresis" unicode="&#xdc;" 
d="M20 98v602h56v27q26 33 74 33t74 -33v-71q-8 -9 -22 -18v-478q10 -24 35 -24q27 0 35 24v477q-15 8 -23 19v71q26 33 74 33t74 -33v-27h57v-602q-7 -15 -20.5 -31t-38.5 -36.5t-66.5 -33.5t-91.5 -13t-91 13t-66 33t-39 36.5t-21 31.5z" />
    <glyph glyph-name="Yacute" unicode="&#xdd;" horiz-adv-x="449" 
d="M129 0v258l-117 325v117h158l11 -50l30 110h141v-30l-23 -30h108v-117l-126 -324v-259h-182zM221 478h12l35 152h-82z" />
    <glyph glyph-name="Thorn" unicode="&#xde;" horiz-adv-x="460" 
d="M20 0v700h182v-100h72q49 0 96.5 -26t71.5 -72v-278q-18 -38 -65 -68t-103 -30h-72v-126h-182zM202 262h33q26 0 37 23v156q-12 23 -37 23h-33v-202z" />
    <glyph glyph-name="germandbls" unicode="&#xdf;" horiz-adv-x="896" 
d="M17 81v149h172v-70q9 -24 35 -24t35 24v78q-5 19 -41 31l-12 4q-91 30 -130.5 60.5t-58.5 69.5v216q22 36 75 66.5t132 30.5t132 -30.5t75 -66.5v-144h-172v65q-9 24 -35 24t-35 -24v-65q6 -21 43 -32l13 -4q91 -28 129 -58.5t57 -72.5v-227q-24 -37 -75 -67t-132 -30
q-80 0 -132 30t-75 67zM465 81v149h172v-70q9 -24 35 -24t35 24v78q-5 19 -41 31l-12 4q-91 30 -130.5 60.5t-58.5 69.5v216q22 36 75 66.5t132 30.5t132 -30.5t75 -66.5v-144h-172v65q-9 24 -35 24t-35 -24v-65q6 -21 43 -32l13 -4q91 -28 129 -58.5t57 -72.5v-227
q-24 -37 -75 -67t-132 -30q-80 0 -132 30t-75 67z" />
    <glyph glyph-name="agrave" unicode="&#xe0;" horiz-adv-x="482" 
d="M12 0v117l89 563h53l36 -63h134l-12 63h69l89 -563v-117h-173l-17 167h-88l-19 -167h-161zM198 630l-56 100v30h141l25 -130h-110zM207 303h60l-20 203h-16z" />
    <glyph glyph-name="aacute" unicode="&#xe1;" horiz-adv-x="482" 
d="M12 0v117l89 563h72l-12 -63h134l36 63h50l89 -563v-117h-173l-17 167h-88l-19 -167h-161zM177 630l25 130h141v-30l-56 -100h-110zM207 303h60l-20 203h-16z" />
    <glyph glyph-name="acircumflex" unicode="&#xe2;" horiz-adv-x="482" 
d="M12 0v117l81 510h90l58 65l58 -65h90l81 -510v-117h-173l-17 167h-88l-19 -167h-161zM77 640v6l59 114h209l60 -114v-6h-99l-65 74l-65 -74h-99zM207 303h60l-20 203h-16z" />
    <glyph glyph-name="atilde" unicode="&#xe3;" horiz-adv-x="482" 
d="M470 117v-117h-173l-17 167h-88l-19 -167h-161v117l78 494h89v39q3 7 12 7q5 0 43.5 -23.5t76.5 -23.5q49 0 77 28zM207 303h60l-20 203h-16zM404 750v-52q-5 -32 -31.5 -53.5t-64.5 -21.5q-34 0 -70 24t-48 24q-20 0 -24 -15v-32h-93v51q5 32 31 53.5t65 21.5
q33 0 69.5 -23t48.5 -23q16 0 23 17v29h94z" />
    <glyph glyph-name="adieresis" unicode="&#xe4;" horiz-adv-x="482" 
d="M12 0v117l80 507q22 -13 53 -13q26 0 50.5 11t36.5 27v31h19v-31q12 -16 36.5 -27t50.5 -11q33 0 52 13l80 -507v-117h-173l-17 167h-88l-19 -167h-161zM71 656v71q26 33 74 33t74 -33v-71q-27 -32 -74 -32t-74 32zM264 656v71q26 33 74 33t74 -33v-71q-27 -32 -74 -32
t-74 32zM207 303h60l-20 203h-16z" />
    <glyph glyph-name="aring" unicode="&#xe5;" horiz-adv-x="482" 
d="M297 0l-17 162h-88l-19 -162h-161v117l89 563h15v-66q39 -55 125 -55t125 55v66h15l89 -563v-117h-173zM129 619v94q34 47 112 47t112 -47v-94q-34 -47 -112 -47t-112 47zM188 690v-48q15 -19 53 -19t53 19v48q-15 19 -53 19t-53 -19zM231 476l-22 -178h56l-18 178h-16z
" />
    <glyph glyph-name="ae" unicode="&#xe6;" horiz-adv-x="609" 
d="M12 0v117l108 583h473v-136h-144v-140h135v-136h-135v-152h147v-136h-329v167h-70l-24 -167h-161zM217 303h50v241h-15z" />
    <glyph glyph-name="ccedilla" unicode="&#xe7;" horiz-adv-x="458" 
d="M103 -70v68h56q19 0 25 7v12q-38 6 -69 20t-50.5 32t-30.5 32t-17 27v474q7 15 21 31.5t39 36.5t66 33t91 13q80 0 131 -29.5t76 -67.5v-195h-172v116q-8 24 -35 24q-25 0 -35 -24v-350q10 -24 35 -24q27 0 35 24v130h172v-210q-51 -75 -156 -92v-35q-21 -28 -49 -40.5
t-77 -12.5h-56z" />
    <glyph glyph-name="egrave" unicode="&#xe8;" horiz-adv-x="372" 
d="M20 0v680h80l40 -63h133l-11 63h93v-136h-153v-130h143v-136h-143v-142h157v-136h-339zM148 630l-56 90v40h141l25 -130h-110z" />
    <glyph glyph-name="eacute" unicode="&#xe9;" horiz-adv-x="372" 
d="M20 0v680h97l-11 -63h133l40 63h76v-136h-153v-130h143v-136h-143v-142h157v-136h-339zM121 630l25 130h141v-40l-56 -90h-110z" />
    <glyph glyph-name="ecircumflex" unicode="&#xea;" horiz-adv-x="372" 
d="M20 0v627h110l57 65l57 -65h111v-93h-153v-125h143v-136h-143v-137h157v-136h-339zM23 640v6l59 114h209l60 -114v-6h-99l-65 74l-65 -74h-99z" />
    <glyph glyph-name="edieresis" unicode="&#xeb;" horiz-adv-x="372" 
d="M20 0v637q29 -26 72 -26q54 0 85 36v33h21v-33q31 -36 85 -36q41 0 72 26v-93h-153v-130h143v-136h-143v-142h157v-136h-339zM20 655v72q26 33 72 33t72 -33v-72q-26 -31 -72 -31t-72 31zM211 655v72q26 33 72 33t72 -33v-72q-26 -31 -72 -31t-72 31z" />
    <glyph glyph-name="igrave" unicode="&#xec;" horiz-adv-x="222" 
d="M20 0v680h16l33 -62h114l-7 62h26v-680h-182zM77 630l-46 90v40h123l15 -130h-92z" />
    <glyph glyph-name="iacute" unicode="&#xed;" horiz-adv-x="222" 
d="M20 0v680h26l-7 -62h114l33 62h16v-680h-182zM53 630l15 130h123v-40l-46 -90h-92z" />
    <glyph glyph-name="icircumflex" unicode="&#xee;" horiz-adv-x="222" 
d="M20 0v626h33l58 66l58 -66h33v-626h-182zM-53 640v6l59 114h209l60 -114v-6h-99l-65 74l-65 -74h-99z" />
    <glyph glyph-name="idieresis" unicode="&#xef;" horiz-adv-x="222" 
d="M20 0v611h12q47 0 78 31q33 -31 79 -31h13v-611h-182zM118 656v71q26 33 72 33t72 -33v-71q-27 -32 -72 -32t-72 32zM-41 656v71q26 33 72 33t72 -33v-71q-27 -32 -72 -32t-72 32z" />
    <glyph glyph-name="eth" unicode="&#xf0;" horiz-adv-x="491" 
d="M40 0v299h-30v130h30v271h262q121 0 172 -98v-505q-53 -97 -172 -97h-262zM222 136h35q25 0 35 24v380q-9 24 -35 24h-35v-135h38v-130h-38v-163z" />
    <glyph glyph-name="ntilde" unicode="&#xf1;" horiz-adv-x="507" 
d="M487 700v-700h-189l-93 314h-13v-314h-172v700h66v-89h119v41q3 6 11 6q5 0 7 -2l78 -271h14v226q97 0 114 83v6h58zM416 750v-50v-2q-5 -32 -31.5 -53.5t-64.5 -21.5q-34 0 -63 24t-41 24q-19 0 -24 -17v-30h-93v51q2 14 7 25q26 50 89 50q33 0 62.5 -23t41.5 -23
q16 0 23 17v29h94z" />
    <glyph glyph-name="ograve" unicode="&#xf2;" horiz-adv-x="468" 
d="M17 98v474q36 72 122 100l29 -55h144l-10 61q107 -22 149 -106v-474q-7 -15 -21 -31.5t-39 -36.5t-66 -33t-91 -13t-91.5 13t-66.5 33.5t-38.5 36.5t-20.5 31zM177 630l-46 90v40h141l25 -130h-120zM269 160v350q-9 24 -35 24t-35 -24v-350q9 -24 35 -24t35 24z" />
    <glyph glyph-name="oacute" unicode="&#xf3;" horiz-adv-x="468" 
d="M17 98v474q42 84 149 106l-10 -61h144l29 55q86 -27 122 -100v-474q-7 -15 -20.5 -31t-38.5 -36.5t-66.5 -33.5t-91.5 -13t-91 13t-66 33t-39 36.5t-21 31.5zM171 630l25 130h141v-40l-46 -90h-120zM269 160v350q-9 24 -35 24t-35 -24v-350q9 -24 35 -24t35 24z" />
    <glyph glyph-name="ocircumflex" unicode="&#xf4;" horiz-adv-x="468" 
d="M17 98v474q17 36 56 65h92l47 45h43l48 -45h91q40 -28 57 -65v-474q-7 -15 -20.5 -31t-38.5 -36.5t-66.5 -33.5t-91.5 -13t-91 13t-66 33t-39 36.5t-21 31.5zM60 650v6l69 104h209l70 -104v-6h-99l-75 74l-75 -74h-99zM269 160v350q-9 24 -35 24t-35 -24v-350
q9 -24 35 -24t35 24z" />
    <glyph glyph-name="otilde" unicode="&#xf5;" horiz-adv-x="468" 
d="M451 572v-474q-7 -15 -21 -31.5t-39 -36.5t-66 -33t-91 -13t-91.5 13t-66.5 33.5t-38.5 36.5t-20.5 31v474q18 37 43 57v-8h115v40q5 6 12 6q8 0 43.5 -23.5t73.5 -23.5q48 0 80 27q45 -29 67 -75zM400 760v-52q-5 -32 -31.5 -53.5t-64.5 -21.5q-34 0 -70 24t-48 24
q-19 0 -24 -16v-31h-93v51q5 32 31 53.5t65 21.5q33 0 69.5 -23t48.5 -23q16 0 23 17v29h94zM199 510v-350q9 -24 35 -24t35 24v350q-9 24 -35 24t-35 -24z" />
    <glyph glyph-name="odieresis" unicode="&#xf6;" horiz-adv-x="468" 
d="M17 98v474q18 35 52 62q30 -23 72 -23q55 0 86 38v37h15v-37q31 -38 86 -38q41 0 71 23q34 -25 52 -62v-474q-7 -15 -20.5 -31t-38.5 -36.5t-66.5 -33.5t-91.5 -13t-91 13t-66 33t-39 36.5t-21 31.5zM269 160v350q-9 24 -35 24t-35 -24v-350q9 -24 35 -24t35 24zM255 656
v71q26 33 73 33t73 -33v-71q-27 -32 -73 -32t-73 32zM68 656v71q26 33 73 33t73 -33v-71q-27 -32 -73 -32t-73 32z" />
    <glyph glyph-name="divide" unicode="&#xf7;" horiz-adv-x="460" 
d="M10 272v160h440v-160h-440zM145 110v100q25 42 85 42q34 0 56.5 -13t29.5 -29v-100q-7 -16 -29.5 -29t-56.5 -13q-60 0 -85 42zM145 494v100q25 42 85 42q34 0 56.5 -13t29.5 -29v-100q-7 -16 -29.5 -29t-56.5 -13q-60 0 -85 42z" />
    <glyph glyph-name="oslash" unicode="&#xf8;" horiz-adv-x="468" 
d="M17 98v504q7 15 21 31.5t39 36.5t66 33t91 13q76 0 135 -32l9 16h73v-57l-12 -21l12 -20v-504q-7 -15 -20.5 -31t-38.5 -36.5t-66.5 -33.5t-91.5 -13q-77 0 -136 32l-9 -16h-72v57l11 21q-8 11 -11 20zM269 160v160l-70 -125v-35q10 -24 35 -24q27 0 35 24zM199 540v-159
l70 125v34q-8 24 -35 24q-25 0 -35 -24z" />
    <glyph glyph-name="ugrave" unicode="&#xf9;" 
d="M20 98v602h106l46 -83h30v-457q8 -24 35 -24q25 0 35 24v457h47l-22 83h157v-602q-7 -15 -21 -31.5t-39 -36.5t-66 -33t-91 -13t-91.5 13t-66.5 33.5t-38.5 36.5t-20.5 31zM181 630l-56 100v30h141l35 -130h-120z" />
    <glyph glyph-name="uacute" unicode="&#xfa;" 
d="M20 98v602h157l-22 -83h47v-457q10 -24 35 -24q27 0 35 24v457h30l46 83h106v-602q-7 -15 -20.5 -31t-38.5 -36.5t-66.5 -33.5t-91.5 -13t-91 13t-66 33t-39 36.5t-21 31.5zM173 630l35 130h141v-30l-56 -100h-120z" />
    <glyph glyph-name="ucircumflex" unicode="&#xfb;" 
d="M20 98v602h85l-27 -73h124v-467q10 -24 35 -24q27 0 35 24v467h123l-26 73h85v-602q-7 -15 -20.5 -31t-38.5 -36.5t-66.5 -33.5t-91.5 -13t-91 13t-66 33t-39 36.5t-21 31.5zM98 640l44 120h189l45 -120h-104l-35 74l-35 -74h-104z" />
    <glyph glyph-name="udieresis" unicode="&#xfc;" 
d="M20 98v602h41v-52q32 -37 87 -37q30 0 54 11v-462q10 -24 35 -24q27 0 35 24v461q21 -10 53 -10q55 0 87 37v52h42v-602q-7 -15 -20.5 -31t-38.5 -36.5t-66.5 -33.5t-91.5 -13t-91 13t-66 33t-39 36.5t-21 31.5zM74 656v71q26 33 74 33t74 -33v-71q-27 -32 -74 -32
t-74 32zM251 656v71q26 33 74 33t74 -33v-71q-27 -32 -74 -32t-74 32z" />
    <glyph glyph-name="yacute" unicode="&#xfd;" horiz-adv-x="449" 
d="M129 0v259l-117 324v117h160l-21 -83h38l32 -139h12l32 139h32l53 83h87v-117l-126 -325v-258h-182zM169 630l35 130h141v-40l-56 -90h-120z" />
    <glyph glyph-name="thorn" unicode="&#xfe;" horiz-adv-x="460" 
d="M20 0v700h182v-100h72q49 0 96.5 -26t71.5 -72v-278q-18 -38 -65 -68t-103 -30h-72v-126h-182zM202 262h33q26 0 37 23v156q-12 23 -37 23h-33v-202z" />
    <glyph glyph-name="ydieresis" unicode="&#xff;" horiz-adv-x="449" 
d="M129 0v258l-117 325v117h41v-51q12 -16 35.5 -27t50.5 -11q33 0 50 10l32 -143h12l32 141q14 -8 45 -8q57 0 86 38v51h41v-117l-126 -324v-259h-182zM66 656v71q26 33 74 33t74 -33v-71q-27 -32 -74 -32t-74 32zM235 656v71q26 33 74 33t74 -33v-71q-27 -32 -74 -32
t-74 32z" />
    <glyph glyph-name="Amacron" unicode="&#x100;" horiz-adv-x="482" 
d="M12 0v117l87 553h-21v90h325v-90h-21l88 -553v-117h-173l-17 167h-88l-19 -167h-161zM207 303h60l-20 203h-16z" />
    <glyph glyph-name="amacron" unicode="&#x101;" horiz-adv-x="482" 
d="M12 0v117l86 540h286l86 -540v-117h-173l-17 167h-88l-19 -167h-161zM207 303h60l-20 203h-16zM79 670v90h325v-90h-325z" />
    <glyph glyph-name="Abreve" unicode="&#x102;" horiz-adv-x="482" 
d="M12 0v117l89 563h23q-23 22 -35 51v29h111v-21q8 -22 41 -22q32 0 40 22v21h112v-29q-13 -30 -36 -51h24l89 -563v-117h-173l-17 167h-88l-19 -167h-161zM207 303h60l-20 203h-16z" />
    <glyph glyph-name="abreve" unicode="&#x103;" horiz-adv-x="482" 
d="M297 0l-17 167h-88l-19 -167h-161v117l89 563h18q43 -52 122 -52q80 0 121 52h19l89 -563v-117h-173zM103 732v28h101v-20q8 -22 37 -22q28 0 36 22v20h101v-28q-35 -91 -137 -91q-101 0 -138 91zM231 506l-24 -203h60l-20 203h-16z" />
    <glyph glyph-name="Aogonek" unicode="&#x104;" horiz-adv-x="482" 
d="M12 0v117l92 583h274l92 -583v-75q-53 -16 -64 -27v-10q7 -7 22 -7h42v-56q-29 -12 -85 -12q-75 0 -111 25v55q22 17 64 28v3h-44l-13 126h-89l-19 -167h-161zM207 303h60l-20 203h-16z" />
    <glyph glyph-name="aogonek" unicode="&#x105;" horiz-adv-x="482" 
d="M12 0v117l92 583h274l92 -583v-75q-53 -16 -64 -27v-10q7 -7 22 -7h42v-56q-29 -12 -85 -12q-75 0 -111 25v55q22 17 64 28v3h-44l-13 126h-89l-19 -167h-161zM207 303h60l-20 203h-16z" />
    <glyph glyph-name="Cacute" unicode="&#x106;" horiz-adv-x="458" 
d="M17 98v474q14 30 52 63t103 45l16 80h141v-40l-26 -42q91 -20 138 -89v-190h-172v111q-8 24 -35 24q-25 0 -35 -24v-350q10 -24 35 -24q27 0 35 24v125h172v-205q-67 -96 -207 -96q-50 0 -91 13t-66 33t-39 36.5t-21 31.5z" />
    <glyph glyph-name="cacute" unicode="&#x107;" horiz-adv-x="458" 
d="M17 98v474q42 84 154 108l-17 -63h144l33 53q41 -15 69.5 -38t40.5 -43v-190h-172v111q-8 24 -35 24q-25 0 -35 -24v-350q10 -24 35 -24q27 0 35 24v125h172v-205q-68 -96 -207 -96q-50 0 -91 13t-66 33t-39 36.5t-21 31.5zM171 630l35 130h141v-40l-56 -90h-120z" />
    <glyph glyph-name="Ccircumflex" unicode="&#x108;" horiz-adv-x="458" 
d="M17 98v474q21 45 74 78h-31v6l69 104h209l70 -104v-6h-33q43 -27 66 -61v-190h-172v111q-8 24 -35 24q-25 0 -35 -24v-350q10 -24 35 -24q27 0 35 24v125h172v-205q-67 -96 -207 -96q-50 0 -91 13t-66 33t-39 36.5t-21 31.5zM234 724l-41 -41q20 3 41 3q22 0 41 -3z" />
    <glyph glyph-name="ccircumflex" unicode="&#x109;" horiz-adv-x="458" 
d="M60 650v6l69 104h209l70 -104v-6h-99l-75 74l-75 -74h-99zM17 98v474q17 36 56 65h92l50 48h38l50 -48h92q33 -23 46 -48v-190h-172v111q-8 24 -35 24q-25 0 -35 -24v-350q10 -24 35 -24q27 0 35 24v125h172v-205q-67 -96 -207 -96q-50 0 -91 13t-66 33t-39 36.5
t-21 31.5z" />
    <glyph glyph-name="Cdotaccent" unicode="&#x10a;" horiz-adv-x="458" 
d="M17 98v474q12 26 45 56.5t88 46.5v49q28 36 85 36t85 -36v-50q81 -25 121 -85v-190h-172v111q-8 24 -35 24q-25 0 -35 -24v-350q10 -24 35 -24q27 0 35 24v125h172v-205q-67 -96 -207 -96q-50 0 -91 13t-66 33t-39 36.5t-21 31.5z" />
    <glyph glyph-name="cdotaccent" unicode="&#x10b;" horiz-adv-x="458" 
d="M17 98v474q11 25 40 53.5t80 45.5v-23q32 -41 98 -41t98 41v23q72 -25 108 -82v-190h-172v111q-8 24 -35 24q-25 0 -35 -24v-350q10 -24 35 -24q27 0 35 24v125h172v-205q-67 -96 -207 -96q-50 0 -91 13t-66 33t-39 36.5t-21 31.5zM150 655v69q28 36 85 36t85 -36v-69
q-28 -35 -85 -35t-85 35z" />
    <glyph glyph-name="Ccaron" unicode="&#x10c;" horiz-adv-x="458" 
d="M17 98v474q29 60 103 92l-46 90v6h99l65 -65l65 65h99v-6l-49 -93q57 -27 88 -72v-190h-172v111q-8 24 -35 24q-25 0 -35 -24v-350q10 -24 35 -24q27 0 35 24v125h172v-205q-67 -96 -207 -96q-50 0 -91 13t-66 33t-39 36.5t-21 31.5z" />
    <glyph glyph-name="ccaron" unicode="&#x10d;" horiz-adv-x="458" 
d="M17 98v474q26 57 94 88l18 -33h225l15 28q44 -24 72 -66v-190h-172v111q-8 24 -35 24q-25 0 -35 -24v-350q10 -24 35 -24q27 0 35 24v125h172v-205q-67 -96 -207 -96q-50 0 -91 13t-66 33t-39 36.5t-21 31.5zM137 640l-59 114v6h99l65 -75l65 75h99v-6l-60 -114h-209z
" />
    <glyph glyph-name="Dcaron" unicode="&#x10e;" horiz-adv-x="471" 
d="M20 0v670h93l-43 84v6h99l65 -75l65 75h99v-6l-50 -94q70 -22 106 -88v-475q-53 -97 -172 -97h-262zM202 136h35q25 0 35 24v350q-9 24 -35 24h-35v-398z" />
    <glyph glyph-name="dcaron" unicode="&#x10f;" horiz-adv-x="471" 
d="M20 0v670h76l22 -43h227l16 29q61 -23 93 -84v-475q-53 -97 -172 -97h-262zM202 136h35q25 0 35 24v350q-9 24 -35 24h-35v-398zM128 640l-59 114v6h99l65 -75l65 75h99v-6l-60 -114h-209z" />
    <glyph glyph-name="Dcroat" unicode="&#x110;" horiz-adv-x="491" 
d="M40 0v299h-30v130h30v271h262q121 0 172 -98v-505q-53 -97 -172 -97h-262zM222 136h35q25 0 35 24v380q-9 24 -35 24h-35v-135h38v-130h-38v-163z" />
    <glyph glyph-name="dcroat" unicode="&#x111;" horiz-adv-x="491" 
d="M40 0v299h-30v130h30v271h262q121 0 172 -98v-505q-53 -97 -172 -97h-262zM222 136h35q25 0 35 24v380q-9 24 -35 24h-35v-135h38v-130h-38v-163z" />
    <glyph glyph-name="Emacron" unicode="&#x112;" horiz-adv-x="362" 
d="M20 0v680h30v80h265v-80h31v-136h-144v-130h135v-136h-135v-142h147v-136h-329z" />
    <glyph glyph-name="emacron" unicode="&#x113;" horiz-adv-x="362" 
d="M20 0v680h37v-23h251v23h38v-136h-144v-130h135v-136h-135v-142h147v-136h-329zM70 670v90h225v-90h-225z" />
    <glyph glyph-name="Ebreve" unicode="&#x114;" horiz-adv-x="372" 
d="M20 0v680h52q-22 21 -36 51v29h111v-21q8 -22 41 -22q32 0 40 22v21h112v-29q-14 -30 -36 -51h51v-136h-153v-130h143v-136h-143v-142h157v-136h-339z" />
    <glyph glyph-name="ebreve" unicode="&#x115;" horiz-adv-x="372" 
d="M20 0v680h26q48 -61 142 -61q96 0 143 61h24v-136h-153v-130h143v-136h-143v-142h157v-136h-339zM36 723v29h111v-21q8 -22 41 -22q32 0 40 22v21h112v-29q-40 -91 -152 -91t-152 91z" />
    <glyph glyph-name="Edotaccent" unicode="&#x116;" horiz-adv-x="372" 
d="M20 0v680h82v44q28 36 85 36t85 -36v-44h83v-136h-153v-130h143v-136h-143v-142h157v-136h-339z" />
    <glyph glyph-name="edotaccent" unicode="&#x117;" horiz-adv-x="372" 
d="M20 0v680h70v-32q31 -41 98 -41q66 0 98 42v31h69v-136h-153v-130h143v-136h-143v-142h157v-136h-339zM103 655v69q28 36 85 36t85 -36v-69q-28 -35 -85 -35t-85 35z" />
    <glyph glyph-name="Eogonek" unicode="&#x118;" horiz-adv-x="362" 
d="M20 0v700h326v-136h-144v-140h135v-136h-135v-152h147v-94q-52 -15 -64 -27v-10q7 -7 24 -7h40v-56q-29 -12 -84 -12q-76 0 -112 25v45h-133z" />
    <glyph glyph-name="eogonek" unicode="&#x119;" horiz-adv-x="362" 
d="M20 0v700h326v-136h-144v-140h135v-136h-135v-152h147v-94q-52 -15 -64 -27v-10q7 -7 24 -7h40v-56q-29 -12 -84 -12q-76 0 -112 25v45h-133z" />
    <glyph glyph-name="Ecaron" unicode="&#x11a;" horiz-adv-x="372" 
d="M20 0v680h44l-38 74v6h101l60 -70l60 70h101v-6l-39 -74h46v-136h-153v-130h143v-136h-143v-142h157v-136h-339z" />
    <glyph glyph-name="ecaron" unicode="&#x11b;" horiz-adv-x="372" 
d="M20 0v680h29l28 -54h225l28 54h25v-146h-153v-125h143v-136h-143v-137h157v-136h-339zM85 640l-59 114v6h99l65 -75l65 75h99v-6l-60 -114h-209z" />
    <glyph glyph-name="Gcircumflex" unicode="&#x11c;" horiz-adv-x="458" 
d="M17 98v474q21 45 74 78h-31v6l69 104h209l70 -104v-6h-33q43 -27 66 -61v-150h-172v71q-8 24 -35 24q-25 0 -35 -24v-350q10 -24 35 -24q27 0 35 24v96h-35v136h207v-312q-67 -96 -207 -96q-50 0 -91 13t-66 33t-39 36.5t-21 31.5zM234 724l-41 -41q20 3 41 3q22 0 41 -3
z" />
    <glyph glyph-name="gcircumflex" unicode="&#x11d;" horiz-adv-x="458" 
d="M17 98v474q16 33 56 65h92l46 45h45l47 -45h92q34 -25 46 -48v-150h-172v71q-8 24 -35 24q-25 0 -35 -24v-350q10 -24 35 -24q27 0 35 24v96h-35v136h207v-312q-67 -96 -207 -96q-50 0 -91 13t-66 33t-39 36.5t-21 31.5zM60 650v6l69 104h209l70 -104v-6h-99l-75 74
l-75 -74h-99z" />
    <glyph glyph-name="Gbreve" unicode="&#x11e;" horiz-adv-x="458" 
d="M17 98v484q11 23 37 49.5t69 43.5q-27 23 -41 56v29h111v-21q8 -22 41 -22q32 0 40 22v21h112v-29q-15 -33 -41 -56q61 -26 96 -76v-160h-172v81q-8 24 -35 24q-25 0 -35 -24v-360q10 -24 35 -24q27 0 35 24v96h-35v136h207v-312q-67 -96 -207 -96q-50 0 -91 13t-66 33
t-39 36.5t-21 31.5z" />
    <glyph glyph-name="gbreve" unicode="&#x11f;" horiz-adv-x="458" 
d="M17 98v474q28 56 93 88q46 -41 124 -41q77 0 123 41q56 -27 84 -71v-150h-172v71q-8 24 -35 24q-25 0 -35 -24v-350q10 -24 35 -24q27 0 35 24v96h-35v136h207v-312q-67 -96 -207 -96q-50 0 -91 13t-66 33t-39 36.5t-21 31.5zM82 723v29h111v-21q8 -22 41 -22q32 0 40 22
v21h112v-29q-40 -91 -152 -91t-152 91z" />
    <glyph glyph-name="Gdotaccent" unicode="&#x120;" horiz-adv-x="458" 
d="M17 98v474q12 26 44.5 56t87.5 46v50q28 36 85 36t85 -36v-50q78 -22 122 -85v-150h-172v71q-8 24 -35 24q-25 0 -35 -24v-350q10 -24 35 -24q27 0 35 24v96h-35v136h207v-312q-67 -96 -207 -96q-50 0 -91 13t-66 33t-39 36.5t-21 31.5z" />
    <glyph glyph-name="gdotaccent" unicode="&#x121;" horiz-adv-x="458" 
d="M17 98v474q33 69 119 99v-23q29 -41 98 -41t98 41v23q70 -24 109 -82v-150h-172v71q-8 24 -35 24q-25 0 -35 -24v-350q10 -24 35 -24q27 0 35 24v96h-35v136h207v-312q-67 -96 -207 -96q-50 0 -91 13t-66 33t-39 36.5t-21 31.5zM149 655v69q28 36 85 36t85 -36v-69
q-28 -35 -85 -35t-85 35z" />
    <glyph glyph-name="Gcommaaccent" unicode="&#x122;" horiz-adv-x="458" 
d="M103 -70v68h56q19 0 25 7v12q-38 6 -69 20t-50.5 32t-30.5 32t-17 27v474q7 15 21 31.5t39 36.5t66 33t91 13q80 0 131 -29.5t76 -67.5v-150h-172v71q-8 24 -35 24q-25 0 -35 -24v-350q10 -24 35 -24q27 0 35 24v96h-35v136h207v-312q-51 -75 -156 -92v-35
q-21 -28 -49 -40.5t-77 -12.5h-56z" />
    <glyph glyph-name="gcommaaccent" unicode="&#x123;" horiz-adv-x="458" 
d="M103 -70v68h56q19 0 25 7v12q-38 6 -69 20t-50.5 32t-30.5 32t-17 27v474q7 15 21 31.5t39 36.5t66 33t91 13q80 0 131 -29.5t76 -67.5v-150h-172v71q-8 24 -35 24q-25 0 -35 -24v-350q10 -24 35 -24q27 0 35 24v96h-35v136h207v-312q-51 -75 -156 -92v-35
q-21 -28 -49 -40.5t-77 -12.5h-56z" />
    <glyph glyph-name="Hcircumflex" unicode="&#x124;" 
d="M20 0v675h67l45 85h209l46 -85h67v-675h-182v287h-70v-287h-182zM202 434h70v240l-35 40l-35 -40v-240z" />
    <glyph glyph-name="hcircumflex" unicode="&#x125;" 
d="M20 0v675h53l-26 -48h131l24 27v-220h70v220l24 -27h130l-25 48h53v-675h-182v287h-70v-287h-182zM70 640l62 120h209l63 -120h-102l-65 74l-65 -74h-102z" />
    <glyph glyph-name="Hbar" unicode="&#x126;" 
d="M20 0v525h-20v100h20v75h182v-75h70v75h182v-75h20v-100h-20v-525h-182v287h-70v-287h-182zM202 434h70v91h-70v-91z" />
    <glyph glyph-name="hbar" unicode="&#x127;" 
d="M20 0v525h-20v100h20v75h182v-75h70v75h182v-75h20v-100h-20v-525h-182v287h-70v-287h-182zM202 434h70v91h-70v-91z" />
    <glyph glyph-name="Itilde" unicode="&#x128;" horiz-adv-x="222" 
d="M202 625v-625h-182v624h-74v51q5 32 30.5 53.5t64.5 21.5q33 0 69.5 -23t48.5 -23q16 0 23 17v29h94v-52q-4 -27 -24 -47t-50 -26zM38 644h76q-4 3 -13.5 9.5l-14 9.5t-11.5 5.5t-13 2.5q-19 0 -24 -17v-10z" />
    <glyph glyph-name="itilde" unicode="&#x129;" horiz-adv-x="222" 
d="M202 612v-612h-182v611h31v41q3 6 12 6q8 0 44 -24t73 -24q10 0 22 2zM276 750v-52q-5 -32 -31.5 -53.5t-64.5 -21.5q-34 0 -70 24t-48 24q-21 0 -24 -17v-30h-92v51q5 32 30.5 53.5t64.5 21.5q33 0 69.5 -23t48.5 -23q16 0 23 17v29h94z" />
    <glyph glyph-name="Imacron" unicode="&#x12a;" horiz-adv-x="222" 
d="M-5 670v90h232v-90h-25v-670h-182v670h-25z" />
    <glyph glyph-name="imacron" unicode="&#x12b;" horiz-adv-x="222" 
d="M20 0v657h182v-657h-182zM-5 670v90h232v-90h-232z" />
    <glyph glyph-name="Ibreve" unicode="&#x12c;" horiz-adv-x="222" 
d="M20 0v651q-41 24 -61 70v29h111v-21q8 -22 41 -22q32 0 40 22v21h112v-29q-20 -46 -61 -70v-651h-182z" />
    <glyph glyph-name="ibreve" unicode="&#x12d;" horiz-adv-x="222" 
d="M20 0v637q37 -20 92 -20q54 0 90 20v-637h-182zM-41 721v29h111v-21q8 -22 41 -22q32 0 40 22v21h112v-29q-40 -91 -152 -91t-152 91z" />
    <glyph glyph-name="Iogonek" unicode="&#x12e;" horiz-adv-x="222" 
d="M20 -46v56q14 10 47 19v2h-47v669h182v-658q-48 -15 -64 -27v-10q7 -7 24 -7h40v-56q-29 -12 -78 -12q-77 0 -104 24z" />
    <glyph glyph-name="iogonek" unicode="&#x12f;" horiz-adv-x="222" 
d="M20 -46v56q14 10 47 19v2h-47v669h182v-658q-48 -15 -64 -27v-10q7 -7 24 -7h40v-56q-29 -12 -78 -12q-77 0 -104 24z" />
    <glyph glyph-name="Idotaccent" unicode="&#x130;" horiz-adv-x="222" 
d="M20 0v680h14v48q24 32 77 32t77 -32v-48h14v-680h-182z" />
    <glyph glyph-name="dotlessi" unicode="&#x131;" horiz-adv-x="222" 
d="M20 0v700h182v-700h-182z" />
    <glyph glyph-name="IJ" unicode="&#x132;" horiz-adv-x="501" 
d="M20 0v700h182v-700h-182zM234 0v136h27q35 0 43 24v540h182v-602q-20 -41 -73 -69.5t-143 -28.5h-36z" />
    <glyph glyph-name="ij" unicode="&#x133;" horiz-adv-x="501" 
d="M20 0v700h182v-700h-182zM234 0v136h27q35 0 43 24v540h182v-602q-20 -41 -73 -69.5t-143 -28.5h-36z" />
    <glyph glyph-name="Jcircumflex" unicode="&#x134;" horiz-adv-x="279" 
d="M12 0v136h27q35 0 43 24v480h-73v6l59 114h209l60 -114v-6h-73v-542q-20 -41 -73 -69.5t-143 -28.5h-36zM134 670h77l-38 44z" />
    <glyph glyph-name="jcircumflex" unicode="&#x135;" horiz-adv-x="279" 
d="M12 0v136h27q35 0 43 24v467h33l58 66l59 -66h32v-529q-20 -41 -73 -69.5t-143 -28.5h-36zM9 640v6l59 114h209l60 -114v-6h-99l-65 74l-65 -74h-99z" />
    <glyph glyph-name="Kcommaaccent" unicode="&#x136;" horiz-adv-x="444" 
d="M20 22v678h182v-172h12l81 172h137v-114l-106 -180l106 -289v-117h-149l-67 220l-14 -23v-214q-21 -28 -49 -40.5t-77 -12.5h-56v68h56q19 0 25 7v17h-81z" />
    <glyph glyph-name="kcommaaccent" unicode="&#x137;" horiz-adv-x="444" 
d="M20 22v678h182v-172h12l81 172h137v-114l-106 -180l106 -289v-117h-149l-67 220l-14 -23v-214q-21 -28 -49 -40.5t-77 -12.5h-56v68h56q19 0 25 7v17h-81z" />
    <glyph glyph-name="kgreenlandic" unicode="&#x138;" horiz-adv-x="445" 
d="M20 0v700h182v-172h12l81 172h137v-117l-106 -178l106 -288v-117h-149l-67 220l-14 -23v-197h-182z" />
    <glyph glyph-name="Lacute" unicode="&#x139;" horiz-adv-x="342" 
d="M20 0v670h26l15 90h141v-40l-44 -50h44v-534h130v-136h-312z" />
    <glyph glyph-name="lacute" unicode="&#x13a;" horiz-adv-x="342" 
d="M20 0v680h26l-7 -62h114l33 62h16v-544h130v-136h-312zM53 630l15 130h123v-40l-46 -90h-92z" />
    <glyph glyph-name="Lcommaaccent" unicode="&#x13b;" horiz-adv-x="342" 
d="M20 30v670h182v-534h130v-136h-98v-47q-21 -28 -49 -40.5t-77 -12.5h-56v68h56q19 0 25 7v25h-113z" />
    <glyph glyph-name="lcommaaccent" unicode="&#x13c;" horiz-adv-x="342" 
d="M20 30v670h182v-534h130v-136h-98v-47q-21 -28 -49 -40.5t-77 -12.5h-56v68h56q19 0 25 7v25h-113z" />
    <glyph glyph-name="Lcaron" unicode="&#x13d;" horiz-adv-x="342" 
d="M20 0v700h182v-564h130v-136h-312zM224 451v249h108v-138l-32 -111h-76z" />
    <glyph glyph-name="lcaron" unicode="&#x13e;" horiz-adv-x="342" 
d="M20 0v700h182v-564h130v-136h-312zM224 451v249h108v-138l-32 -111h-76z" />
    <glyph glyph-name="Ldot" unicode="&#x13f;" horiz-adv-x="342" 
d="M220 329v147q26 12 56 12q29 0 56 -12v-147q-25 -11 -56 -11q-32 0 -56 11zM20 0v700h182v-564h130v-136h-312z" />
    <glyph glyph-name="ldot" unicode="&#x140;" horiz-adv-x="342" 
d="M220 329v147q26 12 56 12q29 0 56 -12v-147q-25 -11 -56 -11q-32 0 -56 11zM20 0v700h182v-564h130v-136h-312z" />
    <glyph glyph-name="Lslash" unicode="&#x141;" horiz-adv-x="362" 
d="M40 0v154l-30 -19v158l30 19v388h182v-280l76 48v-157l-76 -48v-127h130v-136h-312z" />
    <glyph glyph-name="lslash" unicode="&#x142;" horiz-adv-x="362" 
d="M40 0v154l-30 -19v158l30 19v388h182v-283l96 61v-157l-96 -61v-124h130v-136h-312z" />
    <glyph glyph-name="Nacute" unicode="&#x143;" horiz-adv-x="507" 
d="M20 0v700h173l13 60h143v-40l-13 -20h151v-700h-189l-93 314h-13v-314h-172zM301 385h14v279l-21 -34h-66z" />
    <glyph glyph-name="nacute" unicode="&#x144;" horiz-adv-x="507" 
d="M20 0v700h159l-17 -83h70l69 -232h14v244l41 71h131v-700h-189l-93 314h-13v-314h-172zM180 630l28 130h143v-40l-51 -90h-120z" />
    <glyph glyph-name="Ncommaaccent" unicode="&#x145;" horiz-adv-x="507" 
d="M20 25v675h188l93 -315h14v315h172v-700h-189l-93 314h-13v-331q-21 -28 -49 -40.5t-77 -12.5h-46v68h56q19 0 25 7v20h-81z" />
    <glyph glyph-name="ncommaaccent" unicode="&#x146;" horiz-adv-x="507" 
d="M20 25v675h188l93 -315h14v315h172v-700h-189l-93 314h-13v-331q-21 -28 -49 -40.5t-77 -12.5h-46v68h56q19 0 25 7v20h-81z" />
    <glyph glyph-name="Ncaron" unicode="&#x147;" horiz-adv-x="507" 
d="M20 0v700h98l-28 54v6h99l65 -75l65 75h99v-6l-29 -54h98v-700h-189l-93 314h-13v-314h-172zM301 385h14v255h-90z" />
    <glyph glyph-name="ncaron" unicode="&#x148;" horiz-adv-x="507" 
d="M20 0v700h81l37 -73h91l72 -242h14v242h51l37 73h84v-700h-189l-93 314h-13v-314h-172zM148 640l-59 114v6h99l65 -75l65 75h99v-6l-60 -114h-209z" />
    <glyph glyph-name="Eng" unicode="&#x14a;" horiz-adv-x="525" 
d="M20 0v700h202l89 -279h18v279h176v-670q-50 -100 -210 -100q-22 0 -34 2v123q10 -2 25 -2q34 0 43 19l-116 277h-17v-349h-176z" />
    <glyph glyph-name="eng" unicode="&#x14b;" horiz-adv-x="525" 
d="M20 0v700h202l89 -279h18v279h176v-670q-50 -100 -210 -100q-22 0 -34 2v123q10 -2 25 -2q34 0 43 19l-116 277h-17v-349h-176z" />
    <glyph glyph-name="Omacron" unicode="&#x14c;" horiz-adv-x="468" 
d="M92 670v90h285v-90h-43q47 -17 76.5 -45.5t40.5 -52.5v-474q-7 -15 -20.5 -31t-38.5 -36.5t-66.5 -33.5t-91.5 -13t-91 13t-66 33t-39 36.5t-21 31.5v474q34 68 117 98h-42zM269 160v350q-9 24 -35 24t-35 -24v-350q9 -24 35 -24t35 24z" />
    <glyph glyph-name="omacron" unicode="&#x14d;" horiz-adv-x="468" 
d="M17 98v474q26 54 89 85h256q64 -33 89 -85v-474q-7 -15 -20.5 -31t-38.5 -36.5t-66.5 -33.5t-91.5 -13t-91 13t-66 33t-39 36.5t-21 31.5zM92 670v90h285v-90h-285zM269 160v350q-9 24 -35 24t-35 -24v-350q9 -24 35 -24t35 24z" />
    <glyph glyph-name="Obreve" unicode="&#x14e;" horiz-adv-x="468" 
d="M17 98v474q11 23 37 49.5t69 43.5q-27 23 -41 56v29h111v-21q8 -22 41 -22q32 0 40 22v21h112v-29q-15 -33 -41 -56q75 -31 106 -93v-474q-7 -15 -20.5 -31t-38.5 -36.5t-66.5 -33.5t-91.5 -13t-91 13t-66 33t-39 36.5t-21 31.5zM269 160v350q-9 24 -35 24t-35 -24v-350
q9 -24 35 -24t35 24z" />
    <glyph glyph-name="obreve" unicode="&#x14f;" horiz-adv-x="468" 
d="M17 98v474q28 56 93 88q45 -40 124 -40q78 0 124 40q69 -34 93 -88v-474q-7 -15 -20.5 -31t-38.5 -36.5t-66.5 -33.5t-91.5 -13t-91 13t-66 33t-39 36.5t-21 31.5zM82 724v29h111v-21q8 -22 41 -22q32 0 40 22v21h112v-29q-40 -91 -152 -91t-152 91zM269 160v350
q-9 24 -35 24t-35 -24v-350q9 -24 35 -24t35 24z" />
    <glyph glyph-name="Ohungarumlaut" unicode="&#x150;" horiz-adv-x="468" 
d="M17 98v474q22 46 73 77l30 111h121v-40l-18 -34h11q15 0 23 -1l20 75h121v-40l-33 -64q59 -31 86 -84v-474q-7 -15 -20.5 -31t-38.5 -36.5t-66.5 -33.5t-91.5 -13t-91 13t-66 33t-39 36.5t-21 31.5zM269 160v350q-9 24 -35 24t-35 -24v-350q9 -24 35 -24t35 24z" />
    <glyph glyph-name="ohungarumlaut" unicode="&#x151;" horiz-adv-x="468" 
d="M17 98v474q22 46 74 78l-10 -33h129l35 68h12l-19 -68h128l15 30q48 -31 70 -75v-474q-7 -15 -20.5 -31t-38.5 -36.5t-66.5 -33.5t-91.5 -13t-91 13t-66 33t-39 36.5t-21 31.5zM98 630l35 130h115v-40l-46 -90h-104zM255 630l35 130h115v-40l-46 -90h-104zM269 160v350
q-9 24 -35 24t-35 -24v-350q9 -24 35 -24t35 24z" />
    <glyph glyph-name="OE" unicode="&#x152;" horiz-adv-x="611" 
d="M17 97v505q51 98 172 98h405v-136h-143v-140h133v-136h-133v-152h147v-136h-409q-119 0 -172 97zM234 136h35v428h-35q-26 0 -35 -24v-380q10 -24 35 -24z" />
    <glyph glyph-name="oe" unicode="&#x153;" horiz-adv-x="611" 
d="M17 97v505q51 98 172 98h405v-136h-143v-140h133v-136h-133v-152h147v-136h-409q-119 0 -172 97zM234 136h35v428h-35q-26 0 -35 -24v-380q10 -24 35 -24z" />
    <glyph glyph-name="Racute" unicode="&#x154;" horiz-adv-x="457" 
d="M20 0v680h154l16 80h141v-40l-27 -43q43 -7 80.5 -32t57.5 -63v-228q-21 -54 -62 -84l62 -153v-117h-149l-78 241h-13v-241h-182zM202 381h33q26 0 37 23v117q-12 23 -37 23h-33v-163z" />
    <glyph glyph-name="racute" unicode="&#x155;" horiz-adv-x="457" 
d="M20 0v680h138l-16 -62h146l35 55q83 -24 119 -91v-228q-21 -56 -62 -84l62 -153v-117h-149l-78 241h-13v-241h-182zM202 381h33q26 0 37 23v117q-12 23 -37 23h-33v-163zM160 631l35 129h141v-40l-56 -89h-120z" />
    <glyph glyph-name="Rcommaaccent" unicode="&#x156;" horiz-adv-x="457" 
d="M293 0l-80 256h-11v-273q-21 -28 -49 -40.5t-77 -12.5h-56v68h56q19 0 25 7v17h-81v678h254q49 0 96.5 -26t71.5 -72v-233q-21 -55 -61 -84l61 -168v-117h-149zM202 392h33q26 0 37 23v126q-12 23 -37 23h-33v-172z" />
    <glyph glyph-name="rcommaaccent" unicode="&#x157;" horiz-adv-x="457" 
d="M293 0l-80 256h-11v-273q-21 -28 -49 -40.5t-77 -12.5h-56v68h56q19 0 25 7v17h-81v678h254q49 0 96.5 -26t71.5 -72v-233q-21 -55 -61 -84l61 -168v-117h-149zM202 392h33q26 0 37 23v126q-12 23 -37 23h-33v-172z" />
    <glyph glyph-name="Rcaron" unicode="&#x158;" horiz-adv-x="457" 
d="M20 0v680h74l-38 74v6h99l65 -65l65 65h99v-6l-45 -86q71 -25 103 -86v-228q-21 -54 -62 -84l62 -153v-117h-149l-78 241h-13v-241h-182zM202 381h33q26 0 37 23v117q-12 23 -37 23h-33v-163z" />
    <glyph glyph-name="rcaron" unicode="&#x159;" horiz-adv-x="457" 
d="M20 0v680h59l28 -53h224l21 37q65 -32 90 -82v-228q-21 -56 -62 -84l62 -153v-117h-149l-78 241h-13v-241h-182zM202 381h33q26 0 37 23v117q-12 23 -37 23h-33v-163zM115 640l-59 114v6h99l65 -75l65 75h99v-6l-60 -114h-209z" />
    <glyph glyph-name="Sacute" unicode="&#x15a;" horiz-adv-x="448" 
d="M17 81v134h172v-55q9 -24 35 -24t35 24v63q-5 19 -41 31l-12 4q-91 30 -130.5 60.5t-58.5 69.5v201q19 29 59 56.5t100 36.5l15 78h141v-40l-28 -45q86 -24 127 -86v-129h-172v50q-9 24 -35 24t-35 -24v-50q6 -21 43 -32l13 -4q91 -28 129 -58.5t57 -72.5v-212
q-24 -37 -75 -67t-132 -30q-80 0 -132 30t-75 67z" />
    <glyph glyph-name="sacute" unicode="&#x15b;" horiz-adv-x="448" 
d="M17 81v134h172v-55q9 -24 35 -24t35 24v63q-5 19 -41 31l-12 4q-91 30 -130.5 60.5t-58.5 69.5v201q17 27 54 53.5t94 38.5l-16 -64h144l33 51q69 -25 105 -79v-129h-172v50q-9 24 -35 24t-35 -24v-50q6 -21 43 -32l13 -4q91 -28 129 -58.5t57 -72.5v-212
q-24 -37 -75 -67t-132 -30q-80 0 -132 30t-75 67zM166 630l35 130h141v-40l-56 -90h-120z" />
    <glyph glyph-name="Scircumflex" unicode="&#x15c;" horiz-adv-x="448" 
d="M17 81v134h172v-55q9 -24 35 -24t35 24v63q-5 19 -41 31l-12 4q-91 30 -130.5 60.5t-58.5 69.5v201q23 36 66 61h-33v6l69 104h209l70 -104v-6h-33q44 -26 66 -61v-129h-172v50q-9 24 -35 24t-35 -24v-50q6 -21 43 -32l13 -4q91 -28 129 -58.5t57 -72.5v-212
q-24 -37 -75 -67t-132 -30q-80 0 -132 30t-75 67zM224 724l-41 -41q20 3 41 3q22 0 41 -3z" />
    <glyph glyph-name="scircumflex" unicode="&#x15d;" horiz-adv-x="448" 
d="M17 81v134h172v-55q9 -24 35 -24t35 24v63q-5 19 -41 31l-12 4q-91 30 -130.5 60.5t-58.5 69.5v201q15 25 46 48h93l46 45h42l48 -45h93q30 -22 46 -48v-129h-172v50q-9 24 -35 24t-35 -24v-50q6 -21 43 -32l13 -4q91 -28 129 -58.5t57 -72.5v-212q-24 -37 -75 -67
t-132 -30q-80 0 -132 30t-75 67zM50 650v6l69 104h209l70 -104v-6h-99l-75 74l-75 -74h-99z" />
    <glyph glyph-name="Scedilla" unicode="&#x15e;" horiz-adv-x="448" 
d="M98 -70v68h56q19 0 25 7v12q-61 8 -101.5 35.5t-60.5 58.5v134h172v-55q9 -24 35 -24t35 24v63q-5 19 -41 31l-12 4q-91 30 -130.5 60.5t-58.5 69.5v201q22 36 75 66.5t132 30.5t132 -30.5t75 -66.5v-129h-172v50q-9 24 -35 24t-35 -24v-50q6 -21 43 -32l13 -4
q91 -28 129 -58.5t57 -72.5v-212q-19 -30 -57 -56.5t-94 -36.5v-35q-21 -28 -49 -40.5t-77 -12.5h-56z" />
    <glyph glyph-name="scedilla" unicode="&#x15f;" horiz-adv-x="448" 
d="M98 -70v68h56q19 0 25 7v12q-61 8 -101.5 35.5t-60.5 58.5v134h172v-55q9 -24 35 -24t35 24v63q-5 19 -41 31l-12 4q-91 30 -130.5 60.5t-58.5 69.5v201q22 36 75 66.5t132 30.5t132 -30.5t75 -66.5v-129h-172v50q-9 24 -35 24t-35 -24v-50q6 -21 43 -32l13 -4
q91 -28 129 -58.5t57 -72.5v-212q-19 -30 -57 -56.5t-94 -36.5v-35q-21 -28 -49 -40.5t-77 -12.5h-56z" />
    <glyph glyph-name="Scaron" unicode="&#x160;" horiz-adv-x="448" 
d="M17 81v136h172v-57q9 -24 35 -24t35 24v65q-5 19 -41 31l-12 4q-91 30 -130.5 60.5t-58.5 69.5v203q28 46 89 73l-44 88v6h99l63 -67l63 67h99v-6l-45 -88q59 -26 90 -73v-131h-172v52q-9 24 -35 24t-35 -24v-52q6 -21 43 -32l13 -4q91 -28 129 -58.5t57 -72.5v-214
q-24 -37 -75 -67t-132 -30q-80 0 -132 30t-75 67z" />
    <glyph glyph-name="scaron" unicode="&#x161;" horiz-adv-x="448" 
d="M17 81v134h172v-55q9 -24 35 -24t35 24v63q-5 19 -41 31l-12 4q-91 30 -130.5 60.5t-58.5 69.5v201q24 41 77 67l16 -29h226l17 30q50 -25 78 -68v-129h-172v50q-9 24 -35 24t-35 -24v-50q6 -21 43 -32l13 -4q91 -28 129 -58.5t57 -72.5v-212q-24 -37 -75 -67t-132 -30
q-80 0 -132 30t-75 67zM119 640l-57 114v6h99l63 -67l63 67h99v-6l-58 -114h-209z" />
    <glyph glyph-name="Tcommaaccent" unicode="&#x162;" horiz-adv-x="400" 
d="M109 22v542h-99v136h380v-136h-99v-542h-41v-39q-21 -28 -49 -40.5t-77 -12.5h-58v68h58q19 0 25 7v17h-40z" />
    <glyph glyph-name="tcommaaccent" unicode="&#x163;" horiz-adv-x="400" 
d="M109 22v542h-99v136h380v-136h-99v-542h-41v-39q-21 -28 -49 -40.5t-77 -12.5h-58v68h58q19 0 25 7v17h-40z" />
    <glyph glyph-name="Tcaron" unicode="&#x164;" horiz-adv-x="400" 
d="M109 0v534h-99v136h69l-43 84v6h99l65 -75l65 75h99v-6l-44 -84h70v-136h-99v-534h-182z" />
    <glyph glyph-name="tcaron" unicode="&#x165;" horiz-adv-x="400" 
d="M109 0v544h-99v136h49l29 -53h224l28 53h50v-136h-99v-544h-182zM95 640l-59 114v6h99l65 -75l65 75h99v-6l-60 -114h-209z" />
    <glyph glyph-name="Tbar" unicode="&#x166;" horiz-adv-x="400" 
d="M109 0v315h-70v115h70v134h-99v136h380v-136h-99v-134h70v-115h-70v-315h-182z" />
    <glyph glyph-name="tbar" unicode="&#x167;" horiz-adv-x="400" 
d="M109 0v315h-70v115h70v134h-99v136h380v-136h-99v-134h70v-115h-70v-315h-182z" />
    <glyph glyph-name="Utilde" unicode="&#x168;" 
d="M402 750v-50h52v-602q-7 -15 -20.5 -31t-38.5 -36.5t-66.5 -33.5t-91.5 -13t-91 13t-66 33t-39 36.5t-21 31.5v602h58q26 50 89 50q33 0 69.5 -23t48.5 -23q16 0 23 17v29h94zM237 136q27 0 35 24v468q-18 6 -40.5 21.5t-29.5 18.5v-508q10 -24 35 -24z" />
    <glyph glyph-name="utilde" unicode="&#x169;" 
d="M454 700v-602q-7 -15 -21 -31.5t-39 -36.5t-66 -33t-91 -13t-91.5 13t-66.5 33.5t-38.5 36.5t-20.5 31v602h39v-89h119v41q4 7 12 7q7 0 12 -4v-495q8 -24 35 -24q25 0 35 24v454q15 -4 36 -4q37 0 68.5 20.5t39.5 57.5v12h38zM403 750v-52q-5 -32 -31.5 -53.5
t-64.5 -21.5q-34 0 -70 24t-48 24q-19 0 -24 -16v-31h-93v51q5 32 31 53.5t65 21.5q33 0 69.5 -23t48.5 -23q16 0 23 17v29h94z" />
    <glyph glyph-name="Umacron" unicode="&#x16a;" 
d="M20 98v602h85v60h265v-60h84v-602q-7 -15 -20.5 -31t-38.5 -36.5t-66.5 -33.5t-91.5 -13t-91 13t-66 33t-39 36.5t-21 31.5zM237 136q27 0 35 24v510h-70v-510q10 -24 35 -24z" />
    <glyph glyph-name="umacron" unicode="&#x16b;" 
d="M20 98v602h72v-43h110v-497q10 -24 35 -24q27 0 35 24v497h110v43h72v-602q-7 -15 -20.5 -31t-38.5 -36.5t-66.5 -33.5t-91.5 -13t-91 13t-66 33t-39 36.5t-21 31.5zM105 670v90h265v-90h-265z" />
    <glyph glyph-name="Ubreve" unicode="&#x16c;" 
d="M20 98v602h82q-7 9 -17 31v29h111v-21q8 -22 41 -22q32 0 40 22v21h112v-29q-9 -19 -18 -31h83v-602q-7 -15 -20.5 -31t-38.5 -36.5t-66.5 -33.5t-91.5 -13t-91 13t-66 33t-39 36.5t-21 31.5zM272 160v482q-22 -2 -35 -2t-35 2v-482q10 -24 35 -24q27 0 35 24z" />
    <glyph glyph-name="ubreve" unicode="&#x16d;" 
d="M20 98v602h65q34 -58 117 -71v-469q10 -24 35 -24q27 0 35 24v469q83 13 117 71h65v-602q-7 -15 -20.5 -31t-38.5 -36.5t-66.5 -33.5t-91.5 -13t-91 13t-66 33t-39 36.5t-21 31.5zM85 731v29h111v-21q8 -22 41 -22q32 0 40 22v21h112v-29q-40 -91 -152 -91t-152 91z" />
    <glyph glyph-name="Uring" unicode="&#x16e;" 
d="M20 98v602h95v10q35 50 122 50t122 -50v-10h95v-602q-7 -15 -20.5 -31t-38.5 -36.5t-66.5 -33.5t-91.5 -13t-91 13t-66 33t-39 36.5t-21 31.5zM272 160v396q-11 -2 -35 -2t-35 2v-396q10 -24 35 -24q27 0 35 24zM182 679v-44q15 -18 55 -18t55 18v44q-15 18 -55 18
t-55 -18z" />
    <glyph glyph-name="uring" unicode="&#x16f;" 
d="M20 98v602h82v-101q31 -44 100 -55v-384q10 -24 35 -24q27 0 35 24v384q69 11 100 55v101h82v-602q-7 -15 -20.5 -31t-38.5 -36.5t-66.5 -33.5t-91.5 -13t-91 13t-66 33t-39 36.5t-21 31.5zM115 606v102q37 52 122 52t122 -52v-102q-37 -52 -122 -52t-122 52zM182 679
v-44q15 -18 55 -18t55 18v44q-15 18 -55 18t-55 -18z" />
    <glyph glyph-name="Uhungarumlaut" unicode="&#x170;" 
d="M20 98v602h84l16 60h121v-40l-39 -77v-483q10 -24 35 -24q27 0 35 24v470h-30l35 130h121v-40l-10 -20h66v-602q-7 -15 -20.5 -31t-38.5 -36.5t-66.5 -33.5t-91.5 -13t-91 13t-66 33t-39 36.5t-21 31.5z" />
    <glyph glyph-name="uhungarumlaut" unicode="&#x171;" 
d="M20 98v602h75l-21 -73h128v-467q10 -24 35 -24q27 0 35 24v467h95l42 73h45v-602q-7 -15 -20.5 -31t-38.5 -36.5t-66.5 -33.5t-91.5 -13t-91 13t-66 33t-39 36.5t-21 31.5zM92 640l35 120h121v-40l-46 -80h-110zM249 640l35 120h121v-40l-46 -80h-110z" />
    <glyph glyph-name="Uogonek" unicode="&#x172;" 
d="M20 98v602h182v-540q10 -24 35 -24q27 0 35 24v540h182v-602q-6 -13 -18 -26.5t-22 -21.5l-26 -20t-19 -15v-10q7 -7 22 -7h42v-56q-30 -12 -84 -12q-76 0 -112 25v29q-50 0 -91 13t-66 33t-39 36.5t-21 31.5z" />
    <glyph glyph-name="uogonek" unicode="&#x173;" 
d="M20 98v602h182v-540q10 -24 35 -24q27 0 35 24v540h182v-602q-6 -13 -18 -26.5t-22 -21.5l-26 -20t-19 -15v-10q7 -7 22 -7h42v-56q-30 -12 -84 -12q-76 0 -112 25v29q-50 0 -91 13t-66 33t-39 36.5t-21 31.5z" />
    <glyph glyph-name="Wcircumflex" unicode="&#x174;" horiz-adv-x="736" 
d="M89 0l-72 583v117h164l40 -416h14l46 356h-77v6l59 114h209l60 -114v-6h-70l43 -356h14l44 416h156v-117l-72 -583h-229l-43 295h-14l-45 -295h-227zM329 670h77l-38 44z" />
    <glyph glyph-name="wcircumflex" unicode="&#x175;" horiz-adv-x="736" 
d="M89 0l-72 583v117h169l35 -416h14l43 333h35l58 65l59 -65h36l39 -333h14l39 416h161v-117l-72 -583h-229l-43 295h-14l-45 -295h-227zM207 630v6l59 124h209l60 -124v-6h-99l-65 74l-64 -74h-100z" />
    <glyph glyph-name="Ycircumflex" unicode="&#x176;" horiz-adv-x="449" 
d="M129 0v258l-117 325v117h76l31 60h209l31 -60h78v-117l-126 -324v-259h-182zM221 478h12l41 178l-50 58l-46 -52z" />
    <glyph glyph-name="ycircumflex" unicode="&#x177;" horiz-adv-x="449" 
d="M129 0v258l-117 325v117h71l-30 -73h134l34 -149h12l35 149h132l-29 73h66v-117l-126 -324v-259h-182zM74 640l48 120h209l49 -120h-101l-52 74l-52 -74h-101z" />
    <glyph glyph-name="Ydieresis" unicode="&#x178;" horiz-adv-x="449" 
d="M129 0v258l-117 325v117h55v27q26 33 74 33t74 -33v-71q-13 -14 -30 -23l36 -155h12l36 155q-19 8 -31 23v71q26 33 74 33t74 -33v-27h51v-117l-126 -324v-259h-182z" />
    <glyph glyph-name="Zacute" unicode="&#x179;" horiz-adv-x="395" 
d="M15 0v132l172 394v18h-171v136h122l23 80h141v-40l-38 -40h116v-132l-174 -393v-19h174v-136h-365z" />
    <glyph glyph-name="zacute" unicode="&#x17a;" horiz-adv-x="395" 
d="M15 0v132l172 394v18h-171v136h121l-15 -63h145l41 63h72v-132l-174 -393v-19h174v-136h-365zM139 630l35 130h141v-40l-56 -90h-120z" />
    <glyph glyph-name="Zdotaccent" unicode="&#x17b;" horiz-adv-x="395" 
d="M15 0v132l172 394v18h-171v136h96v44q28 36 85 36t85 -36v-44h98v-132l-174 -393v-19h174v-136h-365z" />
    <glyph glyph-name="zdotaccent" unicode="&#x17c;" horiz-adv-x="395" 
d="M15 0v132l172 394v18h-171v136h82v-33q31 -40 98 -40q66 0 98 40v33h86v-132l-174 -393v-19h174v-136h-365zM111 655v69q28 36 85 36t85 -36v-69q-28 -35 -85 -35t-85 35z" />
    <glyph glyph-name="Zcaron" unicode="&#x17d;" horiz-adv-x="395" 
d="M15 0v132l172 394v18h-171v136h63l-39 74v6h99l65 -75l65 75h99v-6l-39 -74h51v-132l-174 -393v-19h174v-136h-365z" />
    <glyph glyph-name="zcaron" unicode="&#x17e;" horiz-adv-x="395" 
d="M15 0v132l172 394v18h-171v136h41l27 -53h226l29 53h41v-132l-174 -393v-19h174v-136h-365zM93 640l-59 114v6h99l65 -75l65 75h99v-6l-60 -114h-209z" />
    <glyph glyph-name="uni018F" unicode="&#x18f;" horiz-adv-x="458" 
d="M17 80v327h242v133q-10 24 -35 24q-27 0 -35 -24v-86h-172v165q25 38 76 67.5t131 29.5q50 0 91 -13t66 -33t39 -36.5t21 -31.5v-504q-7 -15 -21 -31.5t-39 -36.5t-66 -33t-91 -13q-140 0 -207 96zM259 160v111h-70v-111q8 -24 35 -24q25 0 35 24z" />
    <glyph glyph-name="florin" unicode="&#x192;" horiz-adv-x="314" 
d="M5 -58v129h28q24 0 33 23v290h-61v113h61v125q17 33 58 63t105 30q44 0 80 -12v-129h-28q-24 0 -33 -23v-54h61v-113h-61v-361q-17 -33 -58 -63t-105 -30q-44 0 -80 12z" />
    <glyph glyph-name="AEacute" unicode="&#x1fc;" horiz-adv-x="609" 
d="M12 0v117l108 563h177l17 80h141v-40l-28 -40h166v-136h-144v-115h135v-136h-135v-157h147v-136h-329v167h-69l-25 -167h-161zM218 303h49v241h-12z" />
    <glyph glyph-name="aeacute" unicode="&#x1fd;" horiz-adv-x="607" 
d="M10 0v117l108 563h163l-17 -63h147l41 63h139v-136h-144v-115h135v-136h-135v-157h147v-136h-329v167h-69l-25 -167h-161zM283 630l35 130h141v-40l-56 -90h-120zM217 303h48v241h-12z" />
    <glyph glyph-name="Oslashacute" unicode="&#x1fe;" horiz-adv-x="468" 
d="M17 0v57l11 21q-8 11 -11 20v474q9 18 24 36.5t51.5 41t83.5 31.5l15 79h141v-40l-26 -42q28 -8 50 -18l22 40h73v-57l-22 -38q13 -16 22 -33v-474q-7 -15 -20.5 -31t-38.5 -36.5t-66.5 -33.5t-91.5 -13q-77 0 -136 32l-9 -16h-72zM269 160v160l-70 -125v-35
q10 -24 35 -24q27 0 35 24zM199 510v-129l70 125v4q-8 24 -35 24q-25 0 -35 -24z" />
    <glyph glyph-name="oslashacute" unicode="&#x1ff;" horiz-adv-x="468" 
d="M17 98v474q42 84 149 106l-10 -61h144l29 55q12 -4 27 -11l22 39h73v-57l-22 -38q13 -16 22 -33v-474q-7 -15 -20.5 -31t-38.5 -36.5t-66.5 -33.5t-91.5 -13q-77 0 -136 32l-9 -16h-72v57l11 21q-8 11 -11 20zM171 630l25 130h141v-40l-46 -90h-120zM269 160v160
l-70 -125v-35q9 -24 35 -24t35 24zM199 510v-129l70 125v4q-9 24 -35 24t-35 -24z" />
    <glyph glyph-name="Scommaaccent" unicode="&#x218;" horiz-adv-x="448" 
d="M98 -70v68h56q19 0 25 7v12q-61 8 -101.5 35.5t-60.5 58.5v134h172v-55q9 -24 35 -24t35 24v63q-5 19 -41 31l-12 4q-91 30 -130.5 60.5t-58.5 69.5v201q22 36 75 66.5t132 30.5t132 -30.5t75 -66.5v-129h-172v50q-9 24 -35 24t-35 -24v-50q6 -21 43 -32l13 -4
q91 -28 129 -58.5t57 -72.5v-212q-19 -30 -57 -56.5t-94 -36.5v-35q-21 -28 -49 -40.5t-77 -12.5h-56z" />
    <glyph glyph-name="scommaaccent" unicode="&#x219;" horiz-adv-x="448" 
d="M98 -70v68h56q19 0 25 7v12q-61 8 -101.5 35.5t-60.5 58.5v134h172v-55q9 -24 35 -24t35 24v63q-5 19 -41 31l-12 4q-91 30 -130.5 60.5t-58.5 69.5v201q22 36 75 66.5t132 30.5t132 -30.5t75 -66.5v-129h-172v50q-9 24 -35 24t-35 -24v-50q6 -21 43 -32l13 -4
q91 -28 129 -58.5t57 -72.5v-212q-19 -30 -57 -56.5t-94 -36.5v-35q-21 -28 -49 -40.5t-77 -12.5h-56z" />
    <glyph glyph-name="uni021A" unicode="&#x21a;" horiz-adv-x="400" 
d="M109 22v542h-99v136h380v-136h-99v-542h-41v-39q-21 -28 -49 -40.5t-77 -12.5h-58v68h58q19 0 25 7v17h-40z" />
    <glyph glyph-name="uni021B" unicode="&#x21b;" horiz-adv-x="400" 
d="M109 22v542h-99v136h380v-136h-99v-542h-41v-39q-21 -28 -49 -40.5t-77 -12.5h-58v68h58q19 0 25 7v17h-40z" />
    <glyph glyph-name="dotlessj" unicode="&#x237;" horiz-adv-x="279" 
d="M12 0v136h27q35 0 43 24v540h182v-602q-20 -41 -73 -69.5t-143 -28.5h-36z" />
    <glyph glyph-name="uni0259" unicode="&#x259;" horiz-adv-x="458" 
d="M17 80v327h242v133q-10 24 -35 24q-27 0 -35 -24v-86h-172v165q25 38 76 67.5t131 29.5q50 0 91 -13t66 -33t39 -36.5t21 -31.5v-504q-7 -15 -21 -31.5t-39 -36.5t-66 -33t-91 -13q-140 0 -207 96zM259 160v111h-70v-111q8 -24 35 -24q25 0 35 24z" />
    <glyph glyph-name="circumflex" unicode="&#x2c6;" horiz-adv-x="428" 
d="M50 640v6l59 114h209l60 -114v-6h-99l-65 74l-65 -74h-99z" />
    <glyph glyph-name="caron" unicode="&#x2c7;" horiz-adv-x="428" 
d="M109 640l-59 114v6h99l65 -75l65 75h99v-6l-60 -114h-209z" />
    <glyph glyph-name="breve" unicode="&#x2d8;" horiz-adv-x="394" 
d="M45 723v29h111v-21q8 -22 41 -22q32 0 40 22v21h112v-29q-40 -91 -152 -91t-152 91z" />
    <glyph glyph-name="dotaccent" unicode="&#x2d9;" horiz-adv-x="250" 
d="M40 655v69q28 36 85 36t85 -36v-69q-28 -35 -85 -35t-85 35z" />
    <glyph glyph-name="ring" unicode="&#x2da;" horiz-adv-x="300" 
d="M38 619v94q34 47 112 47t112 -47v-94q-34 -47 -112 -47t-112 47zM97 690v-48q15 -19 53 -19t53 19v48q-15 19 -53 19t-53 -19z" />
    <glyph glyph-name="ogonek" unicode="&#x2db;" horiz-adv-x="276" 
d="M40 -45v55q23 21 80.5 36t101.5 19l14 -25q-58 -16 -64 -25v-15q8 -4 33 -4q21 0 31 2v-57q-22 -11 -78 -11q-82 0 -118 25z" />
    <glyph glyph-name="tilde" unicode="&#x2dc;" horiz-adv-x="415" 
d="M42 708v52h94v-29q7 -17 23 -17q12 0 48.5 23t69.5 23q39 0 65 -21.5t31 -53.5v-51h-93v30q-5 17 -24 17q-12 0 -48 -24t-70 -24q-38 0 -64.5 21.5t-31.5 53.5z" />
    <glyph glyph-name="hungarumlaut" unicode="&#x2dd;" horiz-adv-x="420" 
d="M48 630l35 130h121v-40l-46 -90h-110zM205 630l35 130h121v-40l-46 -90h-110z" />
    <glyph glyph-name="pi" unicode="&#x3c0;" horiz-adv-x="541" 
d="M67 0v564h-52v136h511v-136h-52v-564h-172v564h-63v-564h-172z" />
    <glyph glyph-name="Wgrave" unicode="&#x1e80;" horiz-adv-x="736" 
d="M89 0l-72 583v117h174l30 -416h14l50 386h28l-28 50v40h132l16 -90h26l46 -386h14l34 416h166v-117l-72 -583h-229l-43 295h-14l-45 -295h-227z" />
    <glyph glyph-name="wgrave" unicode="&#x1e81;" horiz-adv-x="736" 
d="M89 0l-72 583v117h174l30 -416h14l47 386h17l29 -53h119l-10 53h25l43 -386h14l34 416h166v-117l-72 -583h-229l-43 295h-14l-45 -295h-227zM336 630l-46 90v40h116l25 -130h-95z" />
    <glyph glyph-name="Wacute" unicode="&#x1e82;" horiz-adv-x="736" 
d="M89 0l-72 583v117h174l30 -416h14l50 386h26l16 90h132v-40l-28 -50h28l46 -386h14l34 416h166v-117l-72 -583h-229l-43 295h-14l-45 -295h-227z" />
    <glyph glyph-name="wacute" unicode="&#x1e83;" horiz-adv-x="736" 
d="M89 0l-72 583v117h174l30 -416h14l47 386h25l-10 -53h119l29 53h17l43 -386h14l34 416h166v-117l-72 -583h-229l-43 295h-14l-45 -295h-227zM313 630l25 130h116v-40l-46 -90h-95z" />
    <glyph glyph-name="Wdieresis" unicode="&#x1e84;" horiz-adv-x="736" 
d="M89 0l-72 583v117h164l40 -416h14l44 340q-47 0 -72 32v71q26 33 74 33t74 -33v-57h33v57q26 33 74 33t74 -33v-71q-27 -32 -72 -32l41 -340h14l44 416h156v-117l-72 -583h-229l-43 295h-14l-45 -295h-227z" />
    <glyph glyph-name="wdieresis" unicode="&#x1e85;" horiz-adv-x="736" 
d="M89 0l-72 583v117h169l35 -416h14l43 328q64 0 94 31q27 -31 93 -31l40 -328h14l39 416h161v-117l-72 -583h-229l-43 295h-14l-45 -295h-227zM217 656v71q26 33 74 33t74 -33v-71q-27 -32 -74 -32t-74 32zM379 656v71q26 33 74 33t74 -33v-71q-27 -32 -74 -32t-74 32z
" />
    <glyph glyph-name="Ygrave" unicode="&#x1ef2;" horiz-adv-x="449" 
d="M129 0v258l-117 325v117h115l-23 30v30h141l29 -107l11 47h152v-117l-126 -324v-259h-182zM221 478h12l35 152h-82z" />
    <glyph glyph-name="ygrave" unicode="&#x1ef3;" horiz-adv-x="449" 
d="M129 0v258l-117 325v117h92l53 -83h32l32 -139h12l32 139h38l-21 83h155v-117l-126 -324v-259h-182zM165 630l-56 90v40h141l35 -130h-120z" />
    <glyph glyph-name="uni2009" unicode="&#x2009;" horiz-adv-x="150" 
 />
    <glyph glyph-name="endash" unicode="&#x2013;" horiz-adv-x="360" 
d="M10 272v160h340v-160h-340z" />
    <glyph glyph-name="emdash" unicode="&#x2014;" horiz-adv-x="490" 
d="M10 272v160h470v-160h-470z" />
    <glyph glyph-name="quoteleft" unicode="&#x2018;" horiz-adv-x="191" 
d="M10 470v151q7 26 36.5 52.5t71.5 26.5h48v-69h-46q-10 0 -19 -7.5t-12 -18.5v-8h7q60 0 85 -42v-85q-25 -42 -85 -42q-34 0 -56.5 13t-29.5 29z" />
    <glyph glyph-name="quoteright" unicode="&#x2019;" horiz-adv-x="191" 
d="M25 436v69h46q10 0 19 7.5t12 18.5v8h-7q-60 0 -85 42v85q25 42 85 42q34 0 56.5 -13t29.5 -29v-151q-7 -26 -36.5 -52.5t-71.5 -26.5h-48z" />
    <glyph glyph-name="quotesinglbase" unicode="&#x201a;" horiz-adv-x="191" 
d="M25 -70v69h46q10 0 19 7.5t12 18.5v8h-7q-60 0 -85 42v85q25 42 85 42q34 0 56.5 -13t29.5 -29v-151q-7 -26 -36.5 -52.5t-71.5 -26.5h-48z" />
    <glyph glyph-name="quotedblleft" unicode="&#x201c;" horiz-adv-x="387" 
d="M10 470v151q7 26 36.5 52.5t71.5 26.5h48v-69h-46q-10 0 -19 -7.5t-12 -18.5v-8h7q60 0 85 -42v-85q-25 -42 -85 -42q-34 0 -56.5 13t-29.5 29zM206 470v151q7 26 36.5 52.5t71.5 26.5h48v-69h-46q-10 0 -19 -7.5t-12 -18.5v-8h7q60 0 85 -42v-85q-25 -42 -85 -42
q-34 0 -56.5 13t-29.5 29z" />
    <glyph glyph-name="quotedblright" unicode="&#x201d;" horiz-adv-x="387" 
d="M25 436v69h46q10 0 19 7.5t12 18.5v8h-7q-60 0 -85 42v85q25 42 85 42q34 0 56.5 -13t29.5 -29v-151q-7 -26 -36.5 -52.5t-71.5 -26.5h-48zM221 436v69h46q10 0 19 7.5t12 18.5v8h-7q-60 0 -85 42v85q25 42 85 42q34 0 56.5 -13t29.5 -29v-151q-7 -26 -36.5 -52.5
t-71.5 -26.5h-48z" />
    <glyph glyph-name="quotedblbase" unicode="&#x201e;" horiz-adv-x="383" 
d="M25 -70v69h46q10 0 19 7.5t12 18.5v8h-7q-60 0 -85 42v85q25 42 85 42q34 0 56.5 -13t29.5 -29v-151q-7 -26 -36.5 -52.5t-71.5 -26.5h-48zM217 -70v69h46q10 0 19 7.5t12 18.5v8h-7q-60 0 -85 42v85q25 42 85 42q34 0 56.5 -13t29.5 -29v-151q-7 -26 -36.5 -52.5
t-71.5 -26.5h-48z" />
    <glyph glyph-name="dagger" unicode="&#x2020;" horiz-adv-x="540" 
d="M199 -70l-15 414l-80 -11h-89v176h89l76 -11l-3 50v152h183v-152l-3 -51l78 12h90v-176h-90l-83 12l-15 -415h-138z" />
    <glyph glyph-name="daggerdbl" unicode="&#x2021;" horiz-adv-x="560" 
d="M211 -70l-8 205l-88 -13h-90v176h90l83 -12l-4 100l-79 -11h-90v176h90l74 -10v159h182v-160l75 11h89v-176h-89l-81 12l-4 -102l85 13h89v-176h-89l-90 14l-8 -206h-137z" />
    <glyph glyph-name="bullet" unicode="&#x2022;" horiz-adv-x="305" 
d="M17 256v164q19 30 54 50.5t81 20.5q90 0 136 -71v-165q-20 -33 -55.5 -53.5t-80.5 -20.5q-46 0 -81.5 21t-53.5 54z" />
    <glyph glyph-name="ellipsis" unicode="&#x2026;" horiz-adv-x="573" 
d="M10 33v100q25 42 85 42q34 0 56.5 -13t29.5 -29v-100q-7 -16 -29.5 -29t-56.5 -13q-60 0 -85 42zM201 33v100q25 42 85 42q34 0 56.5 -13t29.5 -29v-100q-7 -16 -29.5 -29t-56.5 -13q-60 0 -85 42zM392 33v100q25 42 85 42q34 0 56.5 -13t29.5 -29v-100q-7 -16 -29.5 -29
t-56.5 -13q-60 0 -85 42z" />
    <glyph glyph-name="perthousand" unicode="&#x2030;" horiz-adv-x="1058" 
d="M186 452v147q-5 10 -23 10t-23 -10v-147q5 -10 23 -10t23 10zM10 438v174q13 40 52 69t101 29t101.5 -29t51.5 -69v-174q-12 -40 -51.5 -68.5t-101.5 -28.5t-101 28.5t-52 68.5zM587 102v147q-5 10 -23 10t-23 -10v-147q5 -10 23 -10t23 10zM411 88v174q13 40 52 69
t101 29t101.5 -29t51.5 -69v-174q-12 -40 -51.5 -68.5t-101.5 -28.5t-101 28.5t-52 68.5zM918 102v147q-5 10 -23 10t-23 -10v-147q5 -10 23 -10t23 10zM742 88v174q13 40 52 69t101 29t101.5 -29t51.5 -69v-174q-12 -40 -51.5 -68.5t-101.5 -28.5t-101 28.5t-52 68.5z
M156 0v75l328 625h87v-75l-327 -625h-88z" />
    <glyph glyph-name="guilsinglleft" unicode="&#x2039;" horiz-adv-x="273" 
d="M157 66l-138 186v157l138 187h106v-104l-124 -160l124 -162v-104h-106z" />
    <glyph glyph-name="guilsinglright" unicode="&#x203a;" horiz-adv-x="264" 
d="M10 66v104l124 162l-124 160v104h106l138 -187v-157l-138 -186h-106z" />
    <glyph glyph-name="fraction" unicode="&#x2044;" horiz-adv-x="175" 
d="M-120 0v75l328 625h87v-75l-327 -625h-88z" />
    <glyph glyph-name="uni20A8" unicode="&#x20a8;" horiz-adv-x="386" 
d="M178 0l-163 246v140h102q26 0 37 23v17h-135v95h135v20q-12 23 -37 23h-98v136h377l-13 -95h-59v-84h46l-13 -95h-33v-67q-31 -82 -105 -105l105 -137v-117h-146z" />
    <glyph glyph-name="Euro" unicode="&#x20ac;" horiz-adv-x="463" 
d="M40 98v140h-30v95h30v38h-30v95h30v136q7 15 20.5 31.5t38 36.5t65.5 33t91 13q122 0 193 -80v-136h-160v51q-8 23 -33 23q-23 0 -33 -23v-85h165l-13 -95h-152v-38h147l-12 -95h-135v-89q10 -23 33 -23q25 0 33 23v50h160v-135q-70 -80 -193 -80q-50 0 -91 13t-65.5 33
t-38 36.5t-20.5 31.5z" />
    <glyph glyph-name="uni20BA" unicode="&#x20ba;" horiz-adv-x="448" 
d="M50 0v256l-40 -13v100l40 13v41l-40 -13v100l40 13v203h182v-142l135 46v-100l-135 -46v-41l135 46v-100l-135 -46v-175h13q25 0 33 23v50h160v-135q-70 -80 -193 -80h-195z" />
    <glyph glyph-name="uni2117" unicode="&#x2117;" horiz-adv-x="752" 
d="M10 350q0 152 107 259t259 107t259 -107t107 -259t-107 -259t-259 -107t-259 107t-107 259zM376 27q133 0 225 94.5t92 228.5t-92 228.5t-225 94.5q-132 0 -224.5 -94.5t-92.5 -228.5t92.5 -228.5t224.5 -94.5zM205 121v460h230q50 0 93.5 -26.5t60.5 -68.5v-151
q-17 -42 -60.5 -69t-93.5 -27h-69v-118h-161zM366 356h40q23 0 29 17v75q-6 16 -29 16h-40v-108z" />
    <glyph glyph-name="trademark" unicode="&#x2122;" horiz-adv-x="793" 
d="M317 310v390h187l40 -147h11l41 147h177v-390h-129v173h-10l-49 -173h-79l-49 173h-11v-173h-129zM76 310v281h-76v109h292v-109h-77v-281h-139z" />
    <glyph glyph-name="arrowleft" unicode="&#x2190;" horiz-adv-x="705" 
d="M15 291v119l291 290h110v-110l-174 -163h448v-156h-448l174 -160v-111h-110z" />
    <glyph glyph-name="arrowup" unicode="&#x2191;" horiz-adv-x="731" 
d="M283 0v463l-160 -162h-108v108l291 291h119l291 -291v-108h-108l-164 163v-464h-161z" />
    <glyph glyph-name="arrowright" unicode="&#x2192;" horiz-adv-x="705" 
d="M15 271v156h447l-174 163v110h111l291 -290v-119l-291 -291h-111v111l174 160h-447z" />
    <glyph glyph-name="arrowdown" unicode="&#x2193;" horiz-adv-x="731" 
d="M15 291v108h108l160 -162v463h161v-464l164 163h108v-108l-291 -291h-119z" />
    <glyph glyph-name="minus" unicode="&#x2212;" horiz-adv-x="460" 
d="M10 272v160h440v-160h-440z" />
    <glyph glyph-name="approxequal" unicode="&#x2248;" horiz-adv-x="460" 
d="M12 117v164q5 5 14 12.5t39 20.5t62 13q42 0 116 -25.5t110 -25.5q25 0 48.5 11t34.5 22l11 11v-169q-35 -34 -93 -34q-45 0 -117.5 25.5t-110.5 25.5q-29 0 -57.5 -13t-42.5 -25zM12 338v164q5 5 14 12.5t39 20.5t62 13q42 0 116 -25.5t110 -25.5q25 0 48.5 11t34.5 22
l11 11v-169q-35 -34 -93 -34q-45 0 -117.5 25.5t-110.5 25.5q-29 0 -57.5 -12.5t-42.5 -25.5z" />
    <glyph glyph-name="notequal" unicode="&#x2260;" horiz-adv-x="460" 
d="M72 82l25 81h-87v160h138l18 59h-156v160h207l23 73h148l-23 -73h85v-160h-136l-18 -59h154v-160h-205l-25 -81h-148z" />
    <glyph glyph-name="lessequal" unicode="&#x2264;" horiz-adv-x="460" 
d="M17 341v104l288 174h137v-105l-199 -101l199 -102v-105h-137zM17 8v157h425v-157h-425z" />
    <glyph glyph-name="greaterequal" unicode="&#x2265;" horiz-adv-x="460" 
d="M17 206v105l199 102l-199 101v105h137l288 -174v-104l-288 -135h-137zM17 8v157h425v-157h-425z" />
    <glyph glyph-name="commaaccent" unicode="&#xf6c3;" horiz-adv-x="267" 
d="M40 -70v55h51q40 0 46 14v3h-3q-73 0 -94 25v58q25 30 94 30q68 0 93 -30v-85q-8 -27 -38.5 -48.5t-80.5 -21.5h-68z" />
    <glyph glyph-name="i.TRK" horiz-adv-x="222" 
d="M20 0v700h182v-700h-182z" />
    <glyph glyph-name="caron.alt" horiz-adv-x="250" 
d="M70 451v249h108v-138l-32 -111h-76z" />
    <glyph glyph-name="I.ss01" horiz-adv-x="332" 
d="M15 0v136h60v428h-60v136h302v-136h-60v-428h60v-136h-302z" />
    <glyph glyph-name="J.ss01" horiz-adv-x="281" 
d="M12 0v136h27q35 0 43 24v404h-70v136h252v-602q-20 -41 -73 -69.5t-143 -28.5h-36z" />
    <glyph glyph-name="Q.ss02" horiz-adv-x="468" 
d="M17 152v450q7 15 21 31.5t39 36.5t66 33t91 13t91.5 -13t66.5 -33.5t38.5 -36.5t20.5 -31v-450q-21 -46 -77 -79v-4h67v-85h-74q-100 0 -142 54q-62 2 -111 25.5t-68 45.5t-29 43zM269 214v326q-9 24 -35 24t-35 -24v-326q9 -24 35 -24t35 24z" />
    <glyph glyph-name="Agrave.ss02" horiz-adv-x="482" 
d="M12 0v117l89 513h71l-22 40v40h141l14 -80h76l89 -513v-117h-173l-16 147h-90l-18 -147h-161zM231 456l-22 -173h57l-19 173h-16z" />
    <glyph glyph-name="Aacute.ss02" horiz-adv-x="482" 
d="M12 0v117l89 513h76l15 80h141v-40l-23 -40h71l89 -513v-117h-173l-16 147h-90l-18 -147h-161zM231 456l-22 -173h57l-19 173h-16z" />
    <glyph glyph-name="Acircumflex.ss02" horiz-adv-x="482" 
d="M76 590v6l59 114h209l60 -114v-6h-16l82 -473v-117h-173l-16 147h-90l-18 -147h-161v117l82 473h-18zM231 456l-22 -173h57l-19 173h-16zM240 664l-39 -44h77z" />
    <glyph glyph-name="Atilde.ss02" horiz-adv-x="482" 
d="M402 710v-52q-3 -24 -19 -43l87 -498v-117h-173l-16 147h-90l-18 -147h-161v117l81 467h-22v51q5 32 31 53.5t65 21.5q33 0 69.5 -23t48.5 -23q16 0 23 17v29h94zM231 456l-22 -173h57l-19 173h-16zM164 614v-13h81q-7 4 -19.5 13t-21 13t-16.5 4q-19 0 -24 -17z" />
    <glyph glyph-name="Adieresis.ss02" horiz-adv-x="482" 
d="M12 0v117l82 476q-11 6 -22 19v71q26 33 74 33t74 -33v-47h43v47q26 33 74 33t74 -33v-71q-8 -11 -24 -19l83 -476v-117h-173l-16 147h-90l-18 -147h-161zM231 456l-22 -173h57l-19 173h-16z" />
    <glyph glyph-name="Amacron.ss02" horiz-adv-x="482" 
d="M77 620v90h325v-90h-22l90 -503v-117h-173l-16 147h-90l-18 -147h-161v117l90 503h-25zM231 456l-22 -173h57l-19 173h-16z" />
    <glyph glyph-name="Abreve.ss02" horiz-adv-x="482" 
d="M12 0v117l89 513h23q-23 22 -35 51v29h111v-21q8 -22 41 -22q32 0 40 22v21h112v-29q-13 -30 -36 -51h24l89 -513v-117h-173l-16 147h-90l-18 -147h-161zM231 456l-22 -173h57l-19 173h-16z" />
    <glyph glyph-name="Aring.ss02" horiz-adv-x="482" 
d="M12 0v117l89 519h18v28q37 52 122 52t122 -52v-28h17l90 -519v-117h-173l-17 147h-88l-19 -147h-161zM183 636v-46q16 -20 58 -20t58 20v46q-16 20 -58 20t-58 -20zM231 447l-22 -164h56l-18 164h-16z" />
    <glyph glyph-name="Aogonek.ss02" horiz-adv-x="482" 
d="M12 0v117l92 583h274l92 -583v-16q-52 -12 -69 -26v-15q8 -4 38 -4q21 0 31 2v-58q-28 -10 -87 -10q-67 0 -85 10l-17 167h-89l-19 -167h-161zM207 303h60l-20 203h-16z" />
    <glyph glyph-name="AEacute.ss02" horiz-adv-x="608" 
d="M596 0h-329v142h-71l-23 -142h-161v117l108 513h177l17 80h141v-40l-28 -40h166v-136h-144v-109h135v-136h-135v-113h147v-136zM253 494l-35 -216h49v216h-14z" />
    <glyph glyph-name="Cacute.ss02" horiz-adv-x="458" 
d="M17 98v424q14 30 52 63t103 45l16 80h141v-40l-26 -42q91 -20 138 -89v-170h-172v91q-8 24 -35 24q-25 0 -35 -24v-300q10 -24 35 -24q27 0 35 24v105h172v-185q-67 -96 -207 -96q-50 0 -91 13t-66 33t-39 36.5t-21 31.5z" />
    <glyph glyph-name="Ccircumflex.ss02" horiz-adv-x="458" 
d="M60 600v6l69 104h209l70 -104v-6h-33q43 -27 66 -61v-170h-172v91q-8 24 -35 24q-25 0 -35 -24v-300q10 -24 35 -24q27 0 35 24v105h172v-185q-67 -96 -207 -96q-50 0 -91 13t-66 33t-39 36.5t-21 31.5v424q21 45 74 78h-31zM234 636q22 0 41 -3l-41 41l-41 -41
q20 3 41 3z" />
    <glyph glyph-name="Ccaron.ss02" horiz-adv-x="458" 
d="M17 98v424q29 60 103 92l-46 90v6h99l65 -65l65 65h99v-6l-49 -93q57 -27 88 -72v-170h-172v91q-8 24 -35 24q-25 0 -35 -24v-300q10 -24 35 -24q27 0 35 24v105h172v-185q-67 -96 -207 -96q-50 0 -91 13t-66 33t-39 36.5t-21 31.5z" />
    <glyph glyph-name="Cdotaccent.ss02" horiz-adv-x="458" 
d="M17 98v430q12 26 45 56.5t88 46.5v49q28 36 85 36t85 -36v-50q81 -25 121 -85v-170h-172v91q-8 24 -35 24q-25 0 -35 -24v-306q10 -24 35 -24q27 0 35 24v105h172v-185q-67 -96 -207 -96q-50 0 -91 13t-66 33t-39 36.5t-21 31.5z" />
    <glyph glyph-name="Ccedilla.ss02" horiz-adv-x="458" 
d="M103 -16v68h56q19 0 25 7v12q-38 6 -69 20t-50.5 32t-30.5 32t-17 27v420q7 15 21 31.5t39 36.5t66 33t91 13q80 0 131 -29.5t76 -67.5v-175h-172v96q-8 24 -35 24q-25 0 -35 -24v-296q10 -24 35 -24q27 0 35 24v110h172v-190q-51 -75 -156 -92v-35q-21 -28 -49 -40.5
t-77 -12.5h-56z" />
    <glyph glyph-name="Dcaron.ss02" horiz-adv-x="471" 
d="M20 0v620h93l-43 84v6h99l65 -75l65 75h99v-6l-50 -94q70 -22 106 -88v-425q-53 -97 -172 -97h-262zM202 136h35q25 0 35 24v300q-9 24 -35 24h-35v-348z" />
    <glyph glyph-name="Egrave.ss02" horiz-adv-x="372" 
d="M20 0v630h113l-22 40v40h131l20 -80h93v-136h-153v-105h143v-136h-143v-117h157v-136h-339z" />
    <glyph glyph-name="Eacute.ss02" horiz-adv-x="372" 
d="M20 0v630h104l22 80h131v-40l-25 -40h103v-136h-153v-105h143v-136h-143v-117h157v-136h-339z" />
    <glyph glyph-name="Ecircumflex.ss02" horiz-adv-x="372" 
d="M20 0v630h21l42 80h209l42 -80h21v-136h-153v-105h143v-136h-143v-117h157v-136h-339zM188 674l-34 -44h68z" />
    <glyph glyph-name="Ecaron.ss02" horiz-adv-x="372" 
d="M20 0v630h44l-38 74v6h101l60 -70l60 70h101v-6l-39 -74h46v-136h-153v-105h143v-136h-143v-117h157v-136h-339z" />
    <glyph glyph-name="Edieresis.ss02" horiz-adv-x="362" 
d="M20 0v630h18v56q23 30 66 30q44 0 67 -30v-56h28v56q23 30 67 30q43 0 66 -30v-56h14v-136h-144v-108h135v-136h-135v-114h147v-136h-329z" />
    <glyph glyph-name="Emacron.ss02" horiz-adv-x="362" 
d="M20 0v630h30v80h265v-80h31v-136h-144v-108h135v-136h-135v-114h147v-136h-329z" />
    <glyph glyph-name="Ebreve.ss02" horiz-adv-x="372" 
d="M36 681v29h111v-21q8 -22 41 -22q32 0 40 22v21h112v-29q-14 -30 -36 -51h51v-136h-153v-107h143v-136h-143v-115h157v-136h-339v630h51q-23 22 -35 51z" />
    <glyph glyph-name="Edotaccent.ss02" horiz-adv-x="372" 
d="M20 0v630h82v50q28 36 85 36t85 -36v-50h83v-136h-153v-107h143v-136h-143v-115h157v-136h-339z" />
    <glyph glyph-name="Eogonek.ss02" horiz-adv-x="362" 
d="M20 54v646h326v-136h-144v-111h135v-136h-135v-127h147v-95q-54 -16 -64 -26v-15q6 -4 15 -4h49v-55q-22 -11 -78 -11q-82 0 -118 25v45h-133z" />
    <glyph glyph-name="Gcircumflex.ss02" horiz-adv-x="458" 
d="M234 236v126h207v-282q-67 -96 -207 -96q-50 0 -91 13t-66 33t-39 36.5t-21 31.5v424q21 45 74 78h-31v6l69 104h209l70 -104v-6h-33q43 -27 66 -61v-130h-172v51q-8 24 -35 24q-25 0 -35 -24v-300q10 -24 35 -24q27 0 35 24v76h-35zM234 636q22 0 41 -3l-41 41l-41 -41
q20 3 41 3z" />
    <glyph glyph-name="Gbreve.ss02" horiz-adv-x="458" 
d="M234 236v126h207v-282q-67 -96 -207 -96q-50 0 -91 13t-66 33t-39 36.5t-21 31.5v434q11 23 37 49.5t69 43.5q-27 23 -41 56v29h111v-21q8 -22 41 -22q32 0 40 22v21h112v-29q-15 -33 -41 -56q61 -26 96 -76v-140h-172v61q-8 24 -35 24q-25 0 -35 -24v-310q10 -24 35 -24
q27 0 35 24v76h-35z" />
    <glyph glyph-name="Gdotaccent.ss02" horiz-adv-x="458" 
d="M17 98v434q12 26 44.5 56t87.5 46v46q28 36 85 36t85 -36v-46q78 -22 122 -85v-140h-172v61q-8 24 -35 24q-25 0 -35 -24v-310q10 -24 35 -24q27 0 35 24v76h-35v126h207v-282q-67 -96 -207 -96q-50 0 -91 13t-66 33t-39 36.5t-21 31.5z" />
    <glyph glyph-name="Gcommaaccent.ss02" horiz-adv-x="458" 
d="M102 -16v68h56q19 0 25 7v8q-70 11 -110.5 45t-55.5 66v424q7 15 21 31.5t39 36.5t66 33t91 13q80 0 131 -29.5t76 -67.5v-140h-172v61q-8 24 -35 24q-25 0 -35 -24v-300q10 -24 35 -24q27 0 35 24v66h-35v126h207v-272q-54 -77 -157 -93v-30q-21 -28 -49 -40.5
t-77 -12.5h-56z" />
    <glyph glyph-name="Hcircumflex.ss02" 
d="M20 0v625h67l45 85h209l46 -85h67v-625h-182v262h-70v-262h-182zM202 409h70v215l-35 40l-35 -40v-215z" />
    <glyph glyph-name="Igrave.ss02" horiz-adv-x="222" 
d="M20 0v630h37l-25 40v40h121l15 -80h34v-630h-182z" />
    <glyph glyph-name="Iacute.ss02" horiz-adv-x="222" 
d="M20 0v630h33l16 80h121v-40l-25 -40h37v-630h-182z" />
    <glyph glyph-name="Icircumflex.ss02" horiz-adv-x="222" 
d="M-53 590v6l59 114h209l60 -114v-6h-73v-590h-182v590h-73zM111 664l-39 -44h77z" />
    <glyph glyph-name="Itilde.ss02" horiz-adv-x="222" 
d="M277 710v-52q-4 -27 -24.5 -47.5t-50.5 -25.5v-585h-182v584h-74v51q5 32 31 53.5t65 21.5q33 0 69.5 -23t48.5 -23q16 0 23 17v29h94zM39 614v-10h76q-4 3 -14 9.5l-14 9t-11 5.5t-13 3q-19 0 -24 -17z" />
    <glyph glyph-name="Idieresis.ss02" horiz-adv-x="222" 
d="M-56 606v71q26 33 74 33t74 -33v-57h39v57q26 33 74 33t74 -33v-71q-27 -32 -74 -32h-3v-574h-182v574h-2q-47 0 -74 32z" />
    <glyph glyph-name="Imacron.ss02" horiz-adv-x="222" 
d="M-5 620v90h232v-90h-25v-620h-182v620h-25z" />
    <glyph glyph-name="Ibreve.ss02" horiz-adv-x="222" 
d="M-41 681v29h111v-21q8 -22 41 -22q32 0 40 22v21h112v-29q-20 -46 -61 -70v-611h-182v611q-41 24 -61 70z" />
    <glyph glyph-name="Idotaccent.ss02" horiz-adv-x="222" 
d="M20 0v630h14v48q24 32 77 32t77 -32v-48h14v-630h-182z" />
    <glyph glyph-name="Iogonek.ss02" horiz-adv-x="222" 
d="M20 6v58q14 10 47 19v2h-47v615h182v-615q-63 -7 -74 -16v-15q8 -4 43 -4q21 0 31 2v-57q-22 -11 -76 -11q-76 0 -106 22z" />
    <glyph glyph-name="Jcircumflex.ss02" horiz-adv-x="279" 
d="M9 590v6l59 114h209l60 -114v-6h-73v-492q-20 -41 -73 -69.5t-143 -28.5h-36v136h27q35 0 43 24v430h-73zM173 664l-39 -44h77z" />
    <glyph glyph-name="Kcommaaccent.ss02" horiz-adv-x="444" 
d="M20 76v624h182v-172h12l81 172h137v-117l-106 -177l106 -289v-117h-149l-67 220l-14 -23v-160q-21 -28 -49 -40.5t-77 -12.5h-56v68h56q19 0 25 7v17h-81z" />
    <glyph glyph-name="Lacute.ss02" horiz-adv-x="342" 
d="M20 0v620h26l15 90h141v-40l-44 -50h44v-484h130v-136h-312z" />
    <glyph glyph-name="Lcommaaccent.ss02" horiz-adv-x="342" 
d="M20 84v616h182v-480h130v-136h-98v-47q-21 -28 -49 -40.5t-77 -12.5h-56v68h56q19 0 25 7v25h-113z" />
    <glyph glyph-name="Nacute.ss02" horiz-adv-x="507" 
d="M20 0v650h173l13 60h143v-40l-13 -20h151v-650h-189l-93 289h-13v-289h-172zM294 580h-64l71 -220h14v254z" />
    <glyph glyph-name="Ncaron.ss02" horiz-adv-x="507" 
d="M20 0v650h98l-28 54v6h99l65 -75l65 75h99v-6l-29 -54h98v-650h-189l-93 289h-13v-289h-172zM301 360h14v230h-88z" />
    <glyph glyph-name="Ntilde.ss02" horiz-adv-x="507" 
d="M20 0v650h74q9 26 34 43t59 17q33 0 62.5 -23t41.5 -23q16 0 23 17v29h94v-52l-2 -8h81v-650h-189l-93 289h-13v-289h-172zM312 583q-25 0 -43 10.5t-31.5 22.5t-23.5 14l87 -270h14v223h-3z" />
    <glyph glyph-name="Ncommaaccent.ss02" horiz-adv-x="507" 
d="M20 79v621h188l93 -315h14v315h172v-700h-189l-93 314h-13v-277q-21 -28 -49 -40.5t-77 -12.5h-46v68h56q19 0 25 7v20h-81z" />
    <glyph glyph-name="Ograve.ss02" horiz-adv-x="468" 
d="M17 98v424q8 17 22 34.5t47.5 39.5t75.5 32l-26 42v40h141l15 -79q47 -9 83.5 -32t52 -41.5t23.5 -35.5v-424q-7 -15 -20.5 -31t-38.5 -36.5t-66.5 -33.5t-91.5 -13t-91 13t-66 33t-39 36.5t-21 31.5zM269 160v300q-9 24 -35 24t-35 -24v-300q9 -24 35 -24t35 24z" />
    <glyph glyph-name="Oacute.ss02" horiz-adv-x="468" 
d="M17 98v424q9 18 24 36.5t51.5 41t83.5 31.5l15 79h141v-40l-26 -42q60 -14 95.5 -45.5t49.5 -60.5v-424q-7 -15 -20.5 -31t-38.5 -36.5t-66.5 -33.5t-91.5 -13t-91 13t-66 33t-39 36.5t-21 31.5zM269 160v300q-9 24 -35 24t-35 -24v-300q9 -24 35 -24t35 24z" />
    <glyph glyph-name="Ocircumflex.ss02" horiz-adv-x="468" 
d="M60 590v6l69 114h209l70 -114v-6h-17q43 -32 60 -68v-424q-7 -15 -20.5 -31t-38.5 -36.5t-66.5 -33.5t-91.5 -13t-91 13t-66 33t-39 36.5t-21 31.5v424q17 37 59 68h-16zM269 160v300q-9 24 -35 24t-35 -24v-300q9 -24 35 -24t35 24zM234 636q11 0 33 -2l-33 35l-33 -35
q20 2 33 2z" />
    <glyph glyph-name="Otilde.ss02" horiz-adv-x="468" 
d="M399 710v-52q-5 -32 -31 -54q58 -32 83 -82v-424q-7 -15 -20.5 -31t-38.5 -36.5t-66.5 -33.5t-91.5 -13t-91 13t-66 33t-39 36.5t-21 31.5v424q17 34 51 62v51q5 32 31 53.5t65 21.5q33 0 69.5 -23t48.5 -23q16 0 23 17v29h94zM269 160v300q-9 24 -35 24t-35 -24v-300
q9 -24 35 -24t35 24z" />
    <glyph glyph-name="Odieresis.ss02" horiz-adv-x="468" 
d="M67 612v71q26 33 74 33t74 -33v-42q6 1 19 1t20 -1v42q26 33 74 33t74 -33v-71q-7 -9 -15 -14q46 -31 64 -70v-430q-7 -15 -20.5 -31t-38.5 -36.5t-66.5 -33.5t-91.5 -13t-91 13t-66 33t-39 36.5t-21 31.5v430q17 39 64 71q-10 8 -14 13zM269 160v306q-9 24 -35 24
t-35 -24v-306q9 -24 35 -24t35 24z" />
    <glyph glyph-name="Omacron.ss02" horiz-adv-x="468" 
d="M92 620v90h285v-90h-43q47 -17 76.5 -45.5t40.5 -52.5v-424q-7 -15 -20.5 -31t-38.5 -36.5t-66.5 -33.5t-91.5 -13t-91 13t-66 33t-39 36.5t-21 31.5v424q34 68 117 98h-42zM269 160v300q-9 24 -35 24t-35 -24v-300q9 -24 35 -24t35 24z" />
    <glyph glyph-name="Obreve.ss02" horiz-adv-x="468" 
d="M82 681v29h111v-21q8 -22 41 -22q32 0 40 22v21h112v-29q-15 -33 -41 -56q75 -31 106 -93v-434q-7 -15 -20.5 -31t-38.5 -36.5t-66.5 -33.5t-91.5 -13t-91 13t-66 33t-39 36.5t-21 31.5v434q11 23 37 49.5t69 43.5q-27 23 -41 56zM269 160v310q-9 24 -35 24t-35 -24v-310
q9 -24 35 -24t35 24z" />
    <glyph glyph-name="Ohungarumlaut.ss02" horiz-adv-x="468" 
d="M17 98v424q22 46 73 77l30 111h121v-40l-18 -34h11q15 0 23 -1l20 75h121v-40l-33 -64q59 -31 86 -84v-424q-7 -15 -20.5 -31t-38.5 -36.5t-66.5 -33.5t-91.5 -13t-91 13t-66 33t-39 36.5t-21 31.5zM269 160v300q-9 24 -35 24t-35 -24v-300q9 -24 35 -24t35 24z" />
    <glyph glyph-name="Oslashacute.ss02" horiz-adv-x="468" 
d="M17 0v57l12 20q-11 17 -12 21v424q9 18 24 36.5t51.5 41t83.5 31.5l15 79h141v-40l-26 -42q25 -6 48 -17l24 39h73v-57l-23 -37q14 -17 23 -34v-424q-7 -15 -20.5 -31t-38.5 -36.5t-66.5 -33.5t-91.5 -13q-77 0 -136 32l-9 -16h-72zM269 160v135l-70 -115v-20
q9 -24 35 -24t35 24zM199 460v-105l67 111q-11 18 -32 18q-26 0 -35 -24z" />
    <glyph glyph-name="Racute.ss02" horiz-adv-x="457" 
d="M293 0l-77 221h-14v-221h-182v630h154l16 80h141v-40l-27 -43q43 -7 80.5 -32t57.5 -63v-198q-22 -55 -59 -82l59 -135v-117h-149zM202 361h33q26 0 37 23v87q-12 23 -37 23h-33v-133z" />
    <glyph glyph-name="Rcaron.ss02" horiz-adv-x="457" 
d="M20 0v630h74l-38 74v6h99l65 -65l65 65h99v-6l-45 -86q71 -25 103 -86v-198q-22 -55 -59 -82l59 -135v-117h-149l-77 221h-14v-221h-182zM202 361h33q26 0 37 23v87q-12 23 -37 23h-33v-133z" />
    <glyph glyph-name="Rcommaaccent.ss02" horiz-adv-x="457" 
d="M293 0l-80 256h-11v-219q-21 -28 -49 -40.5t-77 -12.5h-56v68h56q19 0 25 7v17h-81v624h254q49 0 96.5 -26t71.5 -72v-233q-21 -55 -61 -84l61 -168v-117h-149zM202 392h33q26 0 37 23v126q-12 23 -37 23h-33v-172z" />
    <glyph glyph-name="Sacute.ss02" horiz-adv-x="448" 
d="M17 81v114h172v-35q9 -24 35 -24t35 24v43q-5 19 -41 31l-12 4q-91 30 -130.5 60.5t-58.5 69.5v171q19 29 59 56.5t100 36.5l15 78h141v-40l-28 -45q86 -24 127 -86v-109h-172v30q-9 24 -35 24t-35 -24v-30q6 -21 43 -32l13 -4q91 -28 129 -58.5t57 -72.5v-182
q-24 -37 -75 -67t-132 -30q-80 0 -132 30t-75 67z" />
    <glyph glyph-name="Scircumflex.ss02" horiz-adv-x="448" 
d="M50 600v6l69 104h209l70 -104v-6h-33q44 -26 66 -61v-109h-172v30q-9 24 -35 24t-35 -24v-30q6 -21 43 -32l13 -4q91 -28 129 -58.5t57 -72.5v-182q-24 -37 -75 -67t-132 -30q-80 0 -132 30t-75 67v114h172v-35q9 -24 35 -24t35 24v43q-5 19 -41 31l-12 4
q-91 30 -130.5 60.5t-58.5 69.5v171q23 36 66 61h-33zM224 674l-41 -41q20 3 41 3q22 0 41 -3z" />
    <glyph glyph-name="Scaron.ss02" horiz-adv-x="448" 
d="M17 81v114h172v-35q9 -24 35 -24t35 24v43q-5 19 -41 31l-12 4q-91 30 -130.5 60.5t-58.5 69.5v171q30 48 94 75l-45 90v6h99l63 -67l63 67h99v-6l-47 -93q61 -28 88 -72v-109h-172v30q-9 24 -35 24t-35 -24v-30q6 -21 43 -32l13 -4q91 -28 129 -58.5t57 -72.5v-182
q-24 -37 -75 -67t-132 -30q-80 0 -132 30t-75 67z" />
    <glyph glyph-name="Scedilla.ss02" horiz-adv-x="448" 
d="M103 -16v68h58q19 0 25 7v11q-65 7 -107 35.5t-62 59.5v114h172v-35q9 -24 35 -24t35 24v43q-5 19 -41 31l-12 4q-91 30 -130.5 60.5t-58.5 69.5v167q22 36 75 66.5t132 30.5t132 -30.5t75 -66.5v-109h-172v30q-9 24 -35 24t-35 -24v-30q6 -21 43 -32l13 -4
q63 -19 103 -41.5t55.5 -41t27.5 -44.5v-182q-48 -72 -144 -91v-37q-21 -28 -49 -40.5t-77 -12.5h-58z" />
    <glyph glyph-name="Scommaaccent.ss02" horiz-adv-x="448" 
d="M103 -16v68h58q19 0 25 7v11q-65 7 -107 35.5t-62 59.5v114h172v-35q9 -24 35 -24t35 24v43q-5 19 -41 31l-12 4q-91 30 -130.5 60.5t-58.5 69.5v167q22 36 75 66.5t132 30.5t132 -30.5t75 -66.5v-109h-172v30q-9 24 -35 24t-35 -24v-30q6 -21 43 -32l13 -4
q63 -19 103 -41.5t55.5 -41t27.5 -44.5v-182q-48 -72 -144 -91v-37q-21 -28 -49 -40.5t-77 -12.5h-58z" />
    <glyph glyph-name="Tcaron.ss02" horiz-adv-x="400" 
d="M109 0v484h-99v136h69l-43 84v6h99l65 -75l65 75h99v-6l-44 -84h70v-136h-99v-484h-182z" />
    <glyph glyph-name="Tcommaaccent.ss02" horiz-adv-x="400" 
d="M109 76v488h-99v136h380v-136h-99v-488h-41v-39q-21 -28 -49 -40.5t-77 -12.5h-58v68h58q19 0 25 7v17h-40z" />
    <glyph glyph-name="uni021A.ss02" horiz-adv-x="400" 
d="M109 76v488h-99v136h380v-136h-99v-488h-41v-39q-21 -28 -49 -40.5t-77 -12.5h-58v68h58q19 0 25 7v17h-40z" />
    <glyph glyph-name="Ugrave.ss02" 
d="M20 98v552h132l-12 20v40h141l11 -60h162v-552q-7 -15 -20.5 -31t-38.5 -36.5t-66.5 -33.5t-91.5 -13t-91 13t-66 33t-39 36.5t-21 31.5zM237 136q27 0 35 24v420h-70v-420q10 -24 35 -24z" />
    <glyph glyph-name="Uacute.ss02" 
d="M20 98v552h161l12 60h141v-40l-13 -20h133v-552q-7 -15 -21 -31.5t-39 -36.5t-66 -33t-91 -13t-91.5 13t-66.5 33.5t-38.5 36.5t-20.5 31zM237 136q25 0 35 24v420h-70v-420q8 -24 35 -24z" />
    <glyph glyph-name="Ucircumflex.ss02" 
d="M20 98v552h86l26 60h209l26 -60h87v-552q-7 -15 -20.5 -31t-38.5 -36.5t-66.5 -33.5t-91.5 -13t-91 13t-66 33t-39 36.5t-21 31.5zM237 136q27 0 35 24v457l-35 47l-35 -47v-457q10 -24 35 -24z" />
    <glyph glyph-name="Utilde.ss02" 
d="M400 710v-52l-2 -8h56v-552q-7 -15 -20.5 -31t-38.5 -36.5t-66.5 -33.5t-91.5 -13t-91 13t-66 33t-39 36.5t-21 31.5v552h52q9 26 34 43t59 17q33 0 69.5 -23t48.5 -23q16 0 23 17v29h94zM237 136q27 0 35 24v428q-18 5 -42 21t-28 18v-467q10 -24 35 -24z" />
    <glyph glyph-name="Udieresis.ss02" 
d="M20 98v552h56v33q26 33 74 33t74 -33v-71q-8 -9 -22 -18v-434q10 -24 35 -24q27 0 35 24v433q-15 8 -23 19v71q26 33 74 33t74 -33v-33h57v-552q-7 -15 -20.5 -31t-38.5 -36.5t-66.5 -33.5t-91.5 -13t-91 13t-66 33t-39 36.5t-21 31.5z" />
    <glyph glyph-name="Umacron.ss02" 
d="M20 98v552h85v60h265v-60h84v-552q-7 -15 -20.5 -31t-38.5 -36.5t-66.5 -33.5t-91.5 -13t-91 13t-66 33t-39 36.5t-21 31.5zM237 136q27 0 35 24v460h-70v-460q10 -24 35 -24z" />
    <glyph glyph-name="Ubreve.ss02" 
d="M85 681v29h111v-21q8 -22 41 -22q32 0 40 22v21h112v-29q-9 -19 -18 -31h83v-552q-7 -15 -20.5 -31t-38.5 -36.5t-66.5 -33.5t-91.5 -13t-91 13t-66 33t-39 36.5t-21 31.5v552h82q-7 9 -17 31zM237 136q27 0 35 24v432q-22 -2 -35 -2t-35 2v-432q10 -24 35 -24z" />
    <glyph glyph-name="Uring.ss02" 
d="M20 98v552h95v16q35 50 122 50t122 -50v-16h95v-552q-7 -15 -20.5 -31t-38.5 -36.5t-66.5 -33.5t-91.5 -13t-91 13t-66 33t-39 36.5t-21 31.5zM237 510q-24 0 -35 2v-352q10 -24 35 -24q27 0 35 24v352q-11 -2 -35 -2zM182 635v-44q15 -18 55 -18t55 18v44q-15 18 -55 18
t-55 -18z" />
    <glyph glyph-name="Uhungarumlaut.ss02" 
d="M242 580l35 130h121v-40l-10 -20h66v-552q-7 -15 -20.5 -31t-38.5 -36.5t-66.5 -33.5t-91.5 -13t-91 13t-66 33t-39 36.5t-21 31.5v552h84l16 60h121v-40l-39 -77v-433q10 -24 35 -24q27 0 35 24v420h-30z" />
    <glyph glyph-name="Uogonek.ss02" 
d="M20 151v549h182v-487q10 -24 35 -24q27 0 35 24v487h182v-549q-6 -13 -18 -26.5t-22 -21.5l-26 -20t-19 -15v-10q7 -7 22 -7h42v-56q-30 -12 -84 -12q-76 0 -112 25v29q-50 0 -91 13t-66 33t-39 36.5t-21 31.5z" />
    <glyph glyph-name="Wgrave.ss02" horiz-adv-x="736" 
d="M89 0l-72 583v117h174l30 -416h14l43 336h35l-28 50v40h132l16 -90h32l40 -336h14l34 416h166v-117l-72 -583h-229l-43 295h-10l-49 -295h-227z" />
    <glyph glyph-name="Wacute.ss02" horiz-adv-x="736" 
d="M89 0l-72 583v117h174l30 -416h14l44 336h32l16 90h132v-40l-28 -50h34l40 -336h14l34 416h166v-117l-72 -583h-229l-43 295h-14l-45 -295h-227z" />
    <glyph glyph-name="Wcircumflex.ss02" horiz-adv-x="736" 
d="M209 590v6l54 114h209l55 -114v-6h-59l37 -306h14l44 416h156v-117l-72 -583h-229l-43 295h-14l-45 -295h-227l-72 583v117h164l40 -416h14l40 306h-66zM368 664l-39 -44h77z" />
    <glyph glyph-name="Wdieresis.ss02" horiz-adv-x="736" 
d="M212 612v71q26 33 74 33t74 -33v-57h23v57q26 33 74 33t74 -33v-71q-22 -27 -62 -32l36 -296h14l44 416h156v-117l-72 -583h-229l-43 295h-14l-45 -295h-227l-72 583v117h164l40 -416h14l39 296q-39 5 -62 32z" />
    <glyph glyph-name="Ygrave.ss02" horiz-adv-x="449" 
d="M129 0v208l-117 325v117h115l-23 30v30h141l29 -107l11 47h152v-117l-126 -324v-209h-182zM221 428h12l35 152h-82z" />
    <glyph glyph-name="Yacute.ss02" horiz-adv-x="449" 
d="M129 0v208l-117 325v117h158l11 -50l30 110h141v-30l-23 -30h108v-117l-126 -324v-209h-182zM221 428h12l35 152h-82z" />
    <glyph glyph-name="Ycircumflex.ss02" horiz-adv-x="449" 
d="M129 0v208l-117 325v117h76l31 60h209l31 -60h78v-117l-126 -324v-209h-182zM221 428h12l41 178l-50 58l-46 -52z" />
    <glyph glyph-name="Ydieresis.ss02" horiz-adv-x="449" 
d="M129 0v208l-117 325v117h55v33q26 33 74 33t74 -33v-71q-12 -15 -31 -23l37 -161h12l37 160q-20 9 -32 24v71q26 33 74 33t74 -33v-33h51v-117l-126 -324v-209h-182z" />
    <glyph glyph-name="Zacute.ss02" horiz-adv-x="395" 
d="M15 0v132l172 344v18h-171v136h122l23 80h141v-40l-38 -40h116v-132l-174 -343v-19h174v-136h-365z" />
    <glyph glyph-name="Zcaron.ss02" horiz-adv-x="395" 
d="M15 0v132l172 344v18h-171v136h63l-39 74v6h99l65 -75l65 75h99v-6l-39 -74h51v-132l-174 -343v-19h174v-136h-365z" />
    <glyph glyph-name="Zdotaccent.ss02" horiz-adv-x="395" 
d="M15 0v132l172 344v18h-171v136h96v50q28 36 85 36t85 -36v-50h98v-132l-174 -343v-19h174v-136h-365z" />
    <glyph glyph-name="Eng.ss02" horiz-adv-x="525" 
d="M20 0v700h202l89 -279h18v279h176v-616q-50 -100 -210 -100q-22 0 -34 2v123q10 -2 25 -2t25 8l-98 234h-17v-349h-176z" />
    <glyph glyph-name="agrave.ss02" horiz-adv-x="482" 
d="M297 0l-16 147h-90l-18 -147h-161v117l89 513h53l36 -63h134l-12 63h69l89 -513v-117h-173zM198 580l-56 100v30h141l25 -130h-110zM231 456l-22 -173h57l-19 173h-16z" />
    <glyph glyph-name="aacute.ss02" horiz-adv-x="482" 
d="M297 0l-16 147h-90l-18 -147h-161v117l89 513h72l-12 -63h134l36 63h50l89 -513v-117h-173zM177 580l25 130h141v-30l-56 -100h-110zM231 456l-22 -173h57l-19 173h-16z" />
    <glyph glyph-name="acircumflex.ss02" horiz-adv-x="482" 
d="M12 0v117l80 460h91l58 65l58 -65h91l80 -460v-117h-173l-16 147h-89l-19 -147h-161zM77 590v6l59 114h209l60 -114v-6h-99l-65 74l-65 -74h-99zM209 283h57l-19 173h-16z" />
    <glyph glyph-name="atilde.ss02" horiz-adv-x="482" 
d="M470 117v-117h-173l-16 147h-89l-19 -147h-161v117l79 454h89v39q3 7 12 7q6 0 43.5 -23.5t73.5 -23.5q50 0 78 28zM209 283h57l-19 173h-16zM405 710v-52q-5 -32 -31.5 -53.5t-64.5 -21.5q-34 0 -70 24t-48 24q-20 0 -24 -15v-32h-93v51q5 32 31 53.5t65 21.5
q33 0 69.5 -23t48.5 -23q16 0 23 17v29h94z" />
    <glyph glyph-name="adieresis.ss02" horiz-adv-x="482" 
d="M12 0v117l80 463q22 -13 53 -13q26 0 50.5 11t36.5 27v31h19v-31q12 -16 36.5 -27t50.5 -11q33 0 52 13l80 -463v-117h-173l-16 147h-89l-19 -147h-161zM71 612v71q26 33 74 33t74 -33v-71q-27 -32 -74 -32t-74 32zM264 612v71q26 33 74 33t74 -33v-71q-27 -32 -74 -32
t-74 32zM209 283h57l-19 173h-16z" />
    <glyph glyph-name="amacron.ss02" horiz-adv-x="482" 
d="M12 0v117l85 490h288l85 -490v-117h-173l-16 147h-89l-19 -147h-161zM209 283h57l-19 173h-16zM79 620v90h325v-90h-325z" />
    <glyph glyph-name="abreve.ss02" horiz-adv-x="482" 
d="M12 0v117l89 513h18q43 -52 122 -52q80 0 121 52h19l89 -513v-117h-173l-16 147h-89l-19 -147h-161zM209 283h57l-19 173h-16zM103 682v28h101v-20q8 -22 37 -22q28 0 36 22v20h101v-28q-35 -91 -137 -91q-101 0 -138 91z" />
    <glyph glyph-name="aring.ss02" horiz-adv-x="482" 
d="M12 0v117l89 519h15v-66q39 -55 125 -55t125 55v66h15l89 -519v-117h-173l-17 147h-88l-19 -147h-161zM129 575v94q34 47 112 47t112 -47v-94q-34 -47 -112 -47t-112 47zM188 646v-48q15 -19 53 -19t53 19v48q-15 19 -53 19t-53 -19zM231 436l-21 -153h54l-17 153h-16z
" />
    <glyph glyph-name="aogonek.ss02" horiz-adv-x="482" 
d="M12 0v117l92 583h274l92 -583v-16q-52 -12 -69 -26v-15q8 -4 38 -4q21 0 31 2v-58q-28 -10 -87 -10q-67 0 -85 10l-17 167h-89l-19 -167h-161zM207 303h60l-20 203h-16z" />
    <glyph glyph-name="aeacute.ss02" horiz-adv-x="609" 
d="M12 0v117l108 513h163l-17 -63h147l41 63h139v-136h-144v-109h135v-136h-135v-113h147v-136h-329v142h-71l-23 -142h-161zM285 580l35 130h141v-40l-56 -90h-120zM218 278h49v216h-14z" />
    <glyph glyph-name="cacute.ss02" horiz-adv-x="458" 
d="M17 98v424q42 84 154 108l-17 -63h144l33 53q41 -15 69.5 -38t40.5 -43v-170h-172v91q-8 24 -35 24q-25 0 -35 -24v-300q10 -24 35 -24q27 0 35 24v105h172v-185q-68 -96 -207 -96q-50 0 -91 13t-66 33t-39 36.5t-21 31.5zM171 580l35 130h138v-40l-53 -90h-120z" />
    <glyph glyph-name="ccircumflex.ss02" horiz-adv-x="458" 
d="M60 600v6l69 104h209l70 -104v-6h-99l-75 74l-75 -74h-99zM17 98v424q17 36 56 65h92l50 48h38l50 -48h92q33 -23 46 -48v-170h-172v91q-8 24 -35 24q-25 0 -35 -24v-300q10 -24 35 -24q27 0 35 24v105h172v-185q-67 -96 -207 -96q-50 0 -91 13t-66 33t-39 36.5t-21 31.5
z" />
    <glyph glyph-name="ccaron.ss02" horiz-adv-x="458" 
d="M17 98v424q26 57 94 88l18 -33h225l15 28q44 -24 72 -66v-170h-172v91q-8 24 -35 24q-25 0 -35 -24v-300q10 -24 35 -24q27 0 35 24v105h172v-185q-67 -96 -207 -96q-50 0 -91 13t-66 33t-39 36.5t-21 31.5zM137 590l-59 114v6h99l65 -75l65 75h99v-6l-60 -114h-209z" />
    <glyph glyph-name="cdotaccent.ss02" horiz-adv-x="458" 
d="M17 98v430q11 25 40 53.5t80 45.5v-23q32 -41 98 -41t98 41v23q72 -25 108 -82v-170h-172v91q-8 24 -35 24q-25 0 -35 -24v-306q10 -24 35 -24q27 0 35 24v105h172v-185q-67 -96 -207 -96q-50 0 -91 13t-66 33t-39 36.5t-21 31.5zM150 611v69q28 36 85 36t85 -36v-69
q-28 -35 -85 -35t-85 35z" />
    <glyph glyph-name="ccedilla.ss02" horiz-adv-x="458" 
d="M103 -16v68h56q19 0 25 7v12q-38 6 -69 20t-50.5 32t-30.5 32t-17 27v420q7 15 21 31.5t39 36.5t66 33t91 13q80 0 131 -29.5t76 -67.5v-175h-172v96q-8 24 -35 24q-25 0 -35 -24v-296q10 -24 35 -24q27 0 35 24v110h172v-190q-51 -75 -156 -92v-35q-21 -28 -49 -40.5
t-77 -12.5h-56z" />
    <glyph glyph-name="dcaron.ss02" horiz-adv-x="471" 
d="M20 0v620h76l22 -43h227l16 29q61 -23 93 -84v-425q-53 -97 -172 -97h-262zM202 136h35q25 0 35 24v300q-9 24 -35 24h-35v-348zM128 590l-59 114v6h99l65 -75l65 75h99v-6l-60 -114h-209z" />
    <glyph glyph-name="egrave.ss02" horiz-adv-x="372" 
d="M20 0v630h80l40 -63h133l-11 63h93v-136h-153v-105h143v-136h-143v-117h157v-136h-339zM148 580l-56 90v40h141l25 -130h-110z" />
    <glyph glyph-name="eacute.ss02" horiz-adv-x="372" 
d="M20 0v630h97l-11 -63h133l40 63h76v-136h-153v-105h143v-136h-143v-117h157v-136h-339zM121 580l25 130h141v-40l-56 -90h-110z" />
    <glyph glyph-name="ecircumflex.ss02" horiz-adv-x="372" 
d="M20 0v577h110l57 65l57 -65h111v-93h-153v-100h143v-136h-143v-112h157v-136h-339zM23 590v6l59 114h209l60 -114v-6h-99l-65 74l-65 -74h-99z" />
    <glyph glyph-name="ecaron.ss02" horiz-adv-x="372" 
d="M20 0v630h29l28 -54h225l28 54h25v-146h-153v-100h143v-136h-143v-112h157v-136h-339zM85 590l-59 114v6h99l65 -75l65 75h99v-6l-60 -114h-209z" />
    <glyph glyph-name="edieresis.ss02" horiz-adv-x="372" 
d="M20 0v593q29 -26 72 -26q54 0 85 36v33h21v-33q31 -36 85 -36q41 0 72 26v-93h-153v-108h143v-136h-143v-120h157v-136h-339zM20 611v72q26 33 72 33t72 -33v-72q-26 -31 -72 -31t-72 31zM211 611v72q26 33 72 33t72 -33v-72q-26 -31 -72 -31t-72 31z" />
    <glyph glyph-name="emacron.ss02" horiz-adv-x="362" 
d="M20 0v630h37v-23h251v23h38v-136h-144v-105h135v-136h-135v-117h147v-136h-329zM70 620v90h225v-90h-225z" />
    <glyph glyph-name="ebreve.ss02" horiz-adv-x="372" 
d="M20 0v635h26q48 -61 142 -61q96 0 143 61h24v-136h-153v-105h143v-136h-143v-122h157v-136h-339zM36 678v29h111v-21q8 -22 41 -22q32 0 40 22v21h112v-29q-40 -91 -152 -91t-152 91z" />
    <glyph glyph-name="edotaccent.ss02" horiz-adv-x="372" 
d="M20 0v636h70v-32q31 -41 98 -41q66 0 98 42v31h69v-136h-153v-106h143v-136h-143v-122h157v-136h-339zM103 611v69q28 36 85 36t85 -36v-69q-28 -35 -85 -35t-85 35z" />
    <glyph glyph-name="eogonek.ss02" horiz-adv-x="362" 
d="M20 54v646h326v-136h-144v-111h135v-136h-135v-127h147v-95q-54 -16 -64 -26v-15q6 -4 15 -4h49v-55q-22 -11 -78 -11q-82 0 -118 25v45h-133z" />
    <glyph glyph-name="gcircumflex.ss02" horiz-adv-x="458" 
d="M17 98v424q16 33 56 65h92l46 45h45l47 -45h92q34 -25 46 -48v-130h-172v51q-8 24 -35 24q-25 0 -35 -24v-300q10 -24 35 -24q27 0 35 24v76h-35v126h207v-282q-67 -96 -207 -96q-50 0 -91 13t-66 33t-39 36.5t-21 31.5zM60 600v6l69 104h209l70 -104v-6h-99l-75 74
l-75 -74h-99z" />
    <glyph glyph-name="gbreve.ss02" horiz-adv-x="458" 
d="M17 98v432q28 56 93 88q46 -41 124 -41q77 0 123 41q56 -27 84 -71v-130h-172v51q-8 24 -35 24q-25 0 -35 -24v-308q10 -24 35 -24q27 0 35 24v76h-35v134h207v-290q-67 -96 -207 -96q-50 0 -91 13t-66 33t-39 36.5t-21 31.5zM82 681v29h111v-21q8 -22 41 -22q32 0 40 22
v21h112v-29q-40 -91 -152 -91t-152 91z" />
    <glyph glyph-name="gdotaccent.ss02" horiz-adv-x="458" 
d="M17 98v430q33 69 119 99v-23q30 -41 98 -41q66 0 98 41v23q70 -24 109 -82v-130h-172v51q-8 24 -35 24q-25 0 -35 -24v-306q10 -24 35 -24q27 0 35 24v76h-35v132h207v-288q-67 -96 -207 -96q-50 0 -91 13t-66 33t-39 36.5t-21 31.5zM149 611v69q28 36 85 36t85 -36v-69
q-28 -35 -85 -35t-85 35z" />
    <glyph glyph-name="gcommaaccent.ss02" horiz-adv-x="458" 
d="M102 -16v68h56q19 0 25 7v8q-70 11 -110.5 45t-55.5 66v424q7 15 21 31.5t39 36.5t66 33t91 13q80 0 131 -29.5t76 -67.5v-140h-172v61q-8 24 -35 24q-25 0 -35 -24v-300q10 -24 35 -24q27 0 35 24v66h-35v126h207v-272q-54 -77 -157 -93v-30q-21 -28 -49 -40.5
t-77 -12.5h-56z" />
    <glyph glyph-name="hcircumflex.ss02" 
d="M20 0v625h53l-26 -48h131l24 27v-195h70v195l24 -27h130l-25 48h53v-625h-182v262h-70v-262h-182zM70 590l62 120h209l63 -120h-102l-65 74l-65 -74h-102z" />
    <glyph glyph-name="igrave.ss02" horiz-adv-x="222" 
d="M20 0v630h16l33 -62h114l-7 62h26v-630h-182zM77 580l-46 90v40h123l15 -130h-92z" />
    <glyph glyph-name="iacute.ss02" horiz-adv-x="222" 
d="M20 0v630h26l-7 -62h114l33 62h16v-630h-182zM53 580l15 130h123v-40l-46 -90h-92z" />
    <glyph glyph-name="icircumflex.ss02" horiz-adv-x="222" 
d="M20 0v576h33l58 66l58 -66h33v-576h-182zM-53 590v6l59 114h209l60 -114v-6h-99l-65 74l-65 -74h-99z" />
    <glyph glyph-name="itilde.ss02" horiz-adv-x="222" 
d="M202 572v-572h-182v571h31v41q3 6 12 6q8 0 24.5 -12t40.5 -24t52 -12q10 0 22 2zM276 710v-52q-5 -32 -31.5 -53.5t-64.5 -21.5q-34 0 -70 24t-48 24q-21 0 -24 -17v-30h-93v51q5 32 31 53.5t65 21.5q33 0 69.5 -23t48.5 -23q16 0 23 17v29h94z" />
    <glyph glyph-name="idieresis.ss02" horiz-adv-x="222" 
d="M20 0v567h12q47 0 78 31q33 -31 79 -31h13v-567h-182zM118 612v71q26 33 72 33t72 -33v-71q-27 -32 -72 -32t-72 32zM-41 612v71q26 33 72 33t72 -33v-71q-27 -32 -72 -32t-72 32z" />
    <glyph glyph-name="imacron.ss02" horiz-adv-x="222" 
d="M20 0v607h182v-607h-182zM-5 620v90h232v-90h-232z" />
    <glyph glyph-name="ibreve.ss02" horiz-adv-x="222" 
d="M20 0v597q37 -20 92 -20q54 0 90 20v-597h-182zM-41 681v29h111v-21q8 -22 41 -22q32 0 40 22v21h112v-29q-40 -91 -152 -91t-152 91z" />
    <glyph glyph-name="iogonek.ss02" horiz-adv-x="222" 
d="M20 6v58q14 10 47 19v2h-47v615h182v-615q-63 -7 -74 -16v-15q8 -4 43 -4q21 0 31 2v-57q-22 -11 -76 -11q-76 0 -106 22z" />
    <glyph glyph-name="jcircumflex.ss02" horiz-adv-x="279" 
d="M12 0v136h27q35 0 43 24v417h33l58 66l59 -66h32v-479q-20 -41 -73 -69.5t-143 -28.5h-36zM9 590v6l59 114h209l60 -114v-6h-99l-65 74l-65 -74h-99z" />
    <glyph glyph-name="kcommaaccent.ss02" horiz-adv-x="444" 
d="M20 76v624h182v-172h12l81 172h137v-117l-106 -177l106 -289v-117h-149l-67 220l-14 -23v-160q-21 -28 -49 -40.5t-77 -12.5h-56v68h56q19 0 25 7v17h-81z" />
    <glyph glyph-name="lacute.ss02" horiz-adv-x="342" 
d="M20 0v630h26l-7 -62h114l33 62h16v-494h130v-136h-312zM53 580l15 130h123v-40l-46 -90h-92z" />
    <glyph glyph-name="lcommaaccent.ss02" horiz-adv-x="342" 
d="M20 84v616h182v-480h130v-136h-98v-47q-21 -28 -49 -40.5t-77 -12.5h-56v68h56q19 0 25 7v25h-113z" />
    <glyph glyph-name="nacute.ss02" horiz-adv-x="507" 
d="M20 0v650h159l-17 -83h72l67 -207h14v219l41 71h131v-650h-189l-93 289h-13v-289h-172zM180 580l28 130h143v-40l-51 -90h-120z" />
    <glyph glyph-name="ncaron.ss02" horiz-adv-x="507" 
d="M20 0v650h81l37 -73h93l70 -217h14v217h51l37 73h84v-650h-189l-93 289h-13v-289h-172zM148 590l-59 114v6h99l65 -75l65 75h99v-6l-60 -114h-209z" />
    <glyph glyph-name="ntilde.ss02" horiz-adv-x="507" 
d="M487 650v-650h-189l-93 289h-13v-289h-172v650h66v-79h119v41q3 6 11 6q5 0 7 -2l78 -256h14v211q96 0 114 79h58zM416 710v-52q-5 -32 -31.5 -53.5t-64.5 -21.5q-34 0 -63 24t-41 24q-19 0 -24 -17v-30h-93v51q2 14 7 25q26 50 89 50q33 0 62.5 -23t41.5 -23q16 0 23 17
v29h94z" />
    <glyph glyph-name="ncommaaccent.ss02" horiz-adv-x="507" 
d="M20 79v621h188l93 -315h14v315h172v-700h-189l-93 314h-13v-277q-21 -28 -49 -40.5t-77 -12.5h-46v68h56q19 0 25 7v20h-81z" />
    <glyph glyph-name="ograve.ss02" horiz-adv-x="468" 
d="M17 98v424q36 72 122 100l29 -55h144l-10 61q107 -22 149 -106v-424q-7 -15 -21 -31.5t-39 -36.5t-66 -33t-91 -13t-91.5 13t-66.5 33.5t-38.5 36.5t-20.5 31zM177 580l-46 90v40h141l25 -130h-120zM269 160v300q-9 24 -35 24t-35 -24v-300q9 -24 35 -24t35 24z" />
    <glyph glyph-name="oacute.ss02" horiz-adv-x="468" 
d="M17 98v424q42 84 149 106l-10 -61h144l29 55q86 -27 122 -100v-424q-7 -15 -20.5 -31t-38.5 -36.5t-66.5 -33.5t-91.5 -13t-91 13t-66 33t-39 36.5t-21 31.5zM171 580l25 130h141v-40l-46 -90h-120zM269 160v300q-9 24 -35 24t-35 -24v-300q9 -24 35 -24t35 24z" />
    <glyph glyph-name="ocircumflex.ss02" horiz-adv-x="468" 
d="M17 98v424q17 36 56 65h92l47 45h43l48 -45h91q40 -28 57 -65v-424q-7 -15 -20.5 -31t-38.5 -36.5t-66.5 -33.5t-91.5 -13t-91 13t-66 33t-39 36.5t-21 31.5zM60 600v6l69 104h209l70 -104v-6h-99l-75 74l-75 -74h-99zM269 160v300q-9 24 -35 24t-35 -24v-300
q9 -24 35 -24t35 24z" />
    <glyph glyph-name="otilde.ss02" horiz-adv-x="468" 
d="M451 522v-424q-7 -15 -21 -31.5t-39 -36.5t-66 -33t-91 -13t-91.5 13t-66.5 33.5t-38.5 36.5t-20.5 31v424q19 37 35 49h123v40q5 6 12 6q8 0 43.5 -23.5t73.5 -23.5q48 0 80 27q45 -29 67 -75zM400 710v-52q-5 -32 -31.5 -53.5t-64.5 -21.5q-34 0 -70 24t-48 24
q-19 0 -24 -16v-31h-95v51q5 32 32 53.5t66 21.5q33 0 69.5 -23t48.5 -23q16 0 23 17v29h94zM199 460v-300q9 -24 35 -24t35 24v300q-9 24 -35 24t-35 -24z" />
    <glyph glyph-name="odieresis.ss02" horiz-adv-x="468" 
d="M17 98v430q18 35 52 62q30 -23 72 -23q55 0 86 38v37h15v-37q31 -38 86 -38q41 0 71 23q34 -25 52 -62v-430q-7 -15 -20.5 -31t-38.5 -36.5t-66.5 -33.5t-91.5 -13t-91 13t-66 33t-39 36.5t-21 31.5zM269 160v306q-9 24 -35 24t-35 -24v-306q9 -24 35 -24t35 24zM255 612
v71q26 33 73 33t73 -33v-71q-27 -32 -73 -32t-73 32zM68 612v71q26 33 73 33t73 -33v-71q-27 -32 -73 -32t-73 32z" />
    <glyph glyph-name="omacron.ss02" horiz-adv-x="468" 
d="M17 98v424q26 54 89 85h256q64 -33 89 -85v-424q-7 -15 -20.5 -31t-38.5 -36.5t-66.5 -33.5t-91.5 -13t-91 13t-66 33t-39 36.5t-21 31.5zM92 620v90h285v-90h-285zM269 160v300q-9 24 -35 24t-35 -24v-300q9 -24 35 -24t35 24z" />
    <glyph glyph-name="obreve.ss02" horiz-adv-x="468" 
d="M17 98v429q28 56 93 88q45 -40 124 -40q78 0 124 40q69 -34 93 -88v-429q-7 -15 -20.5 -31t-38.5 -36.5t-66.5 -33.5t-91.5 -13t-91 13t-66 33t-39 36.5t-21 31.5zM82 679v29h111v-21q8 -22 41 -22q32 0 40 22v21h112v-29q-40 -91 -152 -91t-152 91zM269 160v305
q-9 24 -35 24t-35 -24v-305q9 -24 35 -24t35 24z" />
    <glyph glyph-name="ohungarumlaut.ss02" horiz-adv-x="468" 
d="M17 98v424q22 46 74 78l-10 -33h129l35 68h12l-19 -68h128l15 30q48 -31 70 -75v-424q-7 -15 -20.5 -31t-38.5 -36.5t-66.5 -33.5t-91.5 -13t-91 13t-66 33t-39 36.5t-21 31.5zM98 580l35 130h115v-40l-46 -90h-104zM255 580l35 130h115v-40l-46 -90h-104zM269 160v300
q-9 24 -35 24t-35 -24v-300q9 -24 35 -24t35 24z" />
    <glyph glyph-name="oslashacute.ss02" horiz-adv-x="468" 
d="M17 98v424q42 84 149 106l-10 -61h144l29 55l26 -10l23 38h73v-57l-23 -37q13 -14 23 -34v-424q-7 -15 -20.5 -31t-38.5 -36.5t-66.5 -33.5t-91.5 -13q-77 0 -136 32l-9 -16h-72v57l12 20q-11 17 -12 21zM171 580l25 130h141v-40l-46 -90h-120zM269 160v135l-70 -115v-20
q9 -24 35 -24t35 24zM199 460v-105l67 111q-11 18 -32 18q-26 0 -35 -24z" />
    <glyph glyph-name="racute.ss02" horiz-adv-x="457" 
d="M20 0v630h138l-16 -62h146l35 55q83 -24 119 -91v-198q-21 -55 -59 -82l59 -135v-117h-149l-76 221h-15v-221h-182zM202 361h33q26 0 37 23v87q-12 23 -37 23h-33v-133zM160 581l35 129h141v-40l-56 -89h-120z" />
    <glyph glyph-name="rcaron.ss02" horiz-adv-x="457" 
d="M20 0v630h59l28 -53h224l21 37q65 -32 90 -82v-198q-21 -56 -59 -82l59 -135v-117h-149l-76 221h-15v-221h-182zM202 361h33q26 0 37 23v87q-12 23 -37 23h-33v-133zM115 590l-59 114v6h99l65 -75l65 75h99v-6l-60 -114h-209z" />
    <glyph glyph-name="rcommaaccent.ss02" horiz-adv-x="457" 
d="M293 0l-80 256h-11v-219q-21 -28 -49 -40.5t-77 -12.5h-56v68h56q19 0 25 7v17h-81v624h254q49 0 96.5 -26t71.5 -72v-233q-21 -55 -61 -84l61 -168v-117h-149zM202 392h33q26 0 37 23v126q-12 23 -37 23h-33v-172z" />
    <glyph glyph-name="sacute.ss02" horiz-adv-x="448" 
d="M17 81v114h172v-35q9 -24 35 -24t35 24v43q-5 19 -41 31l-12 4q-91 30 -130.5 60.5t-58.5 69.5v171q17 27 54 53.5t94 38.5l-16 -64h144l33 51q69 -25 105 -79v-109h-172v30q-9 24 -35 24t-35 -24v-30q6 -21 43 -32l13 -4q91 -28 129 -58.5t57 -72.5v-182
q-24 -37 -75 -67t-132 -30q-80 0 -132 30t-75 67zM166 580l35 130h141v-40l-56 -90h-120z" />
    <glyph glyph-name="scircumflex.ss02" horiz-adv-x="448" 
d="M17 81v114h172v-35q9 -24 35 -24t35 24v43q-5 19 -41 31l-12 4q-91 30 -130.5 60.5t-58.5 69.5v171q15 25 46 48h93l46 45h42l48 -45h93q30 -22 46 -48v-109h-172v30q-9 24 -35 24t-35 -24v-30q6 -21 43 -32l13 -4q91 -28 129 -58.5t57 -72.5v-182q-24 -37 -75 -67
t-132 -30q-80 0 -132 30t-75 67zM50 600v6l69 104h209l70 -104v-6h-99l-75 74l-75 -74h-99z" />
    <glyph glyph-name="scaron.ss02" horiz-adv-x="448" 
d="M17 81v114h172v-35q9 -24 35 -24t35 24v43q-5 19 -41 31l-12 4q-91 30 -130.5 60.5t-58.5 69.5v171q24 41 77 67l16 -29h226l17 30q50 -25 78 -68v-109h-172v30q-9 24 -35 24t-35 -24v-30q6 -21 43 -32l13 -4q91 -28 129 -58.5t57 -72.5v-182q-24 -37 -75 -67t-132 -30
q-80 0 -132 30t-75 67zM119 590l-57 114v6h99l63 -67l63 67h99v-6l-58 -114h-209z" />
    <glyph glyph-name="scedilla.ss02" horiz-adv-x="448" 
d="M103 -16v68h58q19 0 25 7v11q-65 7 -107 35.5t-62 59.5v114h172v-35q9 -24 35 -24t35 24v43q-5 19 -41 31l-12 4q-91 30 -130.5 60.5t-58.5 69.5v167q22 36 75 66.5t132 30.5t132 -30.5t75 -66.5v-109h-172v30q-9 24 -35 24t-35 -24v-30q6 -21 43 -32l13 -4
q63 -19 103 -41.5t55.5 -41t27.5 -44.5v-182q-48 -72 -144 -91v-37q-21 -28 -49 -40.5t-77 -12.5h-58z" />
    <glyph glyph-name="scommaaccent.ss02" horiz-adv-x="448" 
d="M103 -16v68h58q19 0 25 7v11q-65 7 -107 35.5t-62 59.5v114h172v-35q9 -24 35 -24t35 24v43q-5 19 -41 31l-12 4q-91 30 -130.5 60.5t-58.5 69.5v167q22 36 75 66.5t132 30.5t132 -30.5t75 -66.5v-109h-172v30q-9 24 -35 24t-35 -24v-30q6 -21 43 -32l13 -4
q63 -19 103 -41.5t55.5 -41t27.5 -44.5v-182q-48 -72 -144 -91v-37q-21 -28 -49 -40.5t-77 -12.5h-58z" />
    <glyph glyph-name="tcaron.ss02" horiz-adv-x="400" 
d="M109 0v494h-99v136h49l29 -53h224l28 53h50v-136h-99v-494h-182zM95 590l-59 114v6h99l65 -75l65 75h99v-6l-60 -114h-209z" />
    <glyph glyph-name="tcommaaccent.ss02" horiz-adv-x="400" 
d="M109 76v488h-99v136h380v-136h-99v-488h-41v-39q-21 -28 -49 -40.5t-77 -12.5h-58v68h58q19 0 25 7v17h-40z" />
    <glyph glyph-name="uni021B.ss02" horiz-adv-x="400" 
d="M109 76v488h-99v136h380v-136h-99v-488h-41v-39q-21 -28 -49 -40.5t-77 -12.5h-58v68h58q19 0 25 7v17h-40z" />
    <glyph glyph-name="ugrave.ss02" 
d="M20 98v552h106l46 -83h30v-407q8 -24 35 -24q25 0 35 24v407h47l-22 83h157v-552q-7 -15 -21 -31.5t-39 -36.5t-66 -33t-91 -13t-91.5 13t-66.5 33.5t-38.5 36.5t-20.5 31zM181 580l-56 100v30h141l35 -130h-120z" />
    <glyph glyph-name="uacute.ss02" 
d="M20 98v552h157l-22 -83h47v-407q10 -24 35 -24q27 0 35 24v407h30l46 83h106v-552q-7 -15 -20.5 -31t-38.5 -36.5t-66.5 -33.5t-91.5 -13t-91 13t-66 33t-39 36.5t-21 31.5zM173 580l35 130h141v-30l-56 -100h-120z" />
    <glyph glyph-name="ucircumflex.ss02" 
d="M20 98v552h85l-27 -73h124v-417q10 -24 35 -24q27 0 35 24v417h123l-26 73h85v-552q-7 -15 -20.5 -31t-38.5 -36.5t-66.5 -33.5t-91.5 -13t-91 13t-66 33t-39 36.5t-21 31.5zM98 590l44 120h189l45 -120h-104l-35 74l-35 -74h-104z" />
    <glyph glyph-name="utilde.ss02" 
d="M454 650v-552q-7 -15 -21 -31.5t-39 -36.5t-66 -33t-91 -13t-91.5 13t-66.5 33.5t-38.5 36.5t-20.5 31v552h39v-89h119v41q4 7 12 7q7 0 12 -4v-445q8 -24 35 -24q25 0 35 24v404q15 -4 36 -4q37 0 68.5 20.5t39.5 57.5v12h38zM403 700v-52q-5 -32 -31.5 -53.5
t-64.5 -21.5q-34 0 -70 24t-48 24q-19 0 -24 -16v-31h-93v51q5 32 31 53.5t65 21.5q33 0 69.5 -23t48.5 -23q16 0 23 17v29h94z" />
    <glyph glyph-name="udieresis.ss02" 
d="M20 98v552h41v-46q32 -37 87 -37q30 0 54 11v-418q10 -24 35 -24q27 0 35 24v417q21 -10 53 -10q55 0 87 37v46h42v-552q-7 -15 -20.5 -31t-38.5 -36.5t-66.5 -33.5t-91.5 -13t-91 13t-66 33t-39 36.5t-21 31.5zM74 612v71q26 33 74 33t74 -33v-71q-27 -32 -74 -32
t-74 32zM251 612v71q26 33 74 33t74 -33v-71q-27 -32 -74 -32t-74 32z" />
    <glyph glyph-name="umacron.ss02" 
d="M20 98v552h72v-43h110v-447q10 -24 35 -24q27 0 35 24v447h110v43h72v-552q-7 -15 -20.5 -31t-38.5 -36.5t-66.5 -33.5t-91.5 -13t-91 13t-66 33t-39 36.5t-21 31.5zM105 620v90h265v-90h-265z" />
    <glyph glyph-name="ubreve.ss02" 
d="M20 98v552h65q34 -58 117 -71v-419q10 -24 35 -24q27 0 35 24v419q83 13 117 71h65v-552q-7 -15 -20.5 -31t-38.5 -36.5t-66.5 -33.5t-91.5 -13t-91 13t-66 33t-39 36.5t-21 31.5zM85 681v29h111v-21q8 -22 41 -22q32 0 40 22v21h112v-29q-40 -91 -152 -91t-152 91z" />
    <glyph glyph-name="uring.ss02" 
d="M20 98v552h82v-95q31 -44 100 -55v-340q10 -24 35 -24q27 0 35 24v340q69 11 100 55v95h82v-552q-7 -15 -20.5 -31t-38.5 -36.5t-66.5 -33.5t-91.5 -13t-91 13t-66 33t-39 36.5t-21 31.5zM115 562v102q37 52 122 52t122 -52v-102q-37 -52 -122 -52t-122 52zM182 635v-44
q15 -18 55 -18t55 18v44q-15 18 -55 18t-55 -18z" />
    <glyph glyph-name="uhungarumlaut.ss02" 
d="M20 98v552h75l-21 -73h128v-417q10 -24 35 -24q27 0 35 24v417h95l42 73h45v-552q-7 -15 -20.5 -31t-38.5 -36.5t-66.5 -33.5t-91.5 -13t-91 13t-66 33t-39 36.5t-21 31.5zM92 590l35 120h121v-40l-46 -80h-110zM249 590l35 120h121v-40l-46 -80h-110z" />
    <glyph glyph-name="uogonek.ss02" 
d="M20 152v548h182v-486q10 -24 35 -24q27 0 35 24v486h182v-548q-6 -13 -18 -26.5t-22 -21.5l-26 -20t-19 -15v-10q7 -7 22 -7h42v-56q-30 -12 -84 -12q-76 0 -112 25v29q-50 0 -91 13t-66 33t-39 36.5t-21 31.5z" />
    <glyph glyph-name="wgrave.ss02" horiz-adv-x="736" 
d="M89 0l-72 583v117h174l30 -416h14l41 336h23l29 -53h119l-10 53h31l37 -336h14l34 416h166v-117l-72 -583h-229l-43 295h-14l-45 -295h-227zM336 580l-46 90v40h116l25 -130h-95z" />
    <glyph glyph-name="wacute.ss02" horiz-adv-x="736" 
d="M89 0l-72 583v117h174l30 -416h14l41 336h31l-10 -53h119l29 53h23l37 -336h14l34 416h166v-117l-72 -583h-229l-43 295h-14l-45 -295h-227zM313 580l25 130h116v-40l-46 -90h-95z" />
    <glyph glyph-name="wcircumflex.ss02" horiz-adv-x="736" 
d="M89 0l-72 583v117h169l35 -416h14l37 283h41l58 65l59 -65h41l34 -283h14l39 416h161v-117l-72 -583h-229l-43 295h-14l-45 -295h-227zM217 580v6l49 124h209l50 -124v-6h-89l-65 74l-64 -74h-90z" />
    <glyph glyph-name="wdieresis.ss02" horiz-adv-x="736" 
d="M89 0l-72 583v117h169l35 -416h14l37 284q9 -1 15 -1q55 0 85 32q29 -32 84 -32q10 0 15 1l34 -284h14l39 416h161v-117l-72 -583h-229l-43 295h-14l-45 -295h-227zM217 612v71q26 33 74 33t74 -33v-71q-27 -32 -74 -32t-74 32zM379 612v71q26 33 74 33t74 -33v-71
q-27 -32 -74 -32t-74 32z" />
    <glyph glyph-name="ygrave.ss02" horiz-adv-x="449" 
d="M129 0v208l-117 325v117h90l55 -83h32l32 -139h12l32 139h38l-21 83h155v-117l-126 -324v-209h-182zM165 580l-56 90v40h141l35 -130h-120z" />
    <glyph glyph-name="yacute.ss02" horiz-adv-x="449" 
d="M129 0v209l-117 324v117h160l-21 -83h38l32 -139h12l32 139h33l52 83h87v-117l-126 -325v-208h-182zM169 580l35 130h141v-40l-56 -90h-120z" />
    <glyph glyph-name="ycircumflex.ss02" horiz-adv-x="449" 
d="M129 0v208l-117 325v117h71l-30 -73h134l34 -149h12l35 149h132l-29 73h66v-117l-126 -324v-209h-182zM74 590l48 120h209l49 -120h-101l-52 74l-52 -74h-101z" />
    <glyph glyph-name="ydieresis.ss02" horiz-adv-x="449" 
d="M129 0v208l-117 325v117h41v-45q12 -16 35.5 -27t50.5 -11q33 0 50 10l32 -149h12l32 147q14 -8 45 -8q57 0 86 38v45h41v-117l-126 -324v-209h-182zM66 612v71q26 33 74 33t74 -33v-71q-27 -32 -74 -32t-74 32zM235 612v71q26 33 74 33t74 -33v-71q-27 -32 -74 -32
t-74 32z" />
    <glyph glyph-name="zacute.ss02" horiz-adv-x="395" 
d="M15 0v132l172 344v18h-171v136h121l-15 -63h145l41 63h72v-132l-174 -343v-19h174v-136h-365zM139 580l35 130h141v-40l-56 -90h-120z" />
    <glyph glyph-name="zcaron.ss02" horiz-adv-x="395" 
d="M15 0v132l172 344v18h-171v136h41l27 -53h226l28 53h42v-132l-174 -343v-19h174v-136h-365zM93 590l-59 114v6h99l65 -75l65 75h99v-6l-60 -114h-209z" />
    <glyph glyph-name="zdotaccent.ss02" horiz-adv-x="395" 
d="M15 0v132l172 344v18h-171v136h82v-27q31 -40 98 -40q66 0 98 40v27h86v-132l-174 -343v-19h174v-136h-365zM111 611v69q28 36 85 36t85 -36v-69q-28 -35 -85 -35t-85 35z" />
    <glyph glyph-name="eng.ss02" horiz-adv-x="525" 
d="M20 0v700h202l89 -279h18v279h176v-616q-50 -100 -210 -100q-22 0 -34 2v123q10 -2 25 -2t25 8l-98 234h-17v-349h-176z" />
    <glyph glyph-name="Aring.ss03" horiz-adv-x="482" 
d="M297 0l-17 162h-88l-19 -162h-161v117l89 563h26q5 36 35 58t78 22q47 0 76.5 -22t34.5 -58h30l89 -563v-117h-173zM186 668q0 -43 54 -43q53 0 53 43q0 42 -53 42q-54 0 -54 -42zM231 476l-22 -178h56l-18 178h-16z" />
    <glyph glyph-name="Adieresis.ss03" horiz-adv-x="482" 
d="M258 691q0 29 20.5 49t50.5 20t50.5 -20t20.5 -49q0 -25 -14 -42l84 -532v-117h-173l-17 167h-88l-19 -167h-161v117l84 532q-14 17 -14 42q0 29 20.5 49t50.5 20t50.5 -20t20.5 -49q0 -2 -0.5 -6t-0.5 -5h36q-1 3 -1 11zM231 506l-24 -203h60l-20 203h-16z" />
    <glyph glyph-name="Odieresis.ss03" horiz-adv-x="468" 
d="M251 691q0 29 20.5 49t50.5 20t50.5 -20t20.5 -49q0 -23 -15 -43q50 -30 73 -76v-474q-7 -15 -20.5 -31t-38.5 -36.5t-66.5 -33.5t-91.5 -13t-91 13t-66 33t-39 36.5t-21 31.5v474q21 44 72 76q-14 19 -14 43q0 29 20.5 49t50.5 20t50.5 -20t20.5 -49v-6q5 1 17 1
q11 0 17 -1v6zM269 160v350q-8 24 -35 24q-25 0 -35 -24v-350q10 -24 35 -24q27 0 35 24z" />
    <glyph glyph-name="Udieresis.ss03" 
d="M20 98v602h64q4 26 24 43t47 17q30 0 50.5 -20t20.5 -49q0 -32 -24 -53v-478q10 -24 35 -24q27 0 35 24v478q-24 21 -24 53q0 29 20.5 49t50.5 20q28 0 47.5 -17t22.5 -43h65v-602q-7 -15 -20.5 -31t-38.5 -36.5t-66.5 -33.5t-91.5 -13t-91 13t-66 33t-39 36.5t-21 31.5z
" />
    <glyph glyph-name="aring.ss03" horiz-adv-x="482" 
d="M12 0v117l89 563h27q-1 -4 -1 -12q0 -45 31.5 -75.5t81.5 -30.5t82 30.5t32 75.5q0 2 -0.5 6t-0.5 6h28l89 -563v-117h-173l-17 162h-88l-19 -162h-161zM208 298h58l-19 178h-16zM139 668q0 39 28.5 65.5t72.5 26.5t72.5 -26.5t28.5 -65.5q0 -40 -28.5 -66.5t-72.5 -26.5
t-72.5 26.5t-28.5 66.5zM191 668q0 -20 13 -33.5t36 -13.5t36 13.5t13 33.5t-13 32.5t-36 12.5t-36 -12.5t-13 -32.5z" />
    <glyph glyph-name="adieresis.ss03" horiz-adv-x="482" 
d="M12 0v117l81 515q25 -23 60 -23q32 0 55.5 20t27.5 51h9q5 -31 28.5 -51t55.5 -20q34 0 59 23l82 -515v-117h-173l-17 167h-88l-19 -167h-161zM208 303h59l-20 203h-16zM82 691q0 29 20.5 49t50.5 20t50.5 -20t20.5 -49t-20.5 -49t-50.5 -20t-50.5 20t-20.5 49zM258 691
q0 29 20.5 49t50.5 20t50.5 -20t20.5 -49t-20.5 -49t-50.5 -20t-50.5 20t-20.5 49z" />
    <glyph glyph-name="odieresis.ss03" horiz-adv-x="468" 
d="M17 98v474q18 38 62 69q25 -32 67 -32q34 0 58 22t26 55h8q2 -33 26 -55t58 -22q43 0 67 32q44 -31 62 -69v-474q-7 -15 -20.5 -31t-38.5 -36.5t-66.5 -33.5t-91.5 -13t-91 13t-66 33t-39 36.5t-21 31.5zM269 160v350q-8 24 -35 24q-25 0 -35 -24v-350q10 -24 35 -24
q27 0 35 24zM75 691q0 29 20.5 49t50.5 20t50.5 -20t20.5 -49t-20.5 -49t-50.5 -20t-50.5 20t-20.5 49zM251 691q0 29 20.5 49t50.5 20t50.5 -20t20.5 -49t-20.5 -49t-50.5 -20t-50.5 20t-20.5 49z" />
    <glyph glyph-name="udieresis.ss03" 
d="M20 98v602h51v-9q0 -34 24.5 -58t59.5 -24q27 0 47 14v-463q10 -24 35 -24q27 0 35 24v463q20 -14 47 -14q35 0 59.5 24t24.5 58q0 6 -1 9h52v-602q-7 -15 -20.5 -31t-38.5 -36.5t-66.5 -33.5t-91.5 -13t-91 13t-66 33t-39 36.5t-21 31.5zM84 691q0 29 20.5 49t50.5 20
t50.5 -20t20.5 -49t-20.5 -49t-50.5 -20t-50.5 20t-20.5 49zM248 691q0 29 20.5 49t50.5 20t50.5 -20t20.5 -49t-20.5 -49t-50.5 -20t-50.5 20t-20.5 49z" />
    <glyph glyph-name="Aring.ss04" horiz-adv-x="482" 
d="M12 0v117l89 519h26q5 36 35 58t78 22q47 0 76.5 -22t34.5 -58h30l89 -519v-117h-173l-18 157h-86l-20 -157h-161zM186 624q0 -43 54 -43q53 0 53 43q0 42 -53 42q-54 0 -54 -42zM211 293h53l-17 149h-16z" />
    <glyph glyph-name="Adieresis.ss04" horiz-adv-x="482" 
d="M258 647q0 29 20.5 49t50.5 20t50.5 -20t20.5 -49q0 -23 -14 -42l84 -488v-117h-173l-18 157h-85l-21 -157h-161v117l84 488q-14 19 -14 42q0 29 20.5 49t50.5 20t50.5 -20t20.5 -49q0 -2 -0.5 -6t-0.5 -5h36q-1 3 -1 11zM210 293h55l-18 169h-16z" />
    <glyph glyph-name="Odieresis.ss04" horiz-adv-x="468" 
d="M251 647q0 29 20.5 49t50.5 20t50.5 -20t20.5 -49q0 -23 -15 -43q50 -30 73 -76v-429q-7 -15 -20.5 -31t-38.5 -36.5t-66.5 -33.5t-91.5 -13t-91 13t-66 33t-39 36.5t-21 31.5v429q21 44 72 76q-14 19 -14 43q0 29 20.5 49t50.5 20t50.5 -20t20.5 -49v-6q5 1 17 1
q11 0 17 -1v6zM269 161v305q-8 24 -35 24q-25 0 -35 -24v-305q10 -24 35 -24q27 0 35 24z" />
    <glyph glyph-name="Udieresis.ss04" 
d="M248 647q0 29 20.5 49t50.5 20q28 0 47.5 -17t22.5 -43h65v-558q-7 -15 -20.5 -31t-38.5 -36.5t-66.5 -33.5t-91.5 -13t-91 13t-66 33t-39 36.5t-21 31.5v558h64q4 26 24 43t47 17q30 0 50.5 -20t20.5 -49q0 -32 -24 -53v-434q10 -24 35 -24q27 0 35 24v434
q-24 21 -24 53z" />
    <glyph glyph-name="aring.ss04" horiz-adv-x="482" 
d="M12 0v117l89 519h27q-1 -4 -1 -12q0 -45 31.5 -75.5t81.5 -30.5t82 30.5t32 75.5q0 2 -0.5 6t-0.5 6h28l89 -519v-117h-173l-18 157h-86l-20 -157h-161zM211 293h53l-17 139h-16zM139 624q0 39 28.5 65.5t72.5 26.5t72.5 -26.5t28.5 -65.5q0 -40 -28.5 -66.5t-72.5 -26.5
t-72.5 26.5t-28.5 66.5zM191 624q0 -20 13 -33.5t36 -13.5t36 13.5t13 33.5t-13 32.5t-36 12.5t-36 -12.5t-13 -32.5z" />
    <glyph glyph-name="adieresis.ss04" horiz-adv-x="482" 
d="M12 0v117l81 472q24 -24 60 -24q32 0 55.5 20t27.5 51h9q5 -31 28.5 -51t55.5 -20q36 0 60 24l81 -472v-117h-173l-18 157h-85l-21 -157h-161zM209 293h56l-18 169h-16zM82 647q0 29 20.5 49t50.5 20t50.5 -20t20.5 -49t-20.5 -49t-50.5 -20t-50.5 20t-20.5 49zM258 647
q0 29 20.5 49t50.5 20t50.5 -20t20.5 -49t-20.5 -49t-50.5 -20t-50.5 20t-20.5 49z" />
    <glyph glyph-name="odieresis.ss04" horiz-adv-x="468" 
d="M17 98v430q18 38 62 69q25 -32 67 -32q34 0 58 22t26 55h8q2 -33 26 -55t58 -22q43 0 67 32q44 -31 62 -69v-430q-7 -15 -20.5 -31t-38.5 -36.5t-66.5 -33.5t-91.5 -13t-91 13t-66 33t-39 36.5t-21 31.5zM269 160v306q-8 24 -35 24q-25 0 -35 -24v-306q10 -24 35 -24
q27 0 35 24zM75 647q0 29 20.5 49t50.5 20t50.5 -20t20.5 -49t-20.5 -49t-50.5 -20t-50.5 20t-20.5 49zM251 647q0 29 20.5 49t50.5 20t50.5 -20t20.5 -49t-20.5 -49t-50.5 -20t-50.5 20t-20.5 49z" />
    <glyph glyph-name="udieresis.ss04" 
d="M20 98v558h51v-9q0 -34 24.5 -58t59.5 -24q27 0 47 14v-419q10 -24 35 -24q27 0 35 24v419q20 -14 47 -14q35 0 59.5 24t24.5 58q0 6 -1 9h52v-558q-7 -15 -20.5 -31t-38.5 -36.5t-66.5 -33.5t-91.5 -13t-91 13t-66 33t-39 36.5t-21 31.5zM84 647q0 29 20.5 49t50.5 20
t50.5 -20t20.5 -49t-20.5 -49t-50.5 -20t-50.5 20t-20.5 49zM248 647q0 29 20.5 49t50.5 20t50.5 -20t20.5 -49t-20.5 -49t-50.5 -20t-50.5 20t-20.5 49z" />
    <glyph glyph-name="Aring.ss05" horiz-adv-x="482" 
d="M12 0v117l89 542h27q-1 -4 -1 -12q0 -47 31 -76.5t82 -29.5t82.5 30t31.5 76q0 8 -1 12h28l89 -542v-117h-173l-16 147h-90l-18 -147h-161zM140 647q0 39 28 65.5t72 26.5t72.5 -26.5t28.5 -65.5q0 -40 -28.5 -66.5t-72.5 -26.5t-72 26.5t-28 66.5zM231 465l-23 -182h58
l-19 182h-16z" />
    <glyph glyph-name="Adieresis.ss05" horiz-adv-x="482" 
d="M12 0v117l83 470h292l83 -470v-117h-173l-17 147h-88l-19 -147h-161zM50 600v100h382v-100h-382zM231 446l-22 -163h56l-18 163h-16z" />
    <glyph glyph-name="Odieresis.ss05" horiz-adv-x="468" 
d="M17 98v414q19 41 69 75h296q49 -34 69 -75v-414q-7 -15 -20.5 -31t-38.5 -36.5t-66.5 -33.5t-91.5 -13t-91 13t-66 33t-39 36.5t-21 31.5zM269 160v290q-8 24 -35 24q-25 0 -35 -24v-290q10 -24 35 -24q27 0 35 24zM47 600v100h375v-100h-375z" />
    <glyph glyph-name="Udieresis.ss05" 
d="M20 98v489h182v-427q10 -24 35 -24q27 0 35 24v427h182v-489q-7 -15 -20.5 -31t-38.5 -36.5t-66.5 -33.5t-91.5 -13t-91 13t-66 33t-39 36.5t-21 31.5zM47 600v100h375v-100h-375z" />
    <glyph glyph-name="aring.ss05" horiz-adv-x="482" 
d="M155 647q0 -34 24.5 -58t59.5 -24t59.5 24t24.5 58q0 31 -20 53h75l92 -583v-117h-173l-17 167h-88l-19 -167h-161v117l92 583h70q-19 -22 -19 -53zM207 303h60l-20 203h-16zM168 647q0 29 20.5 49t50.5 20t50.5 -20t20.5 -49t-20.5 -49t-50.5 -20t-50.5 20t-20.5 49z
" />
    <glyph glyph-name="adieresis.ss05" horiz-adv-x="482" 
d="M304 647q0 -34 24.5 -58t59.5 -24h11l71 -448v-117h-173l-17 167h-88l-19 -167h-161v117l71 448h11q35 0 59.5 24t24.5 58q0 31 -20 53h165q-19 -22 -19 -53zM207 303h60l-20 203h-16zM23 647q0 29 20.5 49t50.5 20t50.5 -20t20.5 -49t-20.5 -49t-50.5 -20t-50.5 20
t-20.5 49zM317 647q0 29 20.5 49t50.5 20t50.5 -20t20.5 -49t-20.5 -49t-50.5 -20t-50.5 20t-20.5 49z" />
    <glyph glyph-name="odieresis.ss05" horiz-adv-x="468" 
d="M17 98v499q24 -32 67 -32q35 0 59.5 24t24.5 58q0 33 -23 56q41 13 89 13q47 0 88 -13q-22 -22 -22 -56t24.5 -58t59.5 -24q43 0 67 32v-499q-7 -15 -20.5 -31t-38.5 -36.5t-66.5 -33.5t-91.5 -13t-91 13t-66 33t-39 36.5t-21 31.5zM269 160v380q-9 24 -35 24t-35 -24
v-380q9 -24 35 -24t35 24zM13 647q0 29 20.5 49t50.5 20t50.5 -20t20.5 -49t-20.5 -49t-50.5 -20t-50.5 20t-20.5 49zM313 647q0 29 20.5 49t50.5 20t50.5 -20t20.5 -49t-20.5 -49t-50.5 -20t-50.5 20t-20.5 49z" />
    <glyph glyph-name="udieresis.ss05" 
d="M20 98v495q25 -28 64 -28q35 0 59.5 24t24.5 58q0 31 -20 53h54v-540q10 -24 35 -24q27 0 35 24v540h53q-19 -22 -19 -53q0 -34 24.5 -58t59.5 -24q38 0 64 28v-495q-7 -15 -20.5 -31t-38.5 -36.5t-66.5 -33.5t-91.5 -13t-91 13t-66 33t-39 36.5t-21 31.5zM13 647
q0 29 20.5 49t50.5 20t50.5 -20t20.5 -49t-20.5 -49t-50.5 -20t-50.5 20t-20.5 49zM319 647q0 29 20.5 49t50.5 20t50.5 -20t20.5 -49t-20.5 -49t-50.5 -20t-50.5 20t-20.5 49z" />
    <glyph glyph-name="colon_hyphen" horiz-adv-x="407" 
d="M12 33v100q25 42 85 42q34 0 56.5 -13t29.5 -29v-100q-7 -16 -29.5 -29t-56.5 -13q-60 0 -85 42zM12 425v100q25 42 85 42q34 0 56.5 -13t29.5 -29v-100q-7 -16 -29.5 -29t-56.5 -13q-60 0 -85 42zM195 199v160h200v-160h-200z" />
    <glyph glyph-name="comma_hyphen" horiz-adv-x="407" 
d="M27 -70v69h46q10 0 19 7.5t12 18.5v8h-7q-60 0 -85 42v85q25 42 85 42q34 0 56.5 -13t29.5 -29v-151q-7 -26 -36.5 -52.5t-71.5 -26.5h-48zM195 227v160h200v-160h-200z" />
    </font>
</defs>
</svg>
