<?xml version="1.0" encoding="utf-8"?>
<!-- Generator: Adobe Illustrator 24.0.2, SVG Export Plug-In . SVG Version: 6.00 Build 0)  -->
<svg version="1.1" id="Ebene_1" xmlns="http://www.w3.org/2000/svg" xmlns:xlink="http://www.w3.org/1999/xlink" x="0px" y="0px"
	 viewBox="0 0 80 114" style="enable-background:new 0 0 80 114;" xml:space="preserve">
<style type="text/css">
	.st0{fill:#222222;}
	.st1{fill:#FFFFFF;}
</style>
<g>
	<g>
		<path class="st0" d="M59.2,78.9c0,0-5.7-3.3-9.8-3.3c-1.4,0-9.4-0.3-9.4-0.3s-8,0.3-9.4,0.3c-4.1,0-9.8,3.3-9.8,3.3l1.3-6.5
			l-11.2-9.6l0.7,25.7L29.3,103H40h10.7l17.7-14.5l0.7-25.8l-11.2,9.7L59.2,78.9z M46.6,93l-2.4-6l4-1.3L40,85.9l-8.2-0.2l4,1.3
			l-2.4,6l-7.3-5l3.6-6.8C32.5,82,40,82,40,82s7.5,0,10.3-0.8l3.6,6.8L46.6,93z"/>
		<path class="st0" d="M66.3,50.6c0,0-3.3-4.9-6.7-4.9c0,0-10.6,0.2-14.6,0.2l0,14l2.3-9.9c3.9-0.6,8.4-0.6,12.6-0.8
			C63.1,49,65.6,49.9,66.3,50.6z"/>
		<path class="st0" d="M35,50.4v-4.5c-4,0-14.6-0.2-14.6-0.2c-3.5,0-6.6,4.9-6.6,4.9c0.7-0.7,3.2-1.6,6.4-1.4
			C25.2,49.4,31,49.4,35,50.4z"/>
		<path class="st0" d="M40,10.1c-14.4,0-30.3,7.3-30.3,7.3l1,35.2l2.1-13.3l2.9,0.5l2.6-16.5L40,24.7l21.9-1.4l2.6,16.5l2.9-0.5
			l2.1,13.3l1-35.2C70.3,17.3,54.4,10.1,40,10.1z"/>
	</g>
	<g>
		<path class="st0" d="M27,52.6c-1.7,0-3,1.3-3,3c0,1.7,1.3,3,3,3s3-1.3,3-3C30,53.9,28.6,52.6,27,52.6z M27.8,55.1
			c-0.5,0-0.8-0.4-0.8-0.8s0.4-0.8,0.8-0.8s0.8,0.4,0.8,0.8S28.3,55.1,27.8,55.1z"/>
		<path class="st0" d="M53,52.6c-1.7,0-3,1.3-3,3s1.3,3,3,3s3-1.3,3-3S54.7,52.6,53,52.6z M53.8,55.1c-0.5,0-0.8-0.4-0.8-0.8
			s0.4-0.8,0.8-0.8s0.8,0.4,0.8,0.8S54.2,55.1,53.8,55.1z"/>
	</g>
</g>
<path class="st1" d="M-48.4,9.9v40.2h31.5l15.5,17.3V50.1h6V9.9H-48.4z M-9.5,31.6h-10.5V42h-3.4V31.6h-10.5v-3.4h10.5V17.7h3.4
	c0,5.6,0,10.5,0,10.5h10.5V31.6z"/>
</svg>
