<?xml version="1.0" encoding="utf-8"?>
<!-- Generator: Adobe Illustrator 24.0.2, SVG Export Plug-In . SVG Version: 6.00 Build 0)  -->
<svg version="1.1" id="Layer_1" xmlns="http://www.w3.org/2000/svg" xmlns:xlink="http://www.w3.org/1999/xlink" x="0px" y="0px"
	 viewBox="0 0 200 200" style="enable-background:new 0 0 200 200;" xml:space="preserve">
<style type="text/css">
	.st0{fill:#FFFFFF;}
</style>
<symbol  id="New_Symbol" viewBox="-1 -1 2 2">
	<circle class="st0" cx="0" cy="0" r="1"/>
</symbol>
<use xlink:href="#New_Symbol"  width="2" height="2" x="-1" y="-1" transform="matrix(0.1829 8.081812e-02 8.081812e-02 -0.1829 7.408 66.6917)" style="overflow:visible;"/>
<use xlink:href="#New_Symbol"  width="2" height="2" x="-1" y="-1" transform="matrix(-6.800056e-02 0.1881 0.1881 6.800240e-02 110.9277 176.4942)" style="overflow:visible;"/>
<use xlink:href="#New_Symbol"  width="2" height="2" x="-1" y="-1" transform="matrix(-0.1811 8.495834e-02 8.495834e-02 0.1811 14.4953 11.3688)" style="overflow:visible;"/>
<use xlink:href="#New_Symbol"  width="2" height="2" x="-1" y="-1" transform="matrix(9.876953e-02 0.1739 0.1739 -9.876953e-02 10.2608 15.3347)" style="overflow:visible;"/>
<use xlink:href="#New_Symbol"  width="2" height="2" x="-1" y="-1" transform="matrix(-0.1185 0.1611 0.1611 0.1185 171.9809 54.2844)" style="overflow:visible;"/>
<use xlink:href="#New_Symbol"  width="2" height="2" x="-1" y="-1" transform="matrix(0.1065 0.1693 0.1693 -0.1065 54.4602 105.6649)" style="overflow:visible;"/>
<use xlink:href="#New_Symbol"  width="2" height="2" x="-1" y="-1" transform="matrix(0.1972 3.349295e-02 3.349295e-02 -0.1972 177.3576 106.5985)" style="overflow:visible;"/>
<use xlink:href="#New_Symbol"  width="2" height="2" x="-1" y="-1" transform="matrix(-0.1311 0.151 0.151 0.1311 101.2216 94.1644)" style="overflow:visible;"/>
<use xlink:href="#New_Symbol"  width="2" height="2" x="-1" y="-1" transform="matrix(-0.1746 9.760822e-02 9.760822e-02 0.1746 201.474 13.4254)" style="overflow:visible;"/>
<use xlink:href="#New_Symbol"  width="2" height="2" x="-1" y="-1" transform="matrix(3.826397e-02 -0.1963 -0.1963 -3.826397e-02 17.7058 143.9227)" style="overflow:visible;"/>
<use xlink:href="#New_Symbol"  width="2" height="2" x="-1" y="-1" transform="matrix(-0.1991 1.870610e-02 1.870610e-02 0.1991 336.9325 80.8561)" style="overflow:visible;"/>
<use xlink:href="#New_Symbol"  width="2" height="2" x="-1" y="-1" transform="matrix(0.196 3.987169e-02 3.987169e-02 -0.196 133.5068 140.5244)" style="overflow:visible;"/>
<use xlink:href="#New_Symbol"  width="2" height="2" x="-1" y="-1" transform="matrix(2.140089e-03 -0.2 -0.2 -2.140089e-03 119.862 30.084)" style="overflow:visible;"/>
<use xlink:href="#New_Symbol"  width="2" height="2" x="-1" y="-1" transform="matrix(0.1613 -0.1182 -0.1182 -0.1613 31.7108 43.8525)" style="overflow:visible;"/>
<use xlink:href="#New_Symbol"  width="2" height="2" x="-1" y="-1" transform="matrix(-8.458480e-02 0.1812 0.1812 8.458480e-02 180.2962 44.7619)" style="overflow:visible;"/>
<use xlink:href="#New_Symbol"  width="2" height="2" x="-1" y="-1" transform="matrix(0.1162 0.1628 0.1628 -0.1162 107.419 -2.0475)" style="overflow:visible;"/>
<use xlink:href="#New_Symbol"  width="2" height="2" x="-1" y="-1" transform="matrix(-0.1821 -8.272788e-02 -8.272788e-02 0.1821 65.4566 168.3603)" style="overflow:visible;"/>
<use xlink:href="#New_Symbol"  width="2" height="2" x="-1" y="-1" transform="matrix(0.1971 -3.389326e-02 -3.389326e-02 -0.1971 190.5963 177.8379)" style="overflow:visible;"/>
<use xlink:href="#New_Symbol"  width="2" height="2" x="-1" y="-1" transform="matrix(-0.1827 8.141010e-02 8.141010e-02 0.1827 73.2508 122.78)" style="overflow:visible;"/>
<use xlink:href="#New_Symbol"  width="2" height="2" x="-1" y="-1" transform="matrix(0.1203 0.1598 0.1598 -0.1203 106.6078 85.0357)" style="overflow:visible;"/>
<use xlink:href="#New_Symbol"  width="2" height="2" x="-1" y="-1" transform="matrix(6.819403e-02 -0.188 -0.188 -6.819407e-02 147.0343 114.1044)" style="overflow:visible;"/>
<use xlink:href="#New_Symbol"  width="2" height="2" x="-1" y="-1" transform="matrix(7.694593e-02 0.1846 0.1846 -7.694592e-02 108.1918 130.8911)" style="overflow:visible;"/>
<use xlink:href="#New_Symbol"  width="2" height="2" x="-1" y="-1" transform="matrix(0.1572 0.1237 0.1237 -0.1572 128.8315 173.2722)" style="overflow:visible;"/>
<use xlink:href="#New_Symbol"  width="2" height="2" x="-1" y="-1" transform="matrix(-9.112552e-02 0.178 0.178 9.112553e-02 108.4741 191.3345)" style="overflow:visible;"/>
<use xlink:href="#New_Symbol"  width="2" height="2" x="-1" y="-1" transform="matrix(0.1501 0.1322 0.1322 -0.1501 70.6275 41.6641)" style="overflow:visible;"/>
<use xlink:href="#New_Symbol"  width="2" height="2" x="-1" y="-1" transform="matrix(-0.1819 8.304635e-02 8.304638e-02 0.1819 36.8422 154.8366)" style="overflow:visible;"/>
<use xlink:href="#New_Symbol"  width="2" height="2" x="-1" y="-1" transform="matrix(-0.1923 5.484663e-02 5.484756e-02 0.1923 99.1684 174.5888)" style="overflow:visible;"/>
<use xlink:href="#New_Symbol"  width="2" height="2" x="-1" y="-1" transform="matrix(0.1856 -7.460243e-02 -7.460247e-02 -0.1856 194.8751 111.7423)" style="overflow:visible;"/>
<use xlink:href="#New_Symbol"  width="2" height="2" x="-1" y="-1" transform="matrix(0.1172 -0.162 -0.162 -0.1172 54.7189 195.6499)" style="overflow:visible;"/>
<use xlink:href="#New_Symbol"  width="2" height="2" x="-1" y="-1" transform="matrix(6.217590e-02 0.1901 0.1901 -6.217589e-02 80.0224 101.3068)" style="overflow:visible;"/>
<use xlink:href="#New_Symbol"  width="2" height="2" x="-1" y="-1" transform="matrix(-0.1641 -0.1143 -0.1143 0.1641 162.0234 47.7923)" style="overflow:visible;"/>
<use xlink:href="#New_Symbol"  width="2" height="2" x="-1" y="-1" transform="matrix(-0.1474 0.1352 0.1352 0.1474 185.0603 94.2094)" style="overflow:visible;"/>
<use xlink:href="#New_Symbol"  width="2" height="2" x="-1" y="-1" transform="matrix(-0.196 -3.985886e-02 -3.985887e-02 0.196 81.3615 168.2259)" style="overflow:visible;"/>
<use xlink:href="#New_Symbol"  width="2" height="2" x="-1" y="-1" transform="matrix(0.1509 -0.1313 -0.1313 -0.1509 165.2059 -4.0664)" style="overflow:visible;"/>
<use xlink:href="#New_Symbol"  width="2" height="2" x="-1" y="-1" transform="matrix(0.1668 -0.1103 -0.1103 -0.1668 118.1134 59.4992)" style="overflow:visible;"/>
<use xlink:href="#New_Symbol"  width="2" height="2" x="-1" y="-1" transform="matrix(0.1222 0.1583 0.1583 -0.1222 110.6837 151.8406)" style="overflow:visible;"/>
<use xlink:href="#New_Symbol"  width="2" height="2" x="-1" y="-1" transform="matrix(-0.1739 9.885262e-02 9.885262e-02 0.1739 193.0532 147.3342)" style="overflow:visible;"/>
<use xlink:href="#New_Symbol"  width="2" height="2" x="-1" y="-1" transform="matrix(-0.1696 -0.106 -0.106 0.1696 22.6748 191.5061)" style="overflow:visible;"/>
<use xlink:href="#New_Symbol"  width="2" height="2" x="-1" y="-1" transform="matrix(0.1797 8.779557e-02 8.779557e-02 -0.1797 94.4946 32.9599)" style="overflow:visible;"/>
<use xlink:href="#New_Symbol"  width="2" height="2" x="-1" y="-1" transform="matrix(3.128846e-02 -0.1971 -0.1975 -3.123375e-02 116.5107 134.9072)" style="overflow:visible;"/>
<use xlink:href="#New_Symbol"  width="2" height="2" x="-1" y="-1" transform="matrix(-0.1048 0.1704 0.1704 0.1048 53.7637 137.4431)" style="overflow:visible;"/>
<use xlink:href="#New_Symbol"  width="2" height="2" x="-1" y="-1" transform="matrix(-0.1857 7.428739e-02 7.428739e-02 0.1857 88.0501 179.86)" style="overflow:visible;"/>
<use xlink:href="#New_Symbol"  width="2" height="2" x="-1" y="-1" transform="matrix(-0.2 3.294471e-03 3.294480e-03 0.2 23.6834 61.3253)" style="overflow:visible;"/>
<use xlink:href="#New_Symbol"  width="2" height="2" x="-1" y="-1" transform="matrix(0.1121 0.1656 0.1656 -0.1121 196.7947 61.3959)" style="overflow:visible;"/>
<use xlink:href="#New_Symbol"  width="2" height="2" x="-1" y="-1" transform="matrix(-0.1871 7.068689e-02 7.068692e-02 0.1871 100.0694 114.4615)" style="overflow:visible;"/>
<use xlink:href="#New_Symbol"  width="2" height="2" x="-1" y="-1" transform="matrix(-0.1597 -0.1204 -0.1204 0.1597 9.6995 103.5801)" style="overflow:visible;"/>
<use xlink:href="#New_Symbol"  width="2" height="2" x="-1" y="-1" transform="matrix(-8.613758e-02 -0.1805 -0.1805 8.613758e-02 53.5588 75.2943)" style="overflow:visible;"/>
<use xlink:href="#New_Symbol"  width="2" height="2" x="-1" y="-1" transform="matrix(4.950394e-02 0.1938 0.1938 -4.950394e-02 149.2837 181.3585)" style="overflow:visible;"/>
<use xlink:href="#New_Symbol"  width="2" height="2" x="-1" y="-1" transform="matrix(-0.1936 5.025659e-02 5.025659e-02 0.1936 154.7993 31.3858)" style="overflow:visible;"/>
<use xlink:href="#New_Symbol"  width="2" height="2" x="-1" y="-1" transform="matrix(8.150239e-02 0.1826 0.1826 -8.150239e-02 162.3573 155.5031)" style="overflow:visible;"/>
<use xlink:href="#New_Symbol"  width="2" height="2" x="-1" y="-1" transform="matrix(-6.983311e-02 -0.187 -0.1874 6.971098e-02 174.0097 9.8616)" style="overflow:visible;"/>
<use xlink:href="#New_Symbol"  width="2" height="2" x="-1" y="-1" transform="matrix(0.1964 3.755733e-02 3.755734e-02 -0.1964 130.7679 119.8327)" style="overflow:visible;"/>
<use xlink:href="#New_Symbol"  width="2" height="2" x="-1" y="-1" transform="matrix(-0.1995 -1.386710e-02 -1.386708e-02 0.1995 144.226 4.6238)" style="overflow:visible;"/>
<use xlink:href="#New_Symbol"  width="2" height="2" x="-1" y="-1" transform="matrix(-0.1438 -0.139 -0.139 0.1438 72.3601 140.3702)" style="overflow:visible;"/>
<use xlink:href="#New_Symbol"  width="2" height="2" x="-1" y="-1" transform="matrix(-0.181 -8.501688e-02 -8.501686e-02 0.181 140.688 35.7344)" style="overflow:visible;"/>
<use xlink:href="#New_Symbol"  width="2" height="2" x="-1" y="-1" transform="matrix(-0.1992 1.799290e-02 1.799289e-02 0.1992 127.804 -11.4808)" style="overflow:visible;"/>
<use xlink:href="#New_Symbol"  width="2" height="2" x="-1" y="-1" transform="matrix(-0.1872 -7.035526e-02 -7.035526e-02 0.1872 -4.831 24.5805)" style="overflow:visible;"/>
<use xlink:href="#New_Symbol"  width="2" height="2" x="-1" y="-1" transform="matrix(-2.560114e-03 0.2 0.2 2.560114e-03 143.1794 84.3797)" style="overflow:visible;"/>
<use xlink:href="#New_Symbol"  width="2" height="2" x="-1" y="-1" transform="matrix(-0.1886 -6.664050e-02 -6.664047e-02 0.1886 268.4964 230.1251)" style="overflow:visible;"/>
<use xlink:href="#New_Symbol"  width="2" height="2" x="-1" y="-1" transform="matrix(-6.542838e-02 0.189 0.189 6.542834e-02 117.9349 78.6846)" style="overflow:visible;"/>
<use xlink:href="#New_Symbol"  width="2" height="2" x="-1" y="-1" transform="matrix(0.1647 0.1135 0.1135 -0.1647 159.8734 77.7355)" style="overflow:visible;"/>
<use xlink:href="#New_Symbol"  width="2" height="2" x="-1" y="-1" transform="matrix(0.1857 7.422645e-02 7.422648e-02 -0.1857 296.5674 174.4716)" style="overflow:visible;"/>
<use xlink:href="#New_Symbol"  width="2" height="2" x="-1" y="-1" transform="matrix(-1.425442e-02 0.1995 0.1995 1.425441e-02 15.6922 193.9921)" style="overflow:visible;"/>
<use xlink:href="#New_Symbol"  width="2" height="2" x="-1" y="-1" transform="matrix(-0.1868 7.156606e-02 7.156608e-02 0.1868 93.5225 11.8505)" style="overflow:visible;"/>
<use xlink:href="#New_Symbol"  width="2" height="2" x="-1" y="-1" transform="matrix(-0.1874 -6.983666e-02 -6.983667e-02 0.1874 211.2904 -5.7403)" style="overflow:visible;"/>
<use xlink:href="#New_Symbol"  width="2" height="2" x="-1" y="-1" transform="matrix(-0.1826 8.168053e-02 8.168050e-02 0.1826 160.348 162.0352)" style="overflow:visible;"/>
<use xlink:href="#New_Symbol"  width="2" height="2" x="-1" y="-1" transform="matrix(8.514243e-02 0.181 0.181 -8.514240e-02 156.3186 191.7375)" style="overflow:visible;"/>
<use xlink:href="#New_Symbol"  width="2" height="2" x="-1" y="-1" transform="matrix(0.199 -1.948120e-02 -1.948119e-02 -0.199 176.1581 200.4443)" style="overflow:visible;"/>
<use xlink:href="#New_Symbol"  width="2" height="2" x="-1" y="-1" transform="matrix(-0.1917 5.687728e-02 5.687724e-02 0.1917 209.5667 372.3795)" style="overflow:visible;"/>
<use xlink:href="#New_Symbol"  width="2" height="2" x="-1" y="-1" transform="matrix(-0.1616 -0.1179 -0.1179 0.1616 184.4631 5.0892)" style="overflow:visible;"/>
<use xlink:href="#New_Symbol"  width="2" height="2" x="-1" y="-1" transform="matrix(-0.1803 -8.633100e-02 -8.648226e-02 0.18 55.5959 129.4559)" style="overflow:visible;"/>
<use xlink:href="#New_Symbol"  width="2" height="2" x="-1" y="-1" transform="matrix(0.138 0.1448 0.1448 -0.138 154.278 -4.7878)" style="overflow:visible;"/>
<use xlink:href="#New_Symbol"  width="2" height="2" x="-1" y="-1" transform="matrix(0.1238 0.157 0.157 -0.1238 28.4679 176.1711)" style="overflow:visible;"/>
<use xlink:href="#New_Symbol"  width="2" height="2" x="-1" y="-1" transform="matrix(-7.274219e-02 0.1863 0.1863 7.274221e-02 74.8337 -23.3385)" style="overflow:visible;"/>
<use xlink:href="#New_Symbol"  width="2" height="2" x="-1" y="-1" transform="matrix(0.1197 -0.1602 -0.1602 -0.1197 5.8747 124.4764)" style="overflow:visible;"/>
<use xlink:href="#New_Symbol"  width="2" height="2" x="-1" y="-1" transform="matrix(0.1294 0.1525 0.1525 -0.1294 217.3261 -22.2689)" style="overflow:visible;"/>
<use xlink:href="#New_Symbol"  width="2" height="2" x="-1" y="-1" transform="matrix(-0.1982 -2.689674e-02 -2.689676e-02 0.1982 10.3655 136.4229)" style="overflow:visible;"/>
<use xlink:href="#New_Symbol"  width="2" height="2" x="-1" y="-1" transform="matrix(-8.086516e-02 -0.1829 -0.1829 8.086516e-02 32.6917 115.6834)" style="overflow:visible;"/>
<use xlink:href="#New_Symbol"  width="2" height="2" x="-1" y="-1" transform="matrix(-0.1991 -1.885513e-02 -1.888661e-02 0.1987 76.0613 172.0744)" style="overflow:visible;"/>
<use xlink:href="#New_Symbol"  width="2" height="2" x="-1" y="-1" transform="matrix(-0.1273 -0.1543 -0.1543 0.1273 27.6328 78.9962)" style="overflow:visible;"/>
<use xlink:href="#New_Symbol"  width="2" height="2" x="-1" y="-1" transform="matrix(0.1863 -7.282367e-02 -7.282364e-02 -0.1863 119.1349 7.408)" style="overflow:visible;"/>
<use xlink:href="#New_Symbol"  width="2" height="2" x="-1" y="-1" transform="matrix(0.1342 -0.1483 -0.1483 -0.1342 116.5075 -24.3703)" style="overflow:visible;"/>
<use xlink:href="#New_Symbol"  width="2" height="2" x="-1" y="-1" transform="matrix(0.1332 -0.1492 -0.1492 -0.1332 196.5288 66.1316)" style="overflow:visible;"/>
<use xlink:href="#New_Symbol"  width="2" height="2" x="-1" y="-1" transform="matrix(0.1981 2.752118e-02 2.752116e-02 -0.1981 93.4294 61.4213)" style="overflow:visible;"/>
<use xlink:href="#New_Symbol"  width="2" height="2" x="-1" y="-1" transform="matrix(1.494651e-02 0.1994 0.1994 -1.494648e-02 -6.7127 32.1137)" style="overflow:visible;"/>
<use xlink:href="#New_Symbol"  width="2" height="2" x="-1" y="-1" transform="matrix(-8.182351e-02 -0.1825 -0.1825 8.182347e-02 33.3456 18.6135)" style="overflow:visible;"/>
<use xlink:href="#New_Symbol"  width="2" height="2" x="-1" y="-1" transform="matrix(-0.1004 -0.173 -0.173 0.1004 54.7845 36.8972)" style="overflow:visible;"/>
<use xlink:href="#New_Symbol"  width="2" height="2" x="-1" y="-1" transform="matrix(-4.437461e-02 0.195 0.195 4.437459e-02 89.0806 7.7015)" style="overflow:visible;"/>
<use xlink:href="#New_Symbol"  width="2" height="2" x="-1" y="-1" transform="matrix(-0.1796 8.798730e-02 8.798727e-02 0.1796 50.6568 173.1638)" style="overflow:visible;"/>
<use xlink:href="#New_Symbol"  width="2" height="2" x="-1" y="-1" transform="matrix(-0.1259 -0.1554 -0.1554 0.1259 73.6724 176.2111)" style="overflow:visible;"/>
<use xlink:href="#New_Symbol"  width="2" height="2" x="-1" y="-1" transform="matrix(-0.1009 -0.1727 -0.1727 0.1009 43.459 78.1673)" style="overflow:visible;"/>
<use xlink:href="#New_Symbol"  width="2" height="2" x="-1" y="-1" transform="matrix(-0.1711 -0.1035 -0.1035 0.1711 94.8659 139.3585)" style="overflow:visible;"/>
<use xlink:href="#New_Symbol"  width="2" height="2" x="-1" y="-1" transform="matrix(-0.1997 -1.003316e-02 -1.003319e-02 0.1997 167.611 163.1331)" style="overflow:visible;"/>
<use xlink:href="#New_Symbol"  width="2" height="2" x="-1" y="-1" transform="matrix(0.1367 -0.146 -0.146 -0.1367 186.1425 193.3099)" style="overflow:visible;"/>
<use xlink:href="#New_Symbol"  width="2" height="2" x="-1" y="-1" transform="matrix(0.144 0.1388 0.1388 -0.144 38.4369 -74.3665)" style="overflow:visible;"/>
<use xlink:href="#New_Symbol"  width="2" height="2" x="-1" y="-1" transform="matrix(0.1804 -8.624635e-02 -8.624639e-02 -0.1804 125.8652 61.2796)" style="overflow:visible;"/>
<use xlink:href="#New_Symbol"  width="2" height="2" x="-1" y="-1" transform="matrix(1.378671e-02 -0.1995 -0.1995 -1.378669e-02 190.5121 12.7196)" style="overflow:visible;"/>
<use xlink:href="#New_Symbol"  width="2" height="2" x="-1" y="-1" transform="matrix(8.809856e-02 0.1796 0.1796 -8.809859e-02 166.3002 99.1984)" style="overflow:visible;"/>
<use xlink:href="#New_Symbol"  width="2" height="2" x="-1" y="-1" transform="matrix(-0.1707 0.1043 0.1043 0.1707 176.0375 141.8713)" style="overflow:visible;"/>
<use xlink:href="#New_Symbol"  width="2" height="2" x="-1" y="-1" transform="matrix(0.1605 -0.119 -0.1192 -0.1602 44.5513 57.8516)" style="overflow:visible;"/>
<use xlink:href="#New_Symbol"  width="2" height="2" x="-1" y="-1" transform="matrix(-0.1481 0.1344 0.1344 0.1481 108.7694 39.9723)" style="overflow:visible;"/>
<use xlink:href="#New_Symbol"  width="2" height="2" x="-1" y="-1" transform="matrix(0.1012 0.1725 0.1725 -0.1012 6.8849 120.5884)" style="overflow:visible;"/>
<use xlink:href="#New_Symbol"  width="2" height="2" x="-1" y="-1" transform="matrix(0.1993 -1.687551e-02 -1.687551e-02 -0.1993 37.498 -20.2514)" style="overflow:visible;"/>
<use xlink:href="#New_Symbol"  width="2" height="2" x="-1" y="-1" transform="matrix(0.1004 -0.173 -0.173 -0.1004 71.0302 15.2675)" style="overflow:visible;"/>
<use xlink:href="#New_Symbol"  width="2" height="2" x="-1" y="-1" transform="matrix(8.561243e-02 0.1807 0.1807 -8.561243e-02 12.0525 25.8175)" style="overflow:visible;"/>
<use xlink:href="#New_Symbol"  width="2" height="2" x="-1" y="-1" transform="matrix(-5.923887e-02 -0.191 -0.191 5.923887e-02 -103.9187 27.9861)" style="overflow:visible;"/>
<use xlink:href="#New_Symbol"  width="2" height="2" x="-1" y="-1" transform="matrix(-0.1094 -0.1674 -0.1674 0.1094 94.0305 -127.4416)" style="overflow:visible;"/>
<use xlink:href="#New_Symbol"  width="2" height="2" x="-1" y="-1" transform="matrix(0.179 8.912187e-02 8.912187e-02 -0.179 122.7713 82.3991)" style="overflow:visible;"/>
<use xlink:href="#New_Symbol"  width="2" height="2" x="-1" y="-1" transform="matrix(-0.1792 -8.873332e-02 -8.873332e-02 0.1792 40.1897 41.4509)" style="overflow:visible;"/>
<use xlink:href="#New_Symbol"  width="2" height="2" x="-1" y="-1" transform="matrix(-0.1637 0.1146 0.1148 0.1634 137.3093 156.7324)" style="overflow:visible;"/>
<use xlink:href="#New_Symbol"  width="2" height="2" x="-1" y="-1" transform="matrix(0.1434 0.1394 0.1394 -0.1434 146.5195 17.4731)" style="overflow:visible;"/>
<use xlink:href="#New_Symbol"  width="2" height="2" x="-1" y="-1" transform="matrix(0.1829 -8.100135e-02 -8.100135e-02 -0.1829 173.8974 67.8219)" style="overflow:visible;"/>
<use xlink:href="#New_Symbol"  width="2" height="2" x="-1" y="-1" transform="matrix(8.675714e-02 0.1802 0.1802 -8.675714e-02 78.1731 86.1788)" style="overflow:visible;"/>
<use xlink:href="#New_Symbol"  width="2" height="2" x="-1" y="-1" transform="matrix(-0.1961 -3.929106e-02 -3.929106e-02 0.1961 55.3556 49.1037)" style="overflow:visible;"/>
<use xlink:href="#New_Symbol"  width="2" height="2" x="-1" y="-1" transform="matrix(9.004578e-02 -0.1786 -0.1786 -9.004578e-02 92.7334 -23.6237)" style="overflow:visible;"/>
<use xlink:href="#New_Symbol"  width="2" height="2" x="-1" y="-1" transform="matrix(5.067844e-02 -0.1935 -0.1935 -5.067844e-02 217.632 17.8708)" style="overflow:visible;"/>
<use xlink:href="#New_Symbol"  width="2" height="2" x="-1" y="-1" transform="matrix(-0.1423 0.1405 0.1405 0.1423 133.0024 114.3769)" style="overflow:visible;"/>
<use xlink:href="#New_Symbol"  width="2" height="2" x="-1" y="-1" transform="matrix(0.1999 6.606648e-03 6.606648e-03 -0.1999 125.0739 165.7589)" style="overflow:visible;"/>
<use xlink:href="#New_Symbol"  width="2" height="2" x="-1" y="-1" transform="matrix(4.653787e-03 -0.1999 -0.1999 -4.653787e-03 -52.0506 149.7101)" style="overflow:visible;"/>
<use xlink:href="#New_Symbol"  width="2" height="2" x="-1" y="-1" transform="matrix(0.179 -8.922475e-02 -8.922475e-02 -0.179 46.9436 5.2306)" style="overflow:visible;"/>
<use xlink:href="#New_Symbol"  width="2" height="2" x="-1" y="-1" transform="matrix(3.808571e-02 -0.1963 -0.1963 -3.808571e-02 3.635 160.4267)" style="overflow:visible;"/>
<use xlink:href="#New_Symbol"  width="2" height="2" x="-1" y="-1" transform="matrix(0.1481 -0.1344 -0.1344 -0.1481 62.337 9.4461)" style="overflow:visible;"/>
</svg>
