<?xml version="1.0" encoding="utf-8"?>
<!-- Generator: Adobe Illustrator 17.0.0, SVG Export Plug-In . SVG Version: 6.00 Build 0)  -->
<!DOCTYPE svg PUBLIC "-//W3C//DTD SVG 1.1//EN" "http://www.w3.org/Graphics/SVG/1.1/DTD/svg11.dtd">
<svg version="1.1" id="Ebene_1" xmlns="http://www.w3.org/2000/svg" xmlns:xlink="http://www.w3.org/1999/xlink" x="0px" y="0px"
	 width="1000.006px" height="700px" viewBox="0 0 1000.006 700" enable-background="new 0 0 1000.006 700" xml:space="preserve">
<polygon fill="#123456" stroke="#123456" stroke-width="0.25" stroke-miterlimit="10" points="566.834,285.568 633.82,246.892 
	700.894,285.568 633.863,324.268 "/>
<polygon fill="#1D71B8" stroke="#1D71B8" stroke-width="0.25" stroke-miterlimit="10" points="566.962,362.837 566.92,285.414 
	633.908,324.088 633.95,401.514 "/>
<polygon fill="#123456" stroke="#123456" stroke-width="0.25" stroke-miterlimit="10" points="633.788,324.168 700.817,285.419 
	700.816,362.77 633.788,401.52 "/>
<polygon fill="#36A9E1" stroke="#36A9E1" stroke-miterlimit="10" points="700.529,285.568 767.515,246.892 834.589,285.568 
	767.558,324.268 "/>
<polygon fill="#1D71B8" stroke="#1D71B8" stroke-width="0.25" stroke-miterlimit="10" points="700.657,362.837 700.615,285.414 
	767.603,324.088 767.645,401.514 "/>
<polygon fill="#36A9E1" stroke="#36A9E1" stroke-miterlimit="10" points="767.482,324.168 834.512,285.419 834.512,362.77 
	767.482,401.52 "/>
<polygon fill="#123456" stroke="#123456" stroke-width="0.25" stroke-miterlimit="10" points="834.223,285.568 901.21,246.892 
	968.283,285.568 901.253,324.268 "/>
<polygon fill="#1D71B8" stroke="#1D71B8" stroke-width="0.25" stroke-miterlimit="10" points="834.352,362.837 834.31,285.414 
	901.298,324.088 901.34,401.514 "/>
<polygon fill="#1D71B8" stroke="#1D71B8" stroke-width="0.25" stroke-miterlimit="10" points="901.177,324.168 968.207,285.419 
	968.207,362.77 901.177,401.52 "/>
<polygon fill="#FFFFFF" points="968.047,362.837 968.005,285.414 1034.993,324.088 1035.035,401.514 "/>
<polygon fill="#36A9E1" stroke="#36A9E1" stroke-miterlimit="10" points="32.054,285.568 99.041,246.892 166.114,285.568 
	99.083,324.268 "/>
<polygon fill="#1D71B8" stroke="#1D71B8" stroke-width="0.25" stroke-miterlimit="10" points="32.184,362.837 32.14,285.414 
	99.128,324.088 99.171,401.514 "/>
<polygon fill="#36A9E1" stroke="#36A9E1" stroke-miterlimit="10" points="99.008,324.168 166.039,285.419 166.039,362.77 
	99.008,401.52 "/>
<polygon fill="#36A9E1" stroke="#36A9E1" stroke-miterlimit="10" points="165.749,285.568 232.735,246.892 299.809,285.568 
	232.778,324.268 "/>
<polygon fill="#1D71B8" stroke="#1D71B8" stroke-width="0.25" stroke-miterlimit="10" points="165.878,362.837 165.835,285.414 
	232.823,324.088 232.866,401.514 "/>
<polygon fill="#123456" stroke="#123456" stroke-width="0.25" stroke-miterlimit="10" points="232.703,324.168 299.733,285.419 
	299.733,362.77 232.703,401.52 "/>
<polygon fill="#36A9E1" stroke="#36A9E1" stroke-miterlimit="10" points="299.444,285.568 366.431,246.892 433.504,285.568 
	366.473,324.268 "/>
<polygon fill="#1D71B8" stroke="#1D71B8" stroke-width="0.25" stroke-miterlimit="10" points="299.573,362.837 299.53,285.414 
	366.519,324.088 366.561,401.514 "/>
<polygon fill="#123456" stroke="#123456" stroke-width="0.25" stroke-miterlimit="10" points="366.398,324.168 433.428,285.419 
	433.428,362.77 366.398,401.52 "/>
<polygon fill="#36A9E1" stroke="#36A9E1" stroke-miterlimit="10" points="366.189,169.774 433.176,131.099 500.25,169.774 
	433.219,208.474 "/>
<polygon fill="#123456" stroke="#123456" stroke-width="0.25" stroke-miterlimit="10" points="366.318,247.046 366.276,169.62 
	433.264,208.295 433.307,285.721 "/>
<polygon fill="#1D71B8" stroke="#1D71B8" stroke-miterlimit="10" points="433.143,208.375 500.173,169.625 500.173,246.976 
	433.143,285.727 "/>
<polygon fill="#36A9E1" stroke="#36A9E1" stroke-miterlimit="10" points="499.884,169.774 566.871,131.099 633.945,169.774 
	566.914,208.474 "/>
<polygon fill="#1D71B8" stroke="#1D71B8" stroke-miterlimit="10" points="500.014,247.046 499.971,169.62 566.96,208.295 
	567.002,285.721 "/>
<polygon fill="#36A9E1" stroke="#36A9E1" stroke-miterlimit="10" points="566.838,208.375 633.868,169.625 633.868,246.976 
	566.838,285.727 "/>
<polygon fill="#36A9E1" stroke="#36A9E1" stroke-miterlimit="10" points="633.579,169.774 700.566,131.099 767.64,169.774 
	700.609,208.474 "/>
<polygon fill="#1D71B8" stroke="#1D71B8" stroke-width="0.25" stroke-miterlimit="10" points="633.708,247.046 633.666,169.62 
	700.655,208.295 700.697,285.721 "/>
<polygon fill="#123456" stroke="#123456" stroke-width="0.25" stroke-miterlimit="10" points="700.533,208.375 767.563,169.625 
	767.563,246.976 700.533,285.727 "/>
<polygon fill="#36A9E1" stroke="#36A9E1" stroke-miterlimit="10" points="767.274,169.774 834.261,131.099 901.335,169.774 
	834.304,208.474 "/>
<polygon fill="#1D71B8" stroke="#1D71B8" stroke-width="0.25" stroke-miterlimit="10" points="767.403,247.046 767.361,169.62 
	834.35,208.295 834.392,285.721 "/>
<polygon fill="#123456" stroke="#123456" stroke-width="0.25" stroke-miterlimit="10" points="834.228,208.375 901.258,169.625 
	901.258,246.976 834.228,285.727 "/>
<polygon fill="#36A9E1" stroke="#36A9E1" stroke-miterlimit="10" points="900.969,169.774 967.956,131.099 1035.03,169.774 
	967.999,208.474 "/>
<polygon fill="#123456" stroke="#123456" stroke-width="0.25" stroke-miterlimit="10" points="901.098,247.046 901.056,169.62 
	968.045,208.295 968.087,285.721 "/>
<polygon fill="#FFFFFF" points="967.922,208.375 1034.953,169.625 1034.953,246.976 967.922,285.727 "/>
<polygon fill="#36A9E1" stroke="#36A9E1" stroke-miterlimit="10" points="-34.896,169.774 32.092,131.099 99.165,169.774 
	32.135,208.474 "/>
<polygon fill="#123456" stroke="#123456" stroke-width="0.25" stroke-miterlimit="10" points="32.058,208.375 99.089,169.625 
	99.089,246.976 32.058,285.727 "/>
<polygon fill="#123456" stroke="#123456" stroke-width="0.25" stroke-miterlimit="10" points="98.799,169.774 165.788,131.099 
	232.86,169.774 165.83,208.474 "/>
<polygon fill="#36A9E1" stroke="#36A9E1" stroke-miterlimit="10" points="98.928,247.046 98.886,169.62 165.875,208.295 
	165.917,285.721 "/>
<polygon fill="#123456" stroke="#123456" stroke-width="0.25" stroke-miterlimit="10" points="165.753,208.375 232.784,169.625 
	232.784,246.976 165.753,285.727 "/>
<polygon fill="#1D71B8" stroke="#1D71B8" stroke-width="0.25" stroke-miterlimit="10" points="232.494,169.774 299.482,131.099 
	366.555,169.774 299.525,208.474 "/>
<polygon fill="#1D71B8" stroke="#1D71B8" stroke-width="0.25" stroke-miterlimit="10" points="232.624,247.046 232.581,169.62 
	299.569,208.295 299.612,285.721 "/>
<polygon fill="#123456" stroke="#123456" stroke-width="0.25" stroke-miterlimit="10" points="299.448,208.375 366.478,169.625 
	366.478,246.976 299.448,285.727 "/>
<polygon fill="#36A9E1" stroke="#36A9E1" stroke-width="0.25" stroke-miterlimit="10" points="433.031,53.916 500.018,15.241 
	567.091,53.916 500.06,92.617 "/>
<polygon fill="#1D71B8" stroke="#1D71B8" stroke-miterlimit="10" points="433.105,131.368 433.062,53.941 500.05,92.618 
	500.093,170.042 "/>
<polygon fill="#1D71B8" stroke="#1D71B8" stroke-miterlimit="10" points="500.061,92.62 567.091,53.87 567.09,131.222 
	500.061,169.97 "/>
<polygon fill="#123456" stroke="#123456" stroke-width="0.25" stroke-miterlimit="10" points="566.834,53.993 633.82,15.318 
	700.894,53.993 633.863,92.694 "/>
<polygon fill="#1D71B8" stroke="#1D71B8" stroke-width="0.25" stroke-miterlimit="10" points="566.962,131.265 566.92,53.838 
	633.908,92.515 633.95,169.939 "/>
<polygon fill="#123456" stroke="#123456" stroke-width="0.25" stroke-miterlimit="10" points="633.788,92.595 700.817,53.845 
	700.816,131.197 633.788,169.945 "/>
<polygon fill="#123456" stroke="#123456" stroke-width="0.25" stroke-miterlimit="10" points="700.529,53.993 767.515,15.318 
	834.589,53.993 767.558,92.694 "/>
<polygon fill="#1D71B8" stroke="#1D71B8" stroke-width="0.25" stroke-miterlimit="10" points="700.657,131.265 700.615,53.838 
	767.603,92.515 767.645,169.939 "/>
<polygon fill="#123456" stroke="#123456" stroke-width="0.25" stroke-miterlimit="10" points="767.482,92.595 834.512,53.845 
	834.512,131.197 767.482,169.945 "/>
<polygon fill="#123456" stroke="#123456" stroke-width="0.25" stroke-miterlimit="10" points="834.223,53.993 901.21,15.318 
	968.283,53.993 901.253,92.694 "/>
<polygon fill="#123456" stroke="#123456" stroke-width="0.25" stroke-miterlimit="10" points="834.352,131.265 834.31,53.838 
	901.298,92.515 901.34,169.939 "/>
<polygon fill="#36A9E1" stroke="#36A9E1" stroke-miterlimit="10" points="901.177,92.595 968.207,53.845 968.207,131.197 
	901.177,169.945 "/>
<polygon fill="#FFFFFF" points="968.047,131.265 968.005,53.838 1034.993,92.515 1035.035,169.939 "/>
<polygon fill="#1D71B8" stroke="#1D71B8" stroke-width="0.25" stroke-miterlimit="10" points="32.054,53.993 99.041,15.318 
	166.114,53.993 99.083,92.694 "/>
<polygon fill="#123456" stroke="#123456" stroke-width="0.25" stroke-miterlimit="10" points="32.184,131.265 32.14,53.838 
	99.128,92.515 99.171,169.939 "/>
<polygon fill="#123456" stroke="#123456" stroke-width="0.25" stroke-miterlimit="10" points="99.008,92.595 166.039,53.845 
	166.039,131.197 99.008,169.945 "/>
<polygon fill="#36A9E1" stroke="#36A9E1" stroke-miterlimit="10" points="165.749,53.993 232.735,15.318 299.809,53.993 
	232.778,92.694 "/>
<polygon fill="#1D71B8" stroke="#1D71B8" stroke-width="0.25" stroke-miterlimit="10" points="165.878,131.265 165.835,53.838 
	232.823,92.515 232.866,169.939 "/>
<polygon fill="#123456" stroke="#123456" stroke-width="0.25" stroke-miterlimit="10" points="232.703,92.595 299.733,53.845 
	299.733,131.197 232.703,169.945 "/>
<polygon fill="#36A9E1" stroke="#36A9E1" stroke-miterlimit="10" points="299.444,53.993 366.431,15.318 433.504,53.993 
	366.473,92.694 "/>
<polygon fill="#1D71B8" stroke="#1D71B8" stroke-width="0.25" stroke-miterlimit="10" points="299.573,131.265 299.53,53.838 
	366.519,92.515 366.561,169.939 "/>
<polygon fill="#123456" stroke="#123456" stroke-width="0.25" stroke-miterlimit="10" points="366.398,92.595 433.428,53.845 
	433.428,131.197 366.398,169.945 "/>
<polygon fill="#FFFFFF" points="366.318,15.471 366.276,-61.954 433.264,-23.279 433.307,54.146 "/>
<polygon fill="#FFFFFF" points="433.143,-23.199 500.173,-61.947 500.173,15.403 433.143,54.152 "/>
<polygon fill="#FFFFFF" points="500.014,15.471 499.971,-61.954 566.96,-23.279 567.002,54.146 "/>
<polygon fill="#FFFFFF" points="566.838,-23.199 633.868,-61.947 633.868,15.403 566.838,54.152 "/>
<polygon fill="#FFFFFF" points="633.708,15.471 633.666,-61.954 700.655,-23.279 700.697,54.146 "/>
<polygon fill="#FFFFFF" points="700.533,-23.199 767.563,-61.947 767.563,15.403 700.533,54.152 "/>
<polygon fill="#FFFFFF" points="767.403,15.471 767.361,-61.954 834.35,-23.279 834.392,54.146 "/>
<polygon fill="#FFFFFF" points="834.228,-23.199 901.258,-61.947 901.258,15.403 834.228,54.152 "/>
<polygon fill="#FFFFFF" points="901.098,15.471 901.056,-61.954 968.045,-23.279 968.087,54.146 "/>
<polygon fill="#FFFFFF" points="967.922,-23.199 1034.953,-61.947 1034.953,15.403 967.922,54.152 "/>
<polygon fill="#FFFFFF" points="32.058,-23.199 99.089,-61.947 99.089,15.403 32.058,54.152 "/>
<polygon fill="#FFFFFF" points="32.143,-23.199 32.143,54.005 99.004,15.403 99.004,-61.8 "/>
<polygon fill="#FFFFFF" points="32.058,-23.199 99.089,-61.947 99.089,15.403 32.058,54.152 "/>
<polygon fill="#FFFFFF" points="98.928,15.471 98.886,-61.954 165.875,-23.279 165.917,54.146 "/>
<polygon fill="#FFFFFF" points="165.753,-23.199 232.784,-61.947 232.784,15.403 165.753,54.152 "/>
<polygon fill="#FFFFFF" points="232.624,15.471 232.581,-61.954 299.569,-23.279 299.612,54.146 "/>
<polygon fill="#FFFFFF" points="299.448,-23.199 366.478,-61.947 366.478,15.403 299.448,54.152 "/>
<polygon fill="#123456" stroke="#123456" stroke-width="0.25" stroke-miterlimit="10" points="366.189,632.929 433.176,594.254 
	500.25,632.929 433.219,671.63 "/>
<polygon fill="#FFFFFF" points="366.318,710.198 366.276,632.774 433.264,671.451 433.307,748.876 "/>
<polygon fill="#FFFFFF" points="433.143,671.53 500.173,632.78 500.173,710.131 433.143,748.882 "/>
<polygon fill="#123456" stroke="#123456" stroke-width="0.25" stroke-miterlimit="10" points="499.884,632.929 566.871,594.254 
	633.945,632.929 566.914,671.63 "/>
<polygon fill="#FFFFFF" points="500.014,710.198 499.971,632.774 566.96,671.451 567.002,748.876 "/>
<polygon fill="#FFFFFF" points="566.838,671.53 633.868,632.78 633.868,710.131 566.838,748.882 "/>
<polygon fill="#123456" stroke="#123456" stroke-width="0.25" stroke-miterlimit="10" points="633.579,632.929 700.566,594.254 
	767.64,632.929 700.609,671.63 "/>
<polygon fill="#FFFFFF" points="633.708,710.198 633.666,632.774 700.655,671.451 700.697,748.876 "/>
<polygon fill="#FFFFFF" points="700.533,671.53 767.563,632.78 767.563,710.131 700.533,748.882 "/>
<polygon fill="#123456" stroke="#123456" stroke-width="0.25" stroke-miterlimit="10" points="767.274,632.929 834.261,594.254 
	901.335,632.929 834.304,671.63 "/>
<polygon fill="#FFFFFF" points="767.403,710.198 767.361,632.774 834.35,671.451 834.392,748.876 "/>
<polygon fill="#FFFFFF" points="834.228,671.53 901.258,632.78 901.258,710.131 834.228,748.882 "/>
<polygon fill="#123456" stroke="#123456" stroke-width="0.25" stroke-miterlimit="10" points="900.969,632.929 967.956,594.254 
	1035.03,632.929 967.999,671.63 "/>
<polygon fill="#FFFFFF" points="901.098,710.198 901.056,632.774 968.045,671.451 968.087,748.876 "/>
<polygon fill="#FFFFFF" points="967.922,671.53 1034.953,632.78 1034.953,710.131 967.922,748.882 "/>
<polygon fill="#FFFFFF" points="-34.896,632.929 32.092,594.254 99.165,632.929 32.135,671.63 "/>
<polygon fill="#FFFFFF" points="32.058,671.53 99.089,632.78 99.089,710.131 32.058,748.882 "/>
<polygon fill="#123456" stroke="#123456" stroke-width="0.25" stroke-miterlimit="10" points="98.799,632.929 165.788,594.254 
	232.86,632.929 165.83,671.63 "/>
<polygon fill="#FFFFFF" points="98.928,710.198 98.886,632.774 165.875,671.451 165.917,748.876 "/>
<polygon fill="#FFFFFF" points="165.753,671.53 232.784,632.78 232.784,710.131 165.753,748.882 "/>
<polygon fill="#123456" stroke="#123456" stroke-width="0.25" stroke-miterlimit="10" points="232.494,632.929 299.482,594.254 
	366.555,632.929 299.525,671.63 "/>
<polygon fill="#FFFFFF" points="232.624,710.198 232.581,632.774 299.569,671.451 299.612,748.876 "/>
<polygon fill="#FFFFFF" points="299.448,671.53 366.478,632.78 366.478,710.131 299.448,748.882 "/>
<polygon fill="#36A9E1" stroke="#36A9E1" stroke-miterlimit="10" points="433.139,517.148 500.126,478.473 567.199,517.148 
	500.168,555.85 "/>
<polygon fill="#1D71B8" stroke="#1D71B8" stroke-width="0.25" stroke-miterlimit="10" points="433.268,594.418 433.225,516.993 
	500.213,555.671 500.256,633.095 "/>
<polygon fill="#123456" stroke="#123456" stroke-width="0.25" stroke-miterlimit="10" points="500.093,555.75 567.123,516.999 
	567.122,594.351 500.093,633.101 "/>
<polygon fill="#36A9E1" stroke="#36A9E1" stroke-miterlimit="10" points="566.834,517.148 633.82,478.473 700.894,517.148 
	633.863,555.85 "/>
<polygon fill="#1D71B8" stroke="#1D71B8" stroke-width="0.25" stroke-miterlimit="10" points="566.962,594.418 566.92,516.993 
	633.908,555.671 633.95,633.095 "/>
<polygon fill="#123456" stroke="#123456" stroke-width="0.25" stroke-miterlimit="10" points="633.788,555.75 700.817,516.999 
	700.816,594.351 633.788,633.101 "/>
<polygon fill="#36A9E1" stroke="#36A9E1" stroke-miterlimit="10" points="700.529,517.148 767.515,478.473 834.589,517.148 
	767.558,555.85 "/>
<polygon fill="#1D71B8" stroke="#1D71B8" stroke-width="0.25" stroke-miterlimit="10" points="700.657,594.418 700.615,516.993 
	767.603,555.671 767.645,633.095 "/>
<polygon fill="#1D71B8" stroke="#1D71B8" stroke-width="0.25" stroke-miterlimit="10" points="767.482,555.75 834.512,516.999 
	834.512,594.351 767.482,633.101 "/>
<polygon fill="#1D71B8" stroke="#1D71B8" stroke-width="0.25" stroke-miterlimit="10" points="834.223,517.148 901.21,478.473 
	968.283,517.148 901.253,555.85 "/>
<polygon fill="#1D71B8" stroke="#1D71B8" stroke-width="0.25" stroke-miterlimit="10" points="834.352,594.418 834.31,516.993 
	901.298,555.671 901.34,633.095 "/>
<polygon fill="#1D71B8" stroke="#1D71B8" stroke-width="0.25" stroke-miterlimit="10" points="901.177,555.75 968.207,516.999 
	968.207,594.351 901.177,633.101 "/>
<polygon fill="#FFFFFF" points="968.047,594.418 968.005,516.993 1034.993,555.671 1035.035,633.095 "/>
<polygon fill="#1D71B8" stroke="#1D71B8" stroke-width="0.25" stroke-miterlimit="10" points="32.054,517.148 99.041,478.473 
	166.114,517.148 99.083,555.85 "/>
<polygon fill="#1D71B8" stroke="#1D71B8" stroke-width="0.25" stroke-miterlimit="10" points="32.184,594.418 32.14,516.993 
	99.128,555.671 99.171,633.095 "/>
<polygon fill="#123456" stroke="#123456" stroke-width="0.25" stroke-miterlimit="10" points="99.008,555.75 166.039,516.999 
	166.039,594.351 99.008,633.101 "/>
<polygon fill="#36A9E1" stroke="#36A9E1" stroke-miterlimit="10" points="165.749,517.148 232.735,478.473 299.809,517.148 
	232.778,555.85 "/>
<polygon fill="#1D71B8" stroke="#1D71B8" stroke-width="0.25" stroke-miterlimit="10" points="165.878,594.418 165.835,516.993 
	232.823,555.671 232.866,633.095 "/>
<polygon fill="#123456" stroke="#123456" stroke-width="0.25" stroke-miterlimit="10" points="232.703,555.75 299.733,516.999 
	299.733,594.351 232.703,633.101 "/>
<polygon fill="#123456" stroke="#123456" stroke-width="0.25" stroke-miterlimit="10" points="299.444,517.148 366.431,478.473 
	433.504,517.148 366.473,555.85 "/>
<polygon fill="#1D71B8" stroke="#1D71B8" stroke-width="0.25" stroke-miterlimit="10" points="299.573,594.418 299.53,516.993 
	366.519,555.671 366.561,633.095 "/>
<polygon fill="#36A9E1" stroke="#36A9E1" stroke-miterlimit="10" points="366.398,555.75 433.428,516.999 433.428,594.351 
	366.398,633.101 "/>
<polygon fill="#36A9E1" stroke="#36A9E1" stroke-miterlimit="10" points="366.189,401.356 433.176,362.68 500.25,401.355 
	433.219,440.056 "/>
<polygon fill="#1D71B8" stroke="#1D71B8" stroke-width="0.25" stroke-miterlimit="10" points="366.318,478.625 366.276,401.199 
	433.264,439.877 433.307,517.301 "/>
<polygon fill="#123456" stroke="#123456" stroke-width="0.25" stroke-miterlimit="10" points="433.143,439.956 500.173,401.205 
	500.173,478.558 433.143,517.307 "/>
<polygon fill="#36A9E1" stroke="#36A9E1" stroke-miterlimit="10" points="499.884,401.356 566.871,362.68 633.945,401.355 
	566.914,440.056 "/>
<polygon fill="#1D71B8" stroke="#1D71B8" stroke-width="0.25" stroke-miterlimit="10" points="500.014,478.625 499.971,401.199 
	566.96,439.877 567.002,517.301 "/>
<polygon fill="#123456" stroke="#123456" stroke-width="0.25" stroke-miterlimit="10" points="566.838,439.956 633.868,401.205 
	633.868,478.558 566.838,517.307 "/>
<polygon fill="#36A9E1" stroke="#36A9E1" stroke-miterlimit="10" points="633.579,401.356 700.566,362.68 767.64,401.355 
	700.609,440.056 "/>
<polygon fill="#1D71B8" stroke="#1D71B8" stroke-width="0.25" stroke-miterlimit="10" points="633.708,478.625 633.666,401.199 
	700.655,439.877 700.697,517.301 "/>
<polygon fill="#36A9E1" stroke="#36A9E1" stroke-miterlimit="10" points="700.533,439.956 767.563,401.205 767.563,478.558 
	700.533,517.307 "/>
<polygon fill="#1D71B8" stroke="#1D71B8" stroke-width="0.25" stroke-miterlimit="10" points="767.274,401.356 834.261,362.68 
	901.335,401.355 834.304,440.056 "/>
<polygon fill="#1D71B8" stroke="#1D71B8" stroke-width="0.25" stroke-miterlimit="10" points="767.403,478.625 767.361,401.199 
	834.35,439.877 834.392,517.301 "/>
<polygon fill="#36A9E1" stroke="#36A9E1" stroke-miterlimit="10" points="834.228,439.956 901.258,401.205 901.258,478.558 
	834.228,517.307 "/>
<polygon fill="#36A9E1" stroke="#36A9E1" stroke-miterlimit="10" points="900.969,401.356 967.956,362.68 1035.03,401.355 
	967.999,440.056 "/>
<polygon fill="#1D71B8" stroke="#1D71B8" stroke-width="0.25" stroke-miterlimit="10" points="901.098,478.625 901.056,401.199 
	968.045,439.877 968.087,517.301 "/>
<polygon fill="#FFFFFF" points="967.922,439.956 1034.953,401.205 1034.953,478.558 967.922,517.307 "/>
<polygon fill="#36A9E1" stroke="#36A9E1" stroke-miterlimit="10" points="-34.896,401.356 32.092,362.68 99.165,401.355 
	32.135,440.056 "/>
<polygon fill="#36A9E1" stroke="#36A9E1" stroke-miterlimit="10" points="32.058,439.956 99.089,401.205 99.089,478.558 
	32.058,517.307 "/>
<polygon fill="#36A9E1" stroke="#36A9E1" stroke-miterlimit="10" points="98.799,401.356 165.788,362.68 232.86,401.355 
	165.83,440.056 "/>
<polygon fill="#36A9E1" stroke="#36A9E1" stroke-miterlimit="10" points="98.928,478.625 98.886,401.199 165.875,439.877 
	165.917,517.301 "/>
<polygon fill="#FFFFFF" points="-34.566,324.168 32.465,285.419 32.465,362.77 -34.566,401.52 "/>
<polygon fill="#FFFFFF" points="-34.644,247.046 -34.687,169.62 32.3,208.295 32.343,285.721 "/>
<polygon fill="#FFFFFF" points="-34.566,92.595 32.465,53.845 32.465,131.197 -34.566,169.945 "/>
<polygon fill="#FFFFFF" points="-34.644,15.471 -34.687,-61.954 32.3,-23.279 32.343,54.146 "/>
<polygon fill="#FFFFFF" points="-34.644,710.198 -34.687,632.774 32.3,671.451 32.343,748.876 "/>
<polygon fill="#FFFFFF" points="-34.566,555.75 32.465,516.999 32.465,594.351 -34.566,633.101 "/>
<polygon fill="#FFFFFF" points="-34.644,478.625 -34.687,401.199 32.3,439.877 32.343,517.301 "/>
<polygon fill="#123456" stroke="#123456" stroke-width="0.25" stroke-miterlimit="10" points="165.753,439.956 232.784,401.205 
	232.784,478.558 165.753,517.307 "/>
<polygon fill="#1D71B8" stroke="#1D71B8" stroke-width="0.25" stroke-miterlimit="10" points="232.494,401.356 299.482,362.68 
	366.555,401.355 299.525,440.056 "/>
<polygon fill="#FFFFFF" points="567.051,285.582 567.126,285.539 567.051,285.496 567.051,285.391 566.96,285.443 500.053,246.863 
	433.242,285.437 433.152,285.385 433.152,285.489 433.066,285.539 433.152,285.589 433.194,362.809 500.02,401.39 500.02,401.49 
	500.107,401.44 500.183,401.484 500.183,401.396 567.05,362.741 "/>
<polygon fill="#123456" stroke="#123456" stroke-width="0.25" stroke-miterlimit="10" points="232.624,478.625 232.581,401.199 
	299.569,439.877 299.612,517.301 "/>
<polygon fill="#123456" stroke="#123456" stroke-width="0.25" stroke-miterlimit="10" points="299.448,439.956 366.478,401.205 
	366.478,478.558 299.448,517.307 "/>
<polygon fill="#FFFFFF" points="433.066,285.539 500.053,246.863 567.126,285.539 500.096,324.239 "/>
<polygon fill="#FFFFFF" points="433.194,362.809 433.152,285.385 500.141,324.059 500.183,401.484 "/>
<polygon fill="#FFFFFF" points="500.02,324.139 567.051,285.391 567.05,362.741 500.02,401.49 "/>
<image overflow="visible" opacity="0.5" width="2858" height="1602" xlink:href="../../../dennishelbig/web/entwurf/start_image.png"  transform="matrix(0.3264 0 0 0.3264 1169.5437 81.3371)">
</image>
<g>
	<path fill="#1D1D1B" d="M487.527,323.313c0,0.503-0.406,0.911-0.907,0.911c-0.501,0-0.907-0.408-0.907-0.911
		c0-0.504,0.406-0.911,0.907-0.911C487.121,322.402,487.527,322.809,487.527,323.313 M488.99,324.714c0-1.831-1.477-3.315-3.3-3.315
		c-1.822,0-3.3,1.484-3.3,3.315s1.478,3.315,3.3,3.315C487.513,328.029,488.99,326.544,488.99,324.714"/>
	<path fill="#1D1D1B" d="M507.187,365.928l-2.636-6.573l4.342-1.466l-8.934,0.233l-8.934-0.233l4.342,1.466l-2.636,6.573
		l-8.044-5.477l3.937-7.529c3.143,0.857,11.335,0.859,11.335,0.859s8.191-0.002,11.335-0.859l3.937,7.529L507.187,365.928z
		 M521.029,350.435c0,0-6.221-3.656-10.749-3.656c-1.578,0-10.321-0.289-10.321-0.289s-8.743,0.289-10.32,0.289
		c-4.529,0-10.749,3.656-10.749,3.656l1.405-7.133l-12.22-10.622l0.775,28.292l19.433,15.942h11.677h11.677l19.433-15.942
		l0.776-28.36l-12.22,10.656L521.029,350.435z"/>
	<path fill="#1D1D1B" d="M528.8,319.198c0,0-3.572-5.413-7.366-5.413c0,0-11.612,0.232-15.996,0.236l-0.044,15.405l2.473-10.949
		c4.265-0.629,9.246-0.642,13.845-0.873C525.245,317.429,528.037,318.413,528.8,319.198"/>
	<path fill="#1D1D1B" d="M494.48,318.987v-4.965c-4.384-0.004-16.004-0.236-16.004-0.236c-3.803,0-7.237,5.433-7.237,5.433
		c0.765-0.784,3.525-1.737,7.065-1.56C483.764,317.93,490.096,317.961,494.48,318.987"/>
	<path fill="#1D1D1B" d="M499.959,274.636c-15.801,0-33.243,7.988-33.243,7.988l1.051,38.776l2.282-14.607l3.147,0.532l2.802-18.121
		l23.961,1.565l23.961-1.565l2.802,18.121l3.147-0.532l2.282,14.607l1.051-38.776C533.202,282.624,515.76,274.636,499.959,274.636"
		/>
	<path fill="#1D1D1B" d="M515.954,323.32c0,0.501-0.404,0.906-0.903,0.906c-0.498,0-0.902-0.405-0.902-0.906
		s0.404-0.907,0.902-0.907C515.55,322.413,515.954,322.819,515.954,323.32 M517.511,324.714c0-1.821-1.47-3.298-3.283-3.298
		c-1.813,0-3.283,1.476-3.283,3.298s1.47,3.298,3.283,3.298C516.041,328.012,517.511,326.535,517.511,324.714"/>
</g>
</svg>
